<svg width="1920" height="975" viewBox="0 0 1920 975" fill="none" xmlns="http://www.w3.org/2000/svg"><script xmlns=""/>
<g clip-path="url(#clip0_645_2562)">
<rect width="1920" height="975" fill="#8C2982"/>
<path d="M95.0453 76.4486C100.053 85.9055 105.312 95.4423 110.183 105.15C113.161 111.025 115.225 117.254 114.849 124.03C114.324 133.282 105.974 139.225 97.3268 135.871C93.1907 134.258 89.4145 131.843 86.2159 128.764C80.2041 122.912 74.8083 116.398 68.9106 109.816C68.292 110.997 67.6025 112.14 66.8459 113.238C62.1574 119.273 57.7198 125.49 52.575 131.16C50.1903 133.507 47.2926 135.268 44.1106 136.304C35.8287 139.396 28.7218 134.491 28.4252 125.627C28.2666 117.625 30.7616 109.795 35.5207 103.359C40.2434 96.6289 45.7875 90.5143 50.9095 84.3086C45.2856 73.5741 38.9658 62.3605 33.5244 50.7476C31.1468 45.5868 29.754 40.0271 29.4177 34.3548C28.7789 23.2667 38.0646 16.7305 48.2744 21.0312C52.888 23.0834 57.0514 26.0255 60.5261 29.6893C66.0701 35.3931 70.7929 41.9981 75.9149 48.2723C78.6641 43.8804 81.1509 39.1464 84.3108 35.0283C87.6533 30.5918 91.3583 26.44 95.3876 22.6164C99.6426 18.6238 104.89 17.9165 110.217 20.5973C115.545 23.278 117.062 28.1494 116.377 33.7505C115.145 43.3671 111.255 52.0824 106.282 60.2502C102.814 65.9084 98.7186 71.1897 95.0453 76.4486Z" fill="#E1A7BC" stroke="white" stroke-width="0.15" stroke-miterlimit="10"/>
<path d="M178.799 276.206C183.807 285.663 189.066 295.2 193.937 304.896C196.914 310.782 198.967 317 198.591 323.787C198.078 333.039 189.716 338.982 181.08 335.628C176.944 334.008 173.166 331.594 169.958 328.521C163.958 322.658 158.55 316.144 152.664 309.562C152.048 310.744 151.358 311.887 150.599 312.984C145.911 319.019 141.416 325.236 136.317 330.905C133.932 333.246 131.039 335.007 127.864 336.05C119.582 339.142 112.475 334.225 112.167 325.373C112.018 317.367 114.516 309.535 119.274 303.094C123.986 296.375 129.541 290.26 134.663 284.043C129.039 273.308 122.719 262.106 117.278 250.482C114.9 245.324 113.504 239.77 113.16 234.101C112.521 223.013 121.818 216.465 132.016 220.777C136.637 222.822 140.806 225.765 144.28 229.435C149.824 235.196 154.546 241.744 159.668 248.007C162.406 243.626 164.904 238.949 168.064 234.774C171.401 230.332 175.106 226.181 179.141 222.362C183.385 218.37 188.644 217.663 193.971 220.332C199.298 223.001 200.815 227.884 200.142 233.485C198.91 243.113 195.009 251.817 190.035 259.984C186.556 265.654 182.472 270.947 178.799 276.206Z" fill="#E1A7BC" stroke="white" stroke-width="0.15" stroke-miterlimit="10"/>
<path d="M61.95 231.125C66.9579 240.582 72.2168 250.118 77.0878 259.815C80.0652 265.701 82.1299 271.918 81.7535 278.694C81.2287 287.957 72.8784 293.9 64.2315 290.547C60.0975 288.929 56.3221 286.515 53.1205 283.44C47.1088 277.576 41.713 271.062 35.8153 264.48C35.1991 265.663 34.5095 266.806 33.7505 267.903C29.062 273.937 24.6245 280.154 19.4797 285.824C17.0931 288.169 14.196 289.93 11.0153 290.969C2.73337 294.06 -4.37353 289.144 -4.67013 280.292C-4.82868 272.286 -2.33387 264.452 2.42537 258.012C7.1481 251.293 12.6922 245.179 17.8142 238.962C12.1902 228.227 5.87045 217.025 0.429047 205.4C-1.95026 200.244 -3.34317 194.688 -3.67768 189.019C-4.3165 177.931 4.96925 171.383 15.179 175.695C19.7921 177.743 23.9556 180.682 27.4307 184.342C32.9748 190.114 37.6975 196.662 42.8195 202.925C45.5687 198.545 48.0556 193.867 51.2155 189.692C54.5548 185.25 58.2599 181.095 62.2922 177.27C66.5472 173.289 71.7947 172.581 77.122 175.251C82.4493 177.92 83.9666 182.802 83.2821 188.403C82.0501 198.031 78.1601 206.735 73.1864 214.903C69.7185 220.573 65.6232 225.866 61.95 231.125Z" fill="#E1A7BC" stroke="white" stroke-width="0.15" stroke-miterlimit="10"/>
<path d="M454.349 81.7757C459.357 91.2211 464.616 100.769 469.487 110.466C472.464 116.34 474.518 122.569 474.141 129.345C473.628 138.608 465.266 144.551 456.631 141.186C452.495 139.57 448.717 137.16 445.508 134.091C439.508 128.227 434.101 121.713 428.215 115.131C427.598 116.314 426.909 117.457 426.15 118.553C421.461 124.588 416.967 130.805 411.868 136.475C409.484 138.818 406.591 140.579 403.415 141.62C395.133 144.711 388.026 139.805 387.718 130.942C387.567 122.941 390.061 115.113 394.813 108.674C399.536 101.944 405.08 95.8296 410.213 89.6239C404.578 78.8894 398.27 67.6759 392.817 56.063C390.444 50.9005 389.052 45.3417 388.71 39.6702C388.071 28.5821 397.369 22.0454 407.567 26.346C412.186 28.3951 416.353 31.3381 419.83 35.0047C425.374 40.7085 430.097 47.3135 435.219 53.5877C437.957 49.2072 440.455 44.53 443.615 40.3548C446.951 35.9095 450.656 31.7536 454.692 27.9318C458.935 23.9392 464.194 23.2433 469.521 25.9126C474.849 28.582 476.366 33.4642 475.693 39.0653C474.461 48.6933 470.559 57.3978 465.586 65.5656C462.106 71.2237 458.022 76.5054 454.349 81.7757Z" fill="#E1A7BC" stroke="white" stroke-width="0.15" stroke-miterlimit="10"/>
<path d="M314.09 153.848C319.098 163.305 324.357 172.842 329.228 182.538C332.205 188.425 334.258 194.653 333.882 201.429C333.369 210.681 325.007 216.625 316.371 213.271C312.233 211.655 308.453 209.24 305.249 206.164C299.249 200.312 293.841 193.786 287.955 187.215C287.336 188.397 286.647 189.54 285.89 190.638C281.202 196.672 276.707 202.889 271.608 208.559C269.225 210.903 266.332 212.664 263.155 213.704C254.873 216.795 247.766 211.89 247.458 203.027C247.309 195.024 249.807 187.196 254.565 180.759C259.276 174.029 264.832 167.914 269.954 161.697C264.33 150.974 258.01 139.76 252.569 128.136C250.19 122.979 248.797 117.423 248.462 111.755C247.812 100.666 257.109 94.1298 267.307 98.4304C271.926 100.479 276.094 103.422 279.571 107.089C285.115 112.85 289.837 119.398 294.959 125.672C297.697 121.28 300.195 116.603 303.355 112.427C306.695 107.989 310.4 103.837 314.432 100.016C318.676 96.0236 323.934 95.3165 329.262 97.9859C334.589 100.655 336.106 105.549 335.433 111.15C334.201 120.767 330.3 129.482 325.326 137.65C321.847 143.297 317.763 148.567 314.09 153.848Z" fill="#E1A7BC" stroke="white" stroke-width="0.15" stroke-miterlimit="10"/>
<path d="M196.262 100.426C199.262 106.129 202.4 111.834 205.388 117.64C207.317 121.098 208.282 125.009 208.183 128.967C207.875 134.523 202.856 138.093 197.677 136.074C195.194 135.103 192.927 133.654 191.003 131.808C187.399 128.295 184.159 124.382 180.622 120.401C180.255 121.109 179.84 121.791 179.379 122.443C176.573 126.07 173.881 129.8 170.823 133.2C169.391 134.603 167.654 135.658 165.747 136.28C160.773 138.139 156.507 135.196 156.324 129.88C156.236 125.079 157.735 120.383 160.591 116.522C163.42 112.484 166.774 108.811 169.82 105.115C166.397 98.6807 162.656 91.9498 159.393 84.9798C157.967 81.884 157.131 78.5495 156.929 75.1469C156.541 68.4963 162.119 64.5721 168.234 67.1616C171.006 68.3876 173.507 70.1517 175.592 72.3518C178.923 75.7741 181.752 79.7325 184.832 83.497C186.475 80.8619 187.969 78.0556 189.863 75.5117C191.868 72.8475 194.092 70.356 196.513 68.0628C197.656 66.9133 199.144 66.1712 200.75 65.9507C202.356 65.7301 203.989 66.043 205.4 66.8419C208.639 68.4731 209.529 71.4048 209.096 74.7358C208.222 80.4046 206.157 85.8247 203.038 90.6384C200.917 94.0949 198.464 97.2315 196.262 100.426Z" fill="#E1A7BC" stroke="white" stroke-width="0.09" stroke-miterlimit="10"/>
<path d="M538.102 281.522C543.11 290.979 548.369 300.516 553.228 310.212C556.217 316.098 558.27 322.326 557.894 329.103C557.381 338.354 549.019 344.298 540.372 340.944C536.238 339.327 532.463 336.912 529.261 333.837C523.249 327.985 517.853 321.46 511.956 314.889C511.337 316.07 510.647 317.213 509.891 318.311C505.214 324.346 500.765 330.563 495.62 336.232C493.237 338.576 490.344 340.337 487.167 341.377C478.885 344.469 471.767 339.564 471.47 330.7C471.312 322.698 473.807 314.868 478.566 308.433C483.289 301.702 488.833 295.588 493.955 289.371C488.331 278.647 482.022 267.433 476.569 255.809C474.195 250.651 472.803 245.096 472.463 239.428C471.824 228.34 481.11 221.792 491.319 226.104C495.939 228.152 500.107 231.095 503.583 234.762C509.115 240.523 513.849 247.071 518.96 253.345C521.709 248.953 524.207 244.277 527.367 240.101C530.699 235.66 534.401 231.508 538.433 227.69C542.688 223.697 547.935 222.99 553.262 225.659C558.59 228.329 560.107 233.211 559.423 238.824C558.191 248.44 554.3 257.144 549.327 265.323C545.859 270.97 541.764 276.263 538.102 281.522Z" fill="#E1A7BC" stroke="white" stroke-width="0.15" stroke-miterlimit="10"/>
<path d="M412.15 237.1C415.151 242.804 418.288 248.508 421.276 254.315C423.199 257.775 424.164 261.685 424.071 265.642C423.763 271.197 418.744 274.768 413.554 272.749C411.077 271.779 408.813 270.333 406.892 268.494C403.287 264.98 400.047 261.068 396.511 257.086C396.136 257.791 395.721 258.472 395.267 259.128C392.461 262.744 389.757 266.475 386.7 269.874C385.276 271.285 383.541 272.344 381.635 272.966C376.662 274.825 372.395 271.825 372.213 266.555C372.12 261.753 373.621 257.056 376.479 253.197C379.308 249.158 382.662 245.497 385.708 241.789C382.285 235.344 378.544 228.624 375.27 221.654C373.852 218.556 373.016 215.223 372.806 211.821C372.429 205.159 377.996 201.235 384.122 203.836C386.894 205.062 389.395 206.826 391.48 209.026C394.8 212.449 397.64 216.419 400.709 220.172C402.363 217.548 403.857 214.742 405.751 212.186C407.752 209.522 409.973 207.031 412.39 204.737C413.535 203.587 415.026 202.845 416.634 202.627C418.242 202.408 419.878 202.725 421.288 203.528C424.516 205.159 425.417 208.091 424.984 211.422C424.108 217.09 422.044 222.509 418.927 227.324C416.805 230.769 414.352 233.94 412.15 237.1Z" fill="#E1A7BC" stroke="white" stroke-width="0.09" stroke-miterlimit="10"/>
<path d="M312.94 308.991C317.948 318.448 323.207 327.985 328.078 337.681C331.056 343.568 333.109 349.796 332.733 356.572C332.219 365.824 323.857 371.768 315.222 368.414C311.084 366.798 307.304 364.384 304.1 361.307C298.088 355.455 292.692 348.929 286.794 342.359C286.18 343.542 285.49 344.685 284.73 345.781C280.052 351.815 275.603 358.032 270.459 363.702C268.075 366.046 265.182 367.807 262.006 368.847C253.724 371.939 246.617 367.033 246.309 358.17C246.155 350.168 248.65 342.34 253.404 335.902C258.127 329.172 263.728 323.057 268.793 316.84C263.169 306.117 256.861 294.903 251.408 283.279C249.034 278.121 247.641 272.566 247.301 266.898C246.663 255.81 255.96 249.273 266.158 253.573C270.777 255.623 274.945 258.566 278.421 262.232C283.965 267.993 288.688 274.541 293.81 280.815C296.548 276.423 299.046 271.746 302.206 267.571C305.539 263.126 309.244 258.974 313.283 255.159C317.526 251.167 322.785 250.46 328.112 253.129C333.44 255.798 334.957 260.692 334.284 266.293C333.052 275.91 329.151 284.614 324.177 292.793C320.698 298.44 316.602 303.71 312.94 308.991Z" fill="#E1A7BC" stroke="white" stroke-width="0.15" stroke-miterlimit="10"/>
<path d="M1877.85 102.847C1882.86 112.292 1888.12 121.84 1892.99 131.537C1895.97 137.412 1898.03 143.64 1897.64 150.417C1897.13 159.68 1888.78 165.623 1880.13 162.257C1876 160.645 1872.22 158.233 1869.02 155.162C1863.01 149.298 1857.61 142.785 1851.72 136.203C1851.1 137.386 1850.41 138.529 1849.65 139.625C1844.96 145.66 1840.53 151.877 1835.38 157.546C1832.99 159.892 1830.1 161.652 1826.92 162.691C1818.63 165.782 1811.53 160.877 1811.22 152.014C1811.07 144.011 1813.57 136.183 1818.33 129.746C1823.05 123.016 1828.59 116.901 1833.72 110.695C1828.09 99.9606 1821.77 88.7471 1816.33 77.1342C1813.95 71.969 1812.57 66.4057 1812.23 60.7303C1811.6 49.6421 1820.88 43.1054 1831.08 47.4061C1835.7 49.4551 1839.87 52.3981 1843.34 56.0648C1848.89 61.8256 1853.61 68.3736 1858.73 74.6477C1861.48 70.2558 1863.97 65.59 1867.13 61.4148C1870.47 56.9722 1874.17 52.8166 1878.2 48.9919C1882.45 44.9992 1887.71 44.3033 1893.03 46.9727C1898.36 49.6421 1899.88 54.5248 1899.19 60.1259C1897.96 69.7539 1894.07 78.4578 1889.1 86.6256C1885.62 92.2952 1881.52 97.5766 1877.85 102.847Z" fill="#E1A7BC" stroke="white" stroke-width="0.15" stroke-miterlimit="10"/>
<path d="M1737.59 174.92C1742.6 184.376 1747.86 193.913 1752.73 203.609C1755.71 209.496 1757.77 215.724 1757.4 222.5C1756.87 231.752 1748.52 237.695 1739.88 234.341C1735.74 232.728 1731.96 230.313 1728.77 227.234C1722.75 221.382 1717.36 214.857 1711.46 208.287C1710.84 209.468 1710.15 210.611 1709.4 211.709C1704.71 217.743 1700.27 223.961 1695.12 229.63C1692.74 231.978 1689.84 233.739 1686.66 234.775C1678.38 237.866 1671.27 232.961 1670.97 224.097C1670.82 216.095 1673.31 208.265 1678.07 201.83C1682.79 195.099 1688.34 188.985 1693.46 182.768C1687.83 172.045 1681.52 160.831 1676.07 149.207C1673.69 144.051 1672.3 138.495 1671.97 132.826C1671.33 121.738 1680.61 115.201 1690.82 119.502C1695.44 121.55 1699.6 124.492 1703.08 128.16C1708.62 133.921 1713.34 140.469 1718.46 146.743C1721.21 142.351 1723.7 137.674 1726.86 133.499C1730.2 129.06 1733.9 124.908 1737.94 121.087C1742.19 117.095 1747.44 116.387 1752.77 119.057C1758.09 121.726 1759.61 126.608 1758.93 132.221C1757.69 141.837 1753.8 150.541 1748.83 158.721C1745.36 164.367 1741.27 169.661 1737.59 174.92Z" fill="#E1A7BC" stroke="white" stroke-width="0.15" stroke-miterlimit="10"/>
<path d="M1961.6 302.57C1966.61 312.027 1971.87 321.564 1976.74 331.26C1979.72 337.147 1981.77 343.375 1981.4 350.151C1980.88 359.403 1972.52 365.346 1963.88 361.992C1959.75 360.373 1955.97 357.958 1952.76 354.885C1946.76 349.033 1941.36 342.508 1935.47 335.938C1934.85 337.119 1934.16 338.262 1933.4 339.36C1928.72 345.394 1924.28 351.611 1919.12 357.281C1916.74 359.625 1913.85 361.386 1910.67 362.426C1902.39 365.518 1895.28 360.612 1894.97 351.748C1894.82 343.747 1897.31 335.918 1902.07 329.481C1906.79 322.75 1912.33 316.636 1917.47 310.419C1911.83 299.696 1905.52 288.482 1900.07 276.858C1897.7 271.7 1896.3 266.145 1895.96 260.477C1895.33 249.389 1904.62 242.84 1914.82 247.152C1919.44 249.198 1923.61 252.141 1927.08 255.811C1932.63 261.571 1937.35 268.119 1942.47 274.394C1945.21 270.002 1947.71 265.325 1950.87 261.15C1954.21 256.708 1957.91 252.556 1961.95 248.738C1966.19 244.746 1971.45 244.038 1976.78 246.707C1982.1 249.377 1983.62 254.26 1982.95 259.861C1981.72 269.489 1977.81 278.192 1972.84 286.371C1969.36 292.041 1965.28 297.334 1961.6 302.57Z" fill="#E1A7BC" stroke="white" stroke-width="0.15" stroke-miterlimit="10"/>
<path d="M1835.65 258.17C1838.65 263.874 1841.79 269.578 1844.78 275.384C1846.71 278.842 1847.67 282.754 1847.57 286.712C1847.26 292.267 1842.25 295.838 1837.07 293.819C1834.58 292.852 1832.32 291.406 1830.39 289.564C1826.79 286.05 1823.55 282.138 1820.01 278.156C1819.64 278.863 1819.23 279.545 1818.77 280.198C1815.96 283.815 1813.27 287.545 1810.21 290.944C1808.78 292.355 1807.05 293.414 1805.14 294.036C1800.16 295.895 1795.9 292.895 1795.71 287.624C1795.63 282.823 1797.13 278.128 1799.98 274.266C1802.81 270.228 1806.16 266.555 1809.21 262.859C1805.79 256.413 1802.05 249.694 1798.78 242.724C1797.36 239.628 1796.52 236.293 1796.32 232.891C1795.93 226.229 1801.51 222.305 1807.62 224.906C1810.4 226.132 1812.9 227.896 1814.98 230.096C1818.31 233.519 1821.14 237.489 1824.22 241.242C1825.86 238.618 1827.36 235.812 1829.25 233.256C1831.26 230.592 1833.48 228.1 1835.9 225.807C1837.04 224.656 1838.53 223.913 1840.14 223.695C1841.75 223.476 1843.38 223.794 1844.79 224.598C1848.03 226.229 1848.92 229.161 1848.49 232.492C1847.62 238.158 1845.55 243.575 1842.43 248.383C1840.31 251.839 1837.85 255.01 1835.65 258.17Z" fill="#E1A7BC" stroke="white" stroke-width="0.09" stroke-miterlimit="10"/>
<path d="M1736.44 330.063C1741.45 339.519 1746.71 349.056 1751.58 358.752C1754.56 364.639 1756.61 370.867 1756.23 377.643C1755.72 386.895 1747.37 392.838 1738.72 389.484C1734.59 387.865 1730.81 385.45 1727.6 382.377C1721.6 376.525 1716.19 370 1710.31 363.43C1709.69 364.611 1709 365.754 1708.24 366.852C1703.55 372.887 1699.12 379.104 1693.97 384.773C1691.59 387.118 1688.69 388.879 1685.51 389.918C1677.23 393.009 1670.12 388.104 1669.81 379.24C1669.66 371.238 1672.16 363.41 1676.92 356.973C1681.63 350.242 1687.18 344.128 1692.31 337.911C1686.68 327.188 1680.36 315.974 1674.92 304.35C1672.54 299.194 1671.15 293.638 1670.81 287.969C1670.16 276.881 1679.46 270.344 1689.66 274.645C1694.28 276.69 1698.45 279.633 1701.92 283.303C1707.47 289.064 1712.19 295.612 1717.31 301.886C1720.05 297.494 1722.55 292.817 1725.71 288.642C1729.05 284.203 1732.75 280.051 1736.78 276.23C1741.03 272.238 1746.29 271.53 1751.61 274.2C1756.94 276.869 1758.46 281.751 1757.79 287.364C1756.55 296.981 1752.65 305.684 1747.68 313.864C1744.2 319.51 1740.12 324.804 1736.44 330.063Z" fill="#E1A7BC" stroke="white" stroke-width="0.15" stroke-miterlimit="10"/>
<path d="M1619.77 121.497C1622.78 127.201 1625.9 132.904 1628.89 138.711C1630.82 142.168 1631.79 146.08 1631.69 150.039C1631.38 155.594 1626.37 159.165 1621.18 157.146C1618.7 156.172 1616.43 154.722 1614.51 152.879C1610.9 149.365 1607.66 145.453 1604.13 141.471C1603.76 142.177 1603.35 142.859 1602.9 143.513C1600.08 147.141 1597.39 150.871 1594.33 154.271C1592.9 155.675 1591.16 156.729 1589.25 157.351C1584.29 159.21 1580.02 156.267 1579.84 150.951C1579.74 146.15 1581.24 141.451 1584.1 137.593C1586.93 133.555 1590.29 129.881 1593.34 126.185C1589.91 119.751 1586.17 113.021 1582.9 106.051C1581.47 102.955 1580.64 99.6202 1580.43 96.2176C1580.05 89.567 1585.62 85.6428 1591.75 88.2323C1594.52 89.4584 1597.02 91.223 1599.11 93.4231C1602.43 96.8454 1605.27 100.804 1608.34 104.568C1609.98 101.933 1611.47 99.1269 1613.38 96.583C1615.38 93.9163 1617.6 91.424 1620.02 89.1336C1621.16 87.984 1622.65 87.2419 1624.26 87.0214C1625.86 86.8008 1627.49 87.1143 1628.9 87.9132C1632.14 89.5444 1633.03 92.4761 1632.6 95.8071C1631.74 101.478 1629.67 106.899 1626.54 111.709C1624.42 115.166 1621.97 118.337 1619.77 121.497Z" fill="#E1A7BC" stroke="white" stroke-width="0.09" stroke-miterlimit="10"/>
<path d="M818.215 87.1609C823.212 96.6063 828.482 106.154 833.342 115.851C836.319 121.726 838.384 127.954 838.007 134.731C837.482 143.994 829.132 149.937 820.485 146.571C816.352 144.959 812.576 142.547 809.374 139.476C803.363 133.612 797.967 127.099 792.069 120.517C791.453 121.7 790.763 122.843 790.004 123.939C785.316 129.985 780.878 136.19 775.733 141.871C773.348 144.216 770.45 145.973 767.269 147.005C758.999 150.108 751.88 145.191 751.584 136.328C751.427 128.325 753.922 120.496 758.679 114.06C763.402 107.329 768.946 101.215 774.068 95.0091C768.444 84.2746 762.124 73.0611 756.683 61.4482C754.305 56.2915 752.912 50.7358 752.576 45.0671C751.937 33.9676 761.223 27.4311 771.433 31.7317C776.046 33.7839 780.21 36.7261 783.684 40.3899C789.229 46.1507 793.951 52.6987 799.073 58.9728C801.822 54.5923 804.321 49.9151 807.469 45.74C810.809 41.2973 814.514 37.1423 818.546 33.3175C822.801 29.3249 828.048 28.629 833.376 31.2984C838.703 33.9678 840.22 38.8499 839.536 44.4511C838.304 54.079 834.414 62.783 829.44 70.9508C825.972 76.6089 821.877 81.902 818.215 87.1609Z" fill="#E1A7BC" stroke="white" stroke-width="0.15" stroke-miterlimit="10"/>
<path d="M668.844 159.896C671.856 165.6 674.982 171.303 677.97 177.11C679.9 180.572 680.865 184.487 680.765 188.449C680.457 194.004 675.449 197.575 670.259 195.556C667.778 194.582 665.511 193.133 663.586 191.29C659.981 187.776 656.741 183.863 653.205 179.882C652.837 180.588 652.426 181.27 651.973 181.924C649.155 185.54 646.463 189.27 643.406 192.681C641.973 194.085 640.236 195.139 638.329 195.761C633.367 197.621 629.101 194.677 628.918 189.361C628.827 184.558 630.322 179.859 633.173 175.992C636.002 171.954 639.367 168.292 642.413 164.584C638.991 158.151 635.249 151.42 631.975 144.45C630.549 141.354 629.713 138.019 629.511 134.617C629.123 127.966 634.702 124.042 640.827 126.631C643.597 127.861 646.098 129.625 648.185 131.822C651.505 135.244 654.345 139.214 657.414 142.979C659.057 140.343 660.551 137.537 662.456 134.993C664.454 132.323 666.675 129.827 669.095 127.533C670.24 126.387 671.73 125.648 673.335 125.429C674.94 125.211 676.572 125.525 677.982 126.323C681.222 127.955 682.111 130.886 681.678 134.217C680.812 139.888 678.747 145.31 675.621 150.119C673.499 153.565 671.046 156.748 668.844 159.896Z" fill="#E1A7BC" stroke="white" stroke-width="0.09" stroke-miterlimit="10"/>
<path d="M901.913 286.907C906.921 296.364 912.18 305.901 917.051 315.597C920.028 321.484 922.081 327.712 921.705 334.488C921.192 343.74 912.83 349.683 904.194 346.329C900.058 344.71 896.279 342.295 893.072 339.222C887.072 333.37 881.664 326.845 875.778 320.274C875.16 321.456 874.47 322.599 873.713 323.697C869.025 329.731 864.53 335.948 859.431 341.618C857.048 343.962 854.155 345.723 850.978 346.763C842.696 349.854 835.589 344.949 835.281 336.085C835.132 328.082 837.63 320.254 842.388 313.818C847.1 307.087 852.655 300.973 857.777 294.756C852.153 284.033 845.833 272.819 840.392 261.195C838.013 256.038 836.62 250.482 836.285 244.814C835.635 233.725 844.932 227.189 855.13 231.489C859.751 233.534 863.92 236.477 867.394 240.148C872.938 245.908 877.66 252.456 882.782 258.73C885.52 254.339 888.018 249.662 891.178 245.486C894.518 241.047 898.223 236.896 902.255 233.075C906.499 229.083 911.758 228.375 917.085 231.044C922.412 233.714 923.929 238.596 923.256 244.209C922.024 253.825 918.123 262.529 913.149 270.708C909.716 276.332 905.632 281.648 901.913 286.907Z" fill="#E1A7BC" stroke="white" stroke-width="0.15" stroke-miterlimit="10"/>
<path d="M785.12 241.825C790.117 251.282 795.387 260.818 800.246 270.515C803.224 276.401 805.289 282.63 804.912 289.406C804.387 298.657 796.037 304.6 787.39 301.247C783.256 299.629 779.481 297.215 776.279 294.14C770.267 288.288 764.872 281.763 758.974 275.192C758.355 276.373 757.666 277.516 756.909 278.614C752.221 284.649 747.783 290.866 742.638 296.535C740.254 298.883 737.356 300.645 734.174 301.68C725.903 304.772 718.785 299.866 718.489 291.003C718.33 283 720.825 275.17 725.584 268.735C730.307 262.005 735.851 255.89 740.973 249.673C735.349 238.95 729.029 227.736 723.588 216.112C721.208 210.956 719.816 205.4 719.481 199.731C718.842 188.643 728.128 182.106 738.338 186.407C742.955 188.452 747.12 191.395 750.589 195.065C756.133 200.826 760.856 207.374 765.978 213.648C768.727 209.256 771.226 204.579 774.374 200.404C777.714 195.965 781.419 191.813 785.451 187.993C789.706 184 794.953 183.292 800.281 185.962C805.608 188.631 807.125 193.514 806.441 199.126C805.209 208.743 801.319 217.447 796.345 225.626C792.877 231.273 788.782 236.566 785.12 241.825Z" fill="#E1A7BC" stroke="white" stroke-width="0.15" stroke-miterlimit="10"/>
<path d="M676.797 314.376C681.804 323.833 687.063 333.37 691.934 343.077C694.912 348.952 696.977 355.181 696.589 361.957C696.075 371.209 687.725 377.152 679.078 373.798C674.942 372.185 671.166 369.77 667.967 366.691C661.955 360.839 656.56 354.326 650.662 347.743C650.043 348.925 649.354 350.068 648.597 351.166C643.909 357.2 639.414 363.417 634.326 369.087C631.94 371.432 629.043 373.193 625.862 374.231C617.58 377.323 610.473 372.418 610.165 363.554C610.016 355.551 612.514 347.723 617.272 341.287C621.995 334.556 627.539 328.442 632.661 322.236C627.037 311.502 620.717 300.288 615.276 288.675C612.898 283.514 611.505 277.955 611.169 272.283C610.53 261.194 619.816 254.658 630.014 258.958C634.633 261.007 638.801 263.95 642.277 267.617C647.821 273.377 652.544 279.925 657.666 286.199C660.415 281.808 662.902 277.131 666.062 272.955C669.405 268.519 673.11 264.368 677.139 260.544C681.382 256.552 686.641 255.844 691.969 258.525C697.296 261.206 698.813 266.077 698.129 271.678C696.897 281.294 693.007 290.01 688.033 298.177C684.565 303.836 680.47 309.117 676.797 314.376Z" fill="#E1A7BC" stroke="white" stroke-width="0.15" stroke-miterlimit="10"/>
<path d="M1177.51 92.4759C1182.52 101.933 1187.77 111.469 1192.65 121.166C1195.62 127.052 1197.68 133.269 1197.3 140.045C1196.79 149.308 1188.42 155.252 1179.79 151.898C1175.65 150.278 1171.87 147.864 1168.67 144.791C1162.67 138.927 1157.26 132.413 1151.37 125.831C1150.76 127.014 1150.07 128.157 1149.31 129.254C1144.62 135.288 1140.18 141.505 1135.03 147.175C1132.64 149.516 1129.75 151.277 1126.57 152.32C1118.29 155.411 1111.18 150.495 1110.88 141.643C1110.73 133.636 1113.23 125.804 1117.98 119.363C1122.69 112.644 1128.25 106.53 1133.37 100.313C1127.75 89.5786 1121.43 78.3759 1115.98 66.7516C1113.6 61.5935 1112.21 56.0385 1111.87 50.3705C1111.23 39.2709 1120.53 32.7348 1130.73 37.0468C1135.35 39.0878 1139.51 42.0266 1142.99 45.6933C1148.53 51.4655 1153.26 58.0021 1158.38 64.2762C1161.11 59.8957 1163.61 55.2185 1166.77 51.0434C1170.11 46.598 1173.81 42.4427 1177.85 38.6209C1182.09 34.6397 1187.35 33.9324 1192.68 36.6018C1198.01 39.2711 1199.52 44.1533 1198.85 49.7544C1197.62 59.3824 1193.72 68.0863 1188.74 76.2542C1185.26 81.9237 1181.18 87.2171 1177.51 92.4759Z" fill="#E1A7BC" stroke="white" stroke-width="0.15" stroke-miterlimit="10"/>
<path d="M1037.25 164.538C1042.26 173.984 1047.52 183.532 1052.39 193.228C1055.36 199.103 1057.42 205.332 1057.04 212.108C1056.53 221.371 1048.18 227.314 1039.53 223.949C1035.39 222.333 1031.62 219.922 1028.41 216.853C1022.41 210.99 1017 204.476 1011.11 197.894C1010.5 199.077 1009.81 200.22 1009.05 201.317C1004.36 207.351 999.866 213.568 994.778 219.249C992.388 221.587 989.491 223.343 986.313 224.382C978.032 227.485 970.925 222.569 970.617 213.705C970.469 205.702 972.967 197.875 977.724 191.437C982.435 184.707 987.99 178.592 993.112 172.387C987.488 161.652 981.169 150.439 975.727 138.826C973.35 133.665 971.957 128.105 971.621 122.433C970.97 111.345 980.267 104.809 990.466 109.109C995.085 111.158 999.252 114.101 1002.73 117.767C1008.27 123.528 1013 130.076 1018.12 136.35C1020.86 131.97 1023.35 127.293 1026.51 123.117C1029.85 118.675 1033.56 114.519 1037.59 110.695C1041.83 106.702 1047.09 106.006 1052.42 108.675C1057.75 111.345 1059.26 116.227 1058.59 121.829C1057.36 131.457 1053.46 140.16 1048.48 148.328C1045.01 154.009 1040.92 159.291 1037.25 164.538Z" fill="#E1A7BC" stroke="white" stroke-width="0.15" stroke-miterlimit="10"/>
<path d="M919.421 111.129C922.421 116.833 925.558 122.536 928.547 128.343C930.475 131.8 931.44 135.712 931.342 139.67C931.034 145.226 926.014 148.796 920.835 146.777C918.353 145.81 916.086 144.364 914.162 142.522C910.557 138.997 907.317 135.096 903.781 131.115C903.411 131.822 902.996 132.504 902.537 133.157C899.731 136.773 897.039 140.503 893.982 143.903C892.55 145.31 890.813 146.368 888.905 146.994C883.932 148.842 879.665 145.853 879.483 140.583C879.396 135.782 880.895 131.086 883.749 127.225C886.578 123.186 889.932 119.513 892.978 115.817C889.556 109.372 885.814 102.653 882.551 95.6712C881.127 92.5789 880.291 89.2482 880.087 85.8495C879.7 79.1874 885.278 75.2632 891.392 77.8642C894.164 79.0902 896.665 80.8542 898.75 83.0544C902.081 86.4766 904.91 90.4351 907.99 94.1996C909.633 91.5758 911.127 88.7696 913.021 86.2143C915.026 83.5501 917.251 81.0586 919.672 78.7654C920.814 77.6143 922.303 76.8718 923.91 76.6532C925.516 76.4346 927.15 76.752 928.558 77.5561C931.798 79.176 932.688 82.1191 932.254 85.4501C931.38 91.1153 929.315 96.5313 926.197 101.341C924.075 104.797 921.622 107.969 919.421 111.129Z" fill="#E1A7BC" stroke="white" stroke-width="0.09" stroke-miterlimit="10"/>
<path d="M1261.25 292.222C1266.26 301.678 1271.52 311.226 1276.39 320.923C1279.37 326.798 1281.42 333.026 1281.04 339.802C1280.53 349.054 1272.17 355.009 1263.52 351.643C1259.39 350.031 1255.61 347.615 1252.41 344.537C1246.4 338.684 1241 332.171 1235.1 325.589C1234.49 326.77 1233.8 327.913 1233.04 329.011C1228.36 335.046 1223.91 341.263 1218.77 346.932C1216.39 349.276 1213.49 351.037 1210.32 352.077C1202.03 355.168 1194.92 350.263 1194.62 341.399C1194.47 333.398 1196.96 325.57 1201.72 319.132C1206.44 312.401 1211.98 306.287 1217.1 300.081C1211.48 289.347 1205.17 278.133 1199.72 266.52C1197.35 261.358 1195.95 255.799 1195.61 250.127C1194.97 239.039 1204.26 232.503 1214.47 236.804C1219.09 238.856 1223.25 241.798 1226.73 245.462C1232.28 251.223 1237 257.771 1242.11 264.045C1244.86 259.653 1247.36 254.976 1250.52 250.801C1253.85 246.362 1257.55 242.21 1261.58 238.389C1263.49 236.47 1265.97 235.232 1268.65 234.867C1271.34 234.502 1274.06 235.03 1276.41 236.37C1281.81 239.085 1283.26 243.922 1282.57 249.523C1281.34 259.151 1277.45 267.855 1272.48 276.023C1269.02 281.681 1264.92 286.963 1261.25 292.222Z" fill="#E1A7BC" stroke="white" stroke-width="0.15" stroke-miterlimit="10"/>
<path d="M1135.31 247.813C1138.31 253.517 1141.45 259.22 1144.43 265.027C1146.33 268.486 1147.28 272.387 1147.17 276.332C1146.86 281.887 1141.84 285.458 1136.67 283.439C1134.18 282.467 1131.92 281.018 1129.99 279.172C1126.39 275.659 1123.15 271.746 1119.61 267.765C1119.24 268.471 1118.82 269.152 1118.37 269.806C1115.56 273.423 1112.87 277.153 1109.8 280.564C1108.37 281.97 1106.64 283.025 1104.74 283.644C1099.76 285.504 1095.5 282.56 1095.31 277.244C1095.22 272.439 1096.72 267.738 1099.58 263.875C1102.41 259.837 1105.76 256.175 1108.81 252.467C1105.39 246.033 1101.64 239.303 1098.38 232.333C1096.95 229.239 1096.11 225.903 1095.92 222.5C1095.53 215.849 1101.11 211.925 1107.22 214.514C1109.99 215.744 1112.49 217.508 1114.58 219.704C1117.91 223.127 1120.74 227.097 1123.81 230.861C1125.46 228.226 1126.96 225.42 1128.85 222.876C1130.86 220.208 1133.08 217.713 1135.5 215.416C1136.65 214.27 1138.14 213.531 1139.74 213.312C1141.35 213.094 1142.98 213.408 1144.39 214.206C1147.62 215.838 1148.52 218.769 1148.08 222.1C1147.21 227.768 1145.14 233.188 1142.03 238.002C1139.96 241.47 1137.51 244.653 1135.31 247.813Z" fill="#E1A7BC" stroke="white" stroke-width="0.09" stroke-miterlimit="10"/>
<path d="M1036.1 319.681C1041.11 329.126 1046.37 338.674 1051.24 348.371C1054.21 354.246 1056.27 360.475 1055.89 367.251C1055.38 376.514 1047.02 382.457 1038.38 379.092C1034.24 377.476 1030.47 375.065 1027.26 371.996C1021.26 366.132 1015.85 359.619 1009.95 353.037C1009.34 354.222 1008.65 355.365 1007.89 356.459C1003.21 362.494 998.762 368.711 993.617 374.392C991.231 376.729 988.339 378.486 985.164 379.525C976.882 382.628 969.775 377.711 969.467 368.848C969.316 360.846 971.811 353.019 976.563 346.58C981.286 339.85 986.83 333.735 991.952 327.529C986.328 316.795 980.019 305.581 974.566 293.968C972.194 288.806 970.801 283.247 970.46 277.575C969.821 266.487 979.118 259.951 989.316 264.252C993.935 266.301 998.103 269.243 1001.58 272.91C1007.12 278.671 1011.85 285.219 1016.97 291.493C1019.71 287.112 1022.2 282.435 1025.36 278.26C1028.7 273.812 1032.4 269.656 1036.44 265.837C1040.68 261.844 1045.94 261.149 1051.27 263.818C1056.6 266.487 1058.12 271.37 1057.44 276.971C1056.21 286.599 1052.31 295.303 1047.34 303.471C1043.86 309.152 1039.76 314.433 1036.1 319.681Z" fill="#E1A7BC" stroke="white" stroke-width="0.15" stroke-miterlimit="10"/>
<path d="M1518.56 97.5174C1523.57 106.974 1528.82 116.511 1533.7 126.219C1536.67 132.094 1538.73 138.322 1538.35 145.098C1537.84 154.35 1529.48 160.293 1520.84 156.939C1516.7 155.327 1512.92 152.911 1509.72 149.832C1503.71 143.98 1498.31 137.467 1492.41 130.885C1491.8 132.068 1491.11 133.211 1490.35 134.307C1485.67 140.341 1481.22 146.558 1476.08 152.228C1473.69 154.572 1470.8 156.333 1467.62 157.373C1459.34 160.465 1452.23 155.559 1451.93 146.695C1451.77 138.694 1454.27 130.865 1459.02 124.428C1463.74 117.697 1469.35 111.583 1474.41 105.366C1468.79 94.6426 1462.48 83.4294 1457.03 71.8165C1454.65 66.6539 1453.26 61.0952 1452.92 55.4237C1452.28 44.3356 1461.58 37.7988 1471.78 42.0995C1476.39 44.1514 1480.56 47.0935 1484.04 50.7576C1489.58 56.5184 1494.31 63.0664 1499.43 69.3406C1502.17 64.9487 1504.66 60.2717 1507.82 56.0966C1511.16 51.6546 1514.86 47.5028 1518.9 43.6853C1523.14 39.6926 1528.4 38.9853 1533.73 41.6661C1539.06 44.3469 1540.57 49.2177 1539.89 54.8188C1538.67 64.4353 1534.77 73.1507 1529.79 81.3185C1526.32 86.9652 1522.22 92.2586 1518.56 97.5174Z" fill="#E1A7BC" stroke="white" stroke-width="0.15" stroke-miterlimit="10"/>
<path d="M1369.2 170.24C1372.2 175.944 1375.32 181.648 1378.32 187.454C1380.21 190.918 1381.14 194.818 1381.03 198.759C1380.72 204.315 1375.7 207.885 1370.51 205.866C1368.03 204.896 1365.77 203.45 1363.85 201.611C1360.24 198.097 1357 194.185 1353.47 190.203C1353.09 190.908 1352.68 191.59 1352.22 192.245C1349.42 195.862 1346.71 199.592 1343.66 202.991C1342.23 204.405 1340.49 205.464 1338.58 206.083C1333.62 207.942 1329.35 204.942 1329.17 199.671C1329.08 194.872 1330.57 190.176 1333.42 186.313C1336.26 182.275 1339.62 178.602 1342.66 174.906C1339.24 168.46 1335.5 161.742 1332.23 154.772C1330.81 151.673 1329.97 148.339 1329.76 144.938C1329.38 138.276 1334.95 134.352 1341.08 136.953C1343.85 138.179 1346.35 139.943 1348.44 142.144C1351.75 145.566 1354.6 149.536 1357.66 153.289C1359.31 150.665 1360.81 147.859 1362.71 145.303C1364.7 142.637 1366.93 140.144 1369.35 137.854C1370.49 136.705 1371.98 135.964 1373.58 135.745C1375.19 135.527 1376.82 135.843 1378.23 136.645C1381.47 138.276 1382.36 141.208 1381.94 144.539C1381.07 150.207 1379 155.623 1375.87 160.43C1373.85 163.932 1371.39 167.103 1369.2 170.24Z" fill="#E1A7BC" stroke="white" stroke-width="0.09" stroke-miterlimit="10"/>
<path d="M1602.33 297.275C1607.34 306.732 1612.6 316.269 1617.47 325.965C1620.45 331.851 1622.51 338.069 1622.14 344.845C1621.61 354.108 1613.26 360.051 1604.62 356.698C1600.48 355.08 1596.71 352.666 1593.51 349.591C1587.49 343.727 1582.1 337.213 1576.2 330.631C1575.58 331.814 1574.89 332.957 1574.14 334.053C1569.45 340.088 1565.01 346.305 1559.86 351.975C1557.48 354.32 1554.58 356.081 1551.4 357.119C1543.12 360.211 1536.01 355.294 1535.71 346.442C1535.56 338.436 1538.05 330.603 1542.81 324.163C1547.53 317.444 1553.08 311.329 1558.2 305.112C1552.58 294.378 1546.26 283.176 1540.81 271.551C1538.43 266.395 1537.04 260.839 1536.71 255.17C1536.07 244.071 1545.35 237.534 1555.56 241.846C1560.18 243.894 1564.34 246.833 1567.82 250.493C1573.36 256.265 1578.08 262.813 1583.2 269.076C1585.95 264.696 1588.44 260.018 1591.6 255.843C1594.94 251.401 1598.64 247.245 1602.68 243.42C1606.93 239.439 1612.18 238.732 1617.51 241.401C1622.83 244.07 1624.35 248.953 1623.67 254.554C1622.43 264.182 1618.55 272.886 1613.57 281.054C1610.07 286.724 1605.97 292.016 1602.33 297.275Z" fill="#E1A7BC" stroke="white" stroke-width="0.15" stroke-miterlimit="10"/>
<path d="M1485.46 252.193C1490.47 261.65 1495.73 271.187 1500.6 280.883C1503.58 286.769 1505.63 292.986 1505.26 299.762C1504.74 309.025 1496.38 314.969 1487.74 311.615C1483.61 309.998 1479.83 307.583 1476.62 304.508C1470.61 298.645 1465.21 292.131 1459.32 285.549C1458.7 286.734 1458.01 287.877 1457.25 288.971C1452.57 295.006 1448.13 301.223 1442.98 306.892C1440.6 309.233 1437.7 310.994 1434.53 312.037C1426.25 315.128 1419.14 310.212 1418.83 301.359C1418.68 293.354 1421.17 285.523 1425.93 279.081C1430.65 272.362 1436.25 266.247 1441.32 260.03C1435.69 249.295 1429.38 238.093 1423.93 226.469C1421.56 221.311 1420.16 215.756 1419.82 210.088C1419.19 198.988 1428.48 192.452 1438.68 196.764C1443.3 198.811 1447.46 201.75 1450.94 205.411C1456.49 211.183 1461.21 217.731 1466.33 223.994C1469.07 219.613 1471.57 214.936 1474.73 210.761C1478.06 206.313 1481.77 202.157 1485.81 198.338C1490.05 194.356 1495.31 193.649 1500.63 196.319C1505.96 198.988 1507.48 203.871 1506.79 209.472C1505.57 219.1 1501.67 227.804 1496.7 235.972C1493.22 241.641 1489.12 246.934 1485.46 252.193Z" fill="#E1A7BC" stroke="white" stroke-width="0.15" stroke-miterlimit="10"/>
<path d="M1377.15 324.746C1382.16 334.203 1387.42 343.739 1392.28 353.436C1395.27 359.322 1397.32 365.551 1396.94 372.327C1396.43 381.578 1388.07 387.521 1379.42 384.168C1375.29 382.55 1371.51 380.136 1368.31 377.061C1362.3 371.209 1356.9 364.684 1351 358.113C1350.39 359.294 1349.7 360.437 1348.94 361.535C1344.26 367.57 1339.81 373.787 1334.67 379.456C1332.28 381.8 1329.39 383.561 1326.22 384.601C1317.93 387.693 1310.81 382.787 1310.52 373.924C1310.36 365.921 1312.85 358.091 1317.61 351.656C1322.34 344.926 1327.88 338.811 1333 332.594C1327.38 321.871 1321.06 310.657 1315.62 299.033C1313.24 293.875 1311.85 288.32 1311.51 282.652C1310.87 271.564 1320.16 265.016 1330.37 269.328C1334.99 271.376 1339.15 274.319 1342.63 277.987C1348.16 283.69 1352.9 290.295 1358.01 296.57C1360.76 292.178 1363.26 287.5 1366.42 283.325C1369.75 278.883 1373.45 274.732 1377.48 270.914C1381.74 266.921 1386.98 266.214 1392.31 268.883C1397.64 271.553 1399.16 276.435 1398.47 282.036C1397.24 291.664 1393.35 300.368 1388.37 308.547C1384.91 314.194 1380.81 319.487 1377.15 324.746Z" fill="#E1A7BC" stroke="white" stroke-width="0.15" stroke-miterlimit="10"/>
<path d="M95.0453 767.746C100.053 777.203 105.312 786.74 110.183 796.448C113.161 802.322 115.225 808.551 114.849 815.327C114.324 824.579 105.974 830.522 97.3268 827.168C93.1907 825.555 89.4145 823.14 86.2159 820.061C80.2041 814.209 74.8083 807.695 68.9106 801.113C68.292 802.294 67.6025 803.437 66.8459 804.535C62.1574 810.57 57.7198 816.788 52.575 822.457C50.1903 824.805 47.2926 826.566 44.1106 827.602C35.8287 830.693 28.7218 825.788 28.4252 816.924C28.2666 808.922 30.7616 801.092 35.5207 794.657C40.2434 787.926 45.7875 781.812 50.9095 775.606C45.2856 764.871 38.9658 753.658 33.5244 742.045C31.1468 736.884 29.754 731.324 29.4177 725.652C28.7789 714.564 38.0646 708.028 48.2744 712.329C52.888 714.381 57.0514 717.323 60.5261 720.987C66.0701 726.69 70.7929 733.295 75.9149 739.57C78.6641 735.178 81.1509 730.444 84.3108 726.326C87.6533 721.889 91.3583 717.737 95.3876 713.914C99.6426 709.921 104.89 709.214 110.217 711.895C115.545 714.575 117.062 719.447 116.377 725.048C115.145 734.664 111.255 743.38 106.282 751.548C102.814 757.206 98.7186 762.487 95.0453 767.746Z" fill="#E1A7BC" stroke="white" stroke-width="0.15" stroke-miterlimit="10"/>
<path d="M454.349 773.074C459.357 782.519 464.616 792.067 469.487 801.763C472.464 807.638 474.518 813.867 474.141 820.643C473.628 829.906 465.266 835.849 456.631 832.484C452.495 830.868 448.717 828.458 445.508 825.388C439.508 819.525 434.101 813.011 428.215 806.429C427.598 807.612 426.909 808.755 426.15 809.851C421.461 815.886 416.967 822.103 411.868 827.772C409.484 830.116 406.591 831.877 403.415 832.917C395.133 836.009 388.026 831.103 387.718 822.24C387.567 814.238 390.061 806.411 394.813 799.972C399.536 793.242 405.08 787.127 410.213 780.922C404.578 770.187 398.27 758.974 392.817 747.361C390.444 742.198 389.052 736.64 388.71 730.968C388.071 719.88 397.369 713.343 407.567 717.644C412.186 719.693 416.353 722.636 419.83 726.303C425.374 732.006 430.097 738.611 435.219 744.886C437.957 740.505 440.455 735.828 443.615 731.653C446.951 727.207 450.656 723.051 454.692 719.23C458.935 715.237 464.194 714.541 469.521 717.21C474.849 719.88 476.366 724.762 475.693 730.363C474.461 739.991 470.559 748.696 465.586 756.863C462.106 762.522 458.022 767.803 454.349 773.074Z" fill="#E1A7BC" stroke="white" stroke-width="0.15" stroke-miterlimit="10"/>
<path d="M314.09 845.146C319.098 854.603 324.357 864.14 329.228 873.836C332.205 879.722 334.258 885.951 333.882 892.727C333.369 901.979 325.007 907.922 316.371 904.569C312.233 902.953 308.453 900.538 305.249 897.462C299.249 891.61 293.841 885.084 287.955 878.513C287.336 879.695 286.647 880.837 285.89 881.936C281.202 887.97 276.707 894.187 271.608 899.857C269.225 902.201 266.332 903.962 263.155 905.002C254.873 908.093 247.766 903.188 247.458 894.325C247.309 886.322 249.807 878.494 254.565 872.057C259.276 865.327 264.832 859.212 269.954 852.994C264.33 842.271 258.01 831.058 252.569 819.434C250.19 814.277 248.797 808.721 248.462 803.052C247.812 791.964 257.109 785.428 267.307 789.728C271.926 791.777 276.094 794.72 279.571 798.387C285.115 804.148 289.837 810.696 294.959 816.97C297.697 812.578 300.195 807.901 303.355 803.725C306.695 799.286 310.4 795.135 314.432 791.314C318.676 787.321 323.934 786.614 329.262 789.284C334.589 791.953 336.106 796.847 335.433 802.448C334.201 812.065 330.3 820.78 325.326 828.948C321.847 834.595 317.763 839.865 314.09 845.146Z" fill="#E1A7BC" stroke="white" stroke-width="0.15" stroke-miterlimit="10"/>
<path d="M196.262 791.724C199.262 797.428 202.4 803.132 205.388 808.938C207.317 812.396 208.282 816.308 208.183 820.266C207.875 825.821 202.856 829.392 197.677 827.373C195.194 826.401 192.927 824.952 191.003 823.106C187.399 819.593 184.159 815.68 180.622 811.699C180.255 812.407 179.84 813.089 179.379 813.741C176.573 817.368 173.881 821.098 170.823 824.498C169.391 825.902 167.654 826.956 165.747 827.578C160.773 829.438 156.507 826.495 156.324 821.179C156.236 816.377 157.735 811.681 160.591 807.82C163.42 803.782 166.774 800.109 169.82 796.413C166.397 789.979 162.656 783.248 159.393 776.278C157.967 773.182 157.131 769.848 156.929 766.445C156.541 759.795 162.119 755.87 168.234 758.46C171.006 759.686 173.507 761.45 175.592 763.65C178.923 767.072 181.752 771.031 184.832 774.795C186.475 772.16 187.969 769.354 189.863 766.81C191.868 764.146 194.092 761.654 196.513 759.361C197.656 758.212 199.144 757.47 200.75 757.249C202.356 757.028 203.989 757.341 205.4 758.14C208.639 759.771 209.529 762.703 209.096 766.034C208.222 771.703 206.157 777.123 203.038 781.937C200.917 785.393 198.464 788.53 196.262 791.724Z" fill="#E1A7BC" stroke="white" stroke-width="0.09" stroke-miterlimit="10"/>
<path d="M588.967 751.58C591.968 757.284 595.105 762.988 598.094 768.795C600.016 772.255 600.981 776.165 600.888 780.122C600.58 785.677 595.561 789.248 590.371 787.229C587.894 786.259 585.63 784.813 583.709 782.974C580.104 779.46 576.864 775.547 573.328 771.566C572.953 772.271 572.538 772.952 572.084 773.608C569.278 777.224 566.574 780.955 563.517 784.354C562.093 785.765 560.358 786.824 558.452 787.445C553.479 789.305 549.212 786.305 549.03 781.035C548.937 776.233 550.438 771.536 553.296 767.677C556.125 763.638 559.479 759.977 562.525 756.269C559.103 749.824 555.361 743.104 552.087 736.134C550.669 733.036 549.833 729.703 549.623 726.301C549.246 719.639 554.813 715.715 560.939 718.316C563.711 719.542 566.212 721.306 568.297 723.506C571.617 726.929 574.457 730.898 577.526 734.652C579.18 732.028 580.674 729.222 582.568 726.666C584.569 724.002 586.79 721.511 589.207 719.217C590.352 718.067 591.843 717.325 593.451 717.107C595.059 716.888 596.695 717.205 598.105 718.008C601.333 719.639 602.234 722.571 601.801 725.902C600.925 731.57 598.861 736.989 595.744 741.804C593.622 745.249 591.169 748.42 588.967 751.58Z" fill="#E1A7BC" stroke="white" stroke-width="0.09" stroke-miterlimit="10"/>
<path d="M1877.85 794.144C1882.86 803.589 1888.12 813.137 1892.99 822.834C1895.97 828.709 1898.03 834.937 1897.64 841.713C1897.13 850.976 1888.78 856.92 1880.13 853.554C1876 851.941 1872.22 849.53 1869.02 846.459C1863.01 840.595 1857.61 834.082 1851.72 827.5C1851.1 828.682 1850.41 829.825 1849.65 830.922C1844.96 836.957 1840.53 843.174 1835.38 848.843C1832.99 851.188 1830.1 852.949 1826.92 853.988C1818.63 857.079 1811.53 852.174 1811.22 843.31C1811.07 835.308 1813.57 827.48 1818.33 821.043C1823.05 814.312 1828.59 808.198 1833.72 801.992C1828.09 791.258 1821.77 780.044 1816.33 768.431C1813.95 763.266 1812.57 757.703 1812.23 752.027C1811.6 740.939 1820.88 734.402 1831.08 738.703C1835.7 740.752 1839.87 743.695 1843.34 747.362C1848.89 753.122 1853.61 759.67 1858.73 765.945C1861.48 761.553 1863.97 756.887 1867.13 752.712C1870.47 748.269 1874.17 744.113 1878.2 740.289C1882.45 736.296 1887.71 735.6 1893.03 738.27C1898.36 740.939 1899.88 745.822 1899.19 751.423C1897.96 761.051 1894.07 769.755 1889.1 777.923C1885.62 783.592 1881.52 788.873 1877.85 794.144Z" fill="#E1A7BC" stroke="white" stroke-width="0.15" stroke-miterlimit="10"/>
<path d="M1737.59 866.217C1742.6 875.674 1747.86 885.211 1752.73 894.907C1755.71 900.794 1757.77 907.022 1757.4 913.798C1756.87 923.05 1748.52 928.993 1739.88 925.639C1735.74 924.026 1731.96 921.611 1728.77 918.532C1722.75 912.68 1717.36 906.155 1711.46 899.584C1710.84 900.766 1710.15 901.909 1709.4 903.007C1704.71 909.041 1700.27 915.258 1695.12 920.928C1692.74 923.276 1689.84 925.037 1686.66 926.073C1678.38 929.164 1671.27 924.259 1670.97 915.395C1670.82 907.393 1673.31 899.563 1678.07 893.128C1682.79 886.397 1688.34 880.283 1693.46 874.066C1687.83 863.343 1681.52 852.129 1676.07 840.505C1673.69 835.348 1672.3 829.793 1671.97 824.124C1671.33 813.035 1680.61 806.499 1690.82 810.799C1695.44 812.847 1699.6 815.79 1703.08 819.458C1708.62 825.218 1713.34 831.766 1718.46 838.041C1721.21 833.649 1723.7 828.972 1726.86 824.797C1730.2 820.358 1733.9 816.206 1737.94 812.385C1742.19 808.393 1747.44 807.685 1752.77 810.354C1758.09 813.024 1759.61 817.906 1758.93 823.519C1757.69 833.135 1753.8 841.839 1748.83 850.018C1745.36 855.665 1741.27 860.959 1737.59 866.217Z" fill="#E1A7BC" stroke="white" stroke-width="0.15" stroke-miterlimit="10"/>
<path d="M1619.77 812.795C1622.78 818.499 1625.9 824.203 1628.89 830.009C1630.82 833.466 1631.79 837.379 1631.69 841.337C1631.38 846.892 1626.37 850.463 1621.18 848.444C1618.7 847.47 1616.43 846.02 1614.51 844.177C1610.9 840.664 1607.66 836.751 1604.13 832.77C1603.76 833.475 1603.35 834.157 1602.9 834.812C1600.08 838.439 1597.39 842.17 1594.33 845.569C1592.9 846.973 1591.16 848.027 1589.25 848.649C1584.29 850.509 1580.02 847.565 1579.84 842.249C1579.74 837.448 1581.24 832.75 1584.1 828.891C1586.93 824.853 1590.29 821.18 1593.34 817.484C1589.91 811.05 1586.17 804.319 1582.9 797.349C1581.47 794.254 1580.64 790.919 1580.43 787.516C1580.05 780.865 1585.62 776.941 1591.75 779.531C1594.52 780.757 1597.02 782.521 1599.11 784.721C1602.43 788.144 1605.27 792.102 1608.34 795.867C1609.98 793.231 1611.47 790.425 1613.38 787.881C1615.38 785.215 1617.6 782.722 1620.02 780.432C1621.16 779.282 1622.65 778.54 1624.26 778.32C1625.86 778.099 1627.49 778.413 1628.9 779.212C1632.14 780.843 1633.03 783.774 1632.6 787.105C1631.74 792.776 1629.67 798.198 1626.54 803.008C1624.42 806.464 1621.97 809.635 1619.77 812.795Z" fill="#E1A7BC" stroke="white" stroke-width="0.09" stroke-miterlimit="10"/>
<path d="M818.215 778.458C823.212 787.903 828.482 797.451 833.342 807.148C836.319 813.023 838.384 819.251 838.007 826.027C837.482 835.29 829.132 841.234 820.485 837.868C816.352 836.255 812.576 833.844 809.374 830.773C803.363 824.909 797.967 818.396 792.069 811.814C791.453 812.996 790.763 814.139 790.004 815.236C785.316 821.282 780.878 827.487 775.733 833.168C773.348 835.512 770.45 837.27 767.269 838.302C758.999 841.405 751.88 836.488 751.584 827.624C751.427 819.622 753.922 811.793 758.679 805.357C763.402 798.626 768.946 792.512 774.068 786.306C768.444 775.571 762.124 764.358 756.683 752.745C754.305 747.588 752.912 742.033 752.576 736.364C751.937 725.264 761.223 718.728 771.433 723.029C776.046 725.081 780.21 728.023 783.684 731.687C789.229 737.448 793.951 743.996 799.073 750.27C801.822 745.889 804.321 741.212 807.469 737.037C810.809 732.594 814.514 728.439 818.546 724.614C822.801 720.622 828.048 719.926 833.376 722.595C838.703 725.265 840.22 730.147 839.536 735.748C838.304 745.376 834.414 754.08 829.44 762.248C825.972 767.906 821.877 773.199 818.215 778.458Z" fill="#E1A7BC" stroke="white" stroke-width="0.15" stroke-miterlimit="10"/>
<path d="M668.844 851.194C671.856 856.898 674.982 862.601 677.97 868.408C679.9 871.869 680.865 875.785 680.765 879.747C680.457 885.302 675.449 888.873 670.259 886.854C667.778 885.88 665.511 884.431 663.586 882.588C659.981 879.074 656.741 875.161 653.205 871.18C652.837 871.886 652.426 872.568 651.973 873.222C649.155 876.838 646.463 880.568 643.406 883.979C641.973 885.383 640.236 886.437 638.329 887.059C633.367 888.919 629.101 885.975 628.918 880.659C628.827 875.856 630.322 871.157 633.173 867.29C636.002 863.252 639.367 859.59 642.413 855.882C638.991 849.448 635.249 842.718 631.975 835.748C630.549 832.652 629.713 829.317 629.511 825.915C629.123 819.264 634.702 815.34 640.827 817.929C643.597 819.159 646.098 820.923 648.185 823.12C651.505 826.542 654.345 830.512 657.414 834.276C659.057 831.641 660.551 828.835 662.456 826.291C664.454 823.621 666.675 821.125 669.095 818.831C670.24 817.685 671.73 816.946 673.335 816.727C674.94 816.509 676.572 816.823 677.982 817.621C681.222 819.253 682.111 822.184 681.678 825.515C680.812 831.186 678.747 836.607 675.621 841.417C673.499 844.862 671.046 848.045 668.844 851.194Z" fill="#E1A7BC" stroke="white" stroke-width="0.09" stroke-miterlimit="10"/>
<path d="M1177.51 783.773C1182.52 793.23 1187.77 802.767 1192.65 812.463C1195.62 818.349 1197.68 824.566 1197.3 831.342C1196.79 840.605 1188.42 846.549 1179.79 843.195C1175.65 841.576 1171.87 839.161 1168.67 836.088C1162.67 830.225 1157.26 823.711 1151.37 817.129C1150.76 818.311 1150.07 819.454 1149.31 820.551C1144.62 826.586 1140.18 832.803 1135.03 838.472C1132.64 840.813 1129.75 842.574 1126.57 843.617C1118.29 846.709 1111.18 841.792 1110.88 832.94C1110.73 824.934 1113.23 817.102 1117.98 810.661C1122.69 803.942 1128.25 797.828 1133.37 791.61C1127.75 780.876 1121.43 769.673 1115.98 758.049C1113.6 752.891 1112.21 747.336 1111.87 741.668C1111.23 730.568 1120.53 724.032 1130.73 728.344C1135.35 730.385 1139.51 733.324 1142.99 736.991C1148.53 742.763 1153.26 749.299 1158.38 755.574C1161.11 751.193 1163.61 746.516 1166.77 742.341C1170.11 737.895 1173.81 733.74 1177.85 729.918C1182.09 725.937 1187.35 725.23 1192.68 727.899C1198.01 730.568 1199.52 735.451 1198.85 741.052C1197.62 750.68 1193.72 759.384 1188.74 767.552C1185.26 773.221 1181.18 778.514 1177.51 783.773Z" fill="#E1A7BC" stroke="white" stroke-width="0.15" stroke-miterlimit="10"/>
<path d="M1037.25 855.836C1042.26 865.281 1047.52 874.829 1052.39 884.526C1055.36 890.401 1057.42 896.629 1057.04 903.405C1056.53 912.668 1048.18 918.612 1039.53 915.246C1035.39 913.631 1031.62 911.22 1028.41 908.151C1022.41 902.287 1017 895.774 1011.11 889.192C1010.5 890.374 1009.81 891.517 1009.05 892.614C1004.36 898.649 999.866 904.865 994.778 910.546C992.388 912.884 989.491 914.641 986.313 915.68C978.032 918.783 970.925 913.866 970.617 905.002C970.469 897 972.967 889.172 977.724 882.735C982.435 876.004 987.99 869.89 993.112 863.684C987.488 852.949 981.169 841.736 975.727 830.123C973.35 824.962 971.957 819.403 971.621 813.73C970.97 802.642 980.267 796.106 990.466 800.407C995.085 802.456 999.252 805.398 1002.73 809.065C1008.27 814.826 1013 821.374 1018.12 827.648C1020.86 823.267 1023.35 818.59 1026.51 814.415C1029.85 809.972 1033.56 805.817 1037.59 801.992C1041.83 797.999 1047.09 797.303 1052.42 799.973C1057.75 802.642 1059.26 807.525 1058.59 813.126C1057.36 822.754 1053.46 831.458 1048.48 839.626C1045.01 845.307 1040.92 850.588 1037.25 855.836Z" fill="#E1A7BC" stroke="white" stroke-width="0.15" stroke-miterlimit="10"/>
<path d="M919.421 802.427C922.421 808.13 925.558 813.834 928.547 819.64C930.475 823.098 931.44 827.01 931.342 830.968C931.034 836.524 926.014 840.094 920.835 838.075C918.353 837.108 916.086 835.662 914.162 833.82C910.557 830.295 907.317 826.394 903.781 822.413C903.411 823.119 902.996 823.802 902.537 824.455C899.731 828.071 897.039 831.801 893.982 835.2C892.55 836.608 890.813 837.666 888.905 838.292C883.932 840.14 879.665 837.151 879.483 831.881C879.396 827.08 880.895 822.384 883.749 818.523C886.578 814.484 889.932 810.811 892.978 807.115C889.556 800.67 885.814 793.95 882.551 786.969C881.127 783.877 880.291 780.546 880.087 777.147C879.7 770.485 885.278 766.561 891.392 769.162C894.164 770.388 896.665 772.152 898.75 774.352C902.081 777.774 904.91 781.733 907.99 785.497C909.633 782.874 911.127 780.067 913.021 777.512C915.026 774.848 917.251 772.356 919.672 770.063C920.814 768.912 922.303 768.17 923.91 767.951C925.516 767.732 927.15 768.05 928.558 768.854C931.798 770.474 932.688 773.417 932.254 776.748C931.38 782.413 929.315 787.829 926.197 792.639C924.075 796.095 921.622 799.267 919.421 802.427Z" fill="#E1A7BC" stroke="white" stroke-width="0.09" stroke-miterlimit="10"/>
<path d="M1518.56 788.814C1523.57 798.271 1528.82 807.808 1533.7 817.516C1536.67 823.391 1538.73 829.619 1538.35 836.395C1537.84 845.647 1529.48 851.59 1520.84 848.236C1516.7 846.623 1512.92 844.208 1509.72 841.129C1503.71 835.277 1498.31 828.764 1492.41 822.181C1491.8 823.365 1491.11 824.508 1490.35 825.604C1485.67 831.638 1481.22 837.855 1476.08 843.525C1473.69 845.869 1470.8 847.63 1467.62 848.67C1459.34 851.761 1452.23 846.856 1451.93 837.992C1451.77 829.99 1454.27 822.162 1459.02 815.725C1463.74 808.994 1469.35 802.88 1474.41 796.663C1468.79 785.939 1462.48 774.726 1457.03 763.113C1454.65 757.951 1453.26 752.392 1452.92 746.721C1452.28 735.632 1461.58 729.096 1471.78 733.396C1476.39 735.448 1480.56 738.39 1484.04 742.055C1489.58 747.815 1494.31 754.363 1499.43 760.637C1502.17 756.246 1504.66 751.569 1507.82 747.393C1511.16 742.951 1514.86 738.8 1518.9 734.982C1523.14 730.99 1528.4 730.282 1533.73 732.963C1539.06 735.644 1540.57 740.515 1539.89 746.116C1538.67 755.732 1534.77 764.448 1529.79 772.615C1526.32 778.262 1522.22 783.555 1518.56 788.814Z" fill="#E1A7BC" stroke="white" stroke-width="0.15" stroke-miterlimit="10"/>
<path d="M1312.16 813.626C1315.16 819.33 1318.29 825.033 1321.29 830.84C1323.17 834.304 1324.1 838.204 1323.99 842.145C1323.68 847.7 1318.66 851.271 1313.47 849.252C1310.99 848.282 1308.73 846.836 1306.81 844.997C1303.2 841.483 1299.96 837.57 1296.43 833.589C1296.05 834.293 1295.64 834.975 1295.18 835.631C1292.38 839.247 1289.68 842.978 1286.62 846.377C1285.19 847.791 1283.45 848.849 1281.54 849.468C1276.58 851.328 1272.31 848.328 1272.13 843.057C1272.04 838.257 1273.53 833.562 1276.39 829.699C1279.23 825.661 1282.58 821.988 1285.63 818.291C1282.2 811.846 1278.46 805.127 1275.19 798.157C1273.77 795.059 1272.93 791.725 1272.72 788.324C1272.35 781.662 1277.91 777.738 1284.04 780.339C1286.81 781.565 1289.31 783.329 1291.4 785.529C1294.72 788.952 1297.56 792.921 1300.63 796.674C1302.27 794.051 1303.77 791.244 1305.67 788.689C1307.67 786.023 1309.89 783.53 1312.31 781.24C1313.45 780.09 1314.94 779.349 1316.55 779.131C1318.15 778.912 1319.79 779.228 1321.19 780.03C1324.43 781.662 1325.32 784.594 1324.9 787.925C1324.03 793.592 1321.96 799.009 1318.83 803.815C1316.81 807.317 1314.35 810.489 1312.16 813.626Z" fill="#E1A7BC" stroke="white" stroke-width="0.09" stroke-miterlimit="10"/>
<path d="M95.0453 433.505C100.053 442.962 105.312 452.499 110.183 462.206C113.161 468.081 115.225 474.31 114.849 481.086C114.324 490.338 105.974 496.281 97.3268 492.927C93.1907 491.314 89.4145 488.899 86.2159 485.82C80.2041 479.968 74.8083 473.454 68.9106 466.872C68.292 468.053 67.6025 469.196 66.8459 470.294C62.1574 476.329 57.7198 482.546 52.575 488.216C50.1903 490.563 47.2926 492.324 44.1106 493.36C35.8287 496.452 28.7218 491.547 28.4252 482.683C28.2666 474.681 30.7616 466.851 35.5207 460.416C40.2434 453.685 45.7875 447.57 50.9095 441.365C45.2856 430.63 38.9658 419.417 33.5244 407.804C31.1468 402.643 29.754 397.083 29.4177 391.411C28.7789 380.323 38.0646 373.787 48.2744 378.087C52.888 380.14 57.0514 383.082 60.5261 386.745C66.0701 392.449 70.7929 399.054 75.9149 405.328C78.6641 400.937 81.1509 396.203 84.3108 392.084C87.6533 387.648 91.3583 383.496 95.3876 379.673C99.6426 375.68 104.89 374.973 110.217 377.653C115.545 380.334 117.062 385.206 116.377 390.807C115.145 400.423 111.255 409.139 106.282 417.306C102.814 422.965 98.7186 428.246 95.0453 433.505Z" fill="#E1A7BC" stroke="white" stroke-width="0.15" stroke-miterlimit="10"/>
<path d="M178.799 633.262C183.807 642.719 189.066 652.256 193.937 661.952C196.914 667.839 198.967 674.056 198.591 680.843C198.078 690.095 189.716 696.038 181.08 692.684C176.944 691.065 173.166 688.65 169.958 685.577C163.958 679.714 158.55 673.2 152.664 666.618C152.048 667.801 151.358 668.944 150.599 670.04C145.911 676.075 141.416 682.292 136.317 687.961C133.932 690.302 131.039 692.063 127.864 693.106C119.582 696.198 112.475 691.281 112.167 682.429C112.018 674.423 114.516 666.591 119.274 660.15C123.986 653.431 129.541 647.316 134.663 641.099C129.039 630.364 122.719 619.162 117.278 607.538C114.9 602.381 113.504 596.826 113.16 591.157C112.521 580.069 121.818 573.521 132.016 577.833C136.637 579.878 140.806 582.821 144.28 586.491C149.824 592.252 154.546 598.8 159.668 605.063C162.406 600.682 164.904 596.005 168.064 591.83C171.401 587.388 175.106 583.237 179.141 579.419C183.385 575.426 188.644 574.719 193.971 577.388C199.298 580.058 200.815 584.94 200.142 590.541C198.91 600.169 195.009 608.873 190.035 617.041C186.556 622.71 182.472 628.004 178.799 633.262Z" fill="#E1A7BC" stroke="white" stroke-width="0.15" stroke-miterlimit="10"/>
<path d="M61.95 588.181C66.9579 597.638 72.2168 607.174 77.0878 616.871C80.0652 622.757 82.1299 628.974 81.7535 635.75C81.2287 645.013 72.8784 650.957 64.2315 647.603C60.0975 645.986 56.3221 643.571 53.1205 640.496C47.1088 634.632 41.713 628.119 35.8153 621.536C35.1991 622.719 34.5095 623.862 33.7505 624.959C29.062 630.993 24.6245 637.21 19.4797 642.88C17.0931 645.225 14.196 646.986 11.0153 648.025C2.73337 651.116 -4.37353 646.2 -4.67013 637.348C-4.82868 629.342 -2.33387 621.508 2.42537 615.068C7.1481 608.349 12.6922 602.235 17.8142 596.018C12.1902 585.284 5.87045 574.081 0.429047 562.457C-1.95026 557.3 -3.34317 551.744 -3.67768 546.076C-4.3165 534.987 4.96925 528.439 15.179 532.751C19.7921 534.799 23.9556 537.738 27.4307 541.398C32.9748 547.171 37.6975 553.719 42.8195 559.981C45.5687 555.601 48.0556 550.924 51.2155 546.748C54.5548 542.306 58.2599 538.151 62.2922 534.326C66.5472 530.345 71.7947 529.637 77.122 532.307C82.4493 534.976 83.9666 539.858 83.2821 545.46C82.0501 555.087 78.1601 563.791 73.1864 571.959C69.7185 577.629 65.6232 582.922 61.95 588.181Z" fill="#E1A7BC" stroke="white" stroke-width="0.15" stroke-miterlimit="10"/>
<path d="M454.349 438.832C459.357 448.278 464.616 457.826 469.487 467.522C472.464 473.397 474.518 479.625 474.141 486.401C473.628 495.664 465.266 501.608 456.631 498.242C452.495 496.627 448.717 494.216 445.508 491.147C439.508 485.284 434.101 478.77 428.215 472.188C427.598 473.37 426.909 474.513 426.15 475.61C421.461 481.645 416.967 487.862 411.868 493.531C409.484 495.875 406.591 497.636 403.415 498.676C395.133 501.768 388.026 496.862 387.718 487.998C387.567 479.997 390.061 472.17 394.813 465.731C399.536 459 405.08 452.886 410.213 446.681C404.578 435.946 398.27 424.733 392.817 413.12C390.444 407.957 389.052 402.398 388.71 396.727C388.071 385.639 397.369 379.102 407.567 383.403C412.186 385.452 416.353 388.395 419.83 392.061C425.374 397.765 430.097 404.37 435.219 410.644C437.957 406.264 440.455 401.587 443.615 397.411C446.951 392.966 450.656 388.81 454.692 384.988C458.935 380.996 464.194 380.3 469.521 382.969C474.849 385.639 476.366 390.521 475.693 396.122C474.461 405.75 470.559 414.454 465.586 422.622C462.106 428.28 458.022 433.562 454.349 438.832Z" fill="#E1A7BC" stroke="white" stroke-width="0.15" stroke-miterlimit="10"/>
<path d="M314.09 510.905C319.098 520.362 324.357 529.898 329.228 539.595C332.205 545.481 334.258 551.71 333.882 558.486C333.369 567.737 325.007 573.681 316.371 570.327C312.233 568.712 308.453 566.297 305.249 563.22C299.249 557.368 293.841 550.843 287.955 544.272C287.336 545.453 286.647 546.596 285.89 547.694C281.202 553.729 276.707 559.946 271.608 565.616C269.225 567.959 266.332 569.721 263.155 570.761C254.873 573.852 247.766 568.947 247.458 560.083C247.309 552.081 249.807 544.252 254.565 537.816C259.276 531.085 264.832 524.97 269.954 518.753C264.33 508.03 258.01 496.817 252.569 485.192C250.19 480.036 248.797 474.48 248.462 468.811C247.812 457.723 257.109 451.186 267.307 455.487C271.926 457.536 276.094 460.479 279.571 464.146C285.115 469.907 289.837 476.455 294.959 482.729C297.697 478.337 300.195 473.659 303.355 469.484C306.695 465.045 310.4 460.894 314.432 457.073C318.676 453.08 323.934 452.373 329.262 455.043C334.589 457.712 336.106 462.606 335.433 468.207C334.201 477.823 330.3 486.539 325.326 494.707C321.847 500.353 317.763 505.623 314.09 510.905Z" fill="#E1A7BC" stroke="white" stroke-width="0.15" stroke-miterlimit="10"/>
<path d="M196.262 457.483C199.262 463.187 202.4 468.891 205.388 474.697C207.317 478.155 208.282 482.066 208.183 486.024C207.875 491.58 202.856 495.15 197.677 493.131C195.194 492.16 192.927 490.711 191.003 488.865C187.399 485.352 184.159 481.439 180.622 477.458C180.255 478.166 179.84 478.848 179.379 479.5C176.573 483.127 173.881 486.857 170.823 490.257C169.391 491.66 167.654 492.715 165.747 493.337C160.773 495.196 156.507 492.253 156.324 486.937C156.236 482.136 157.735 477.44 160.591 473.579C163.42 469.541 166.774 465.868 169.82 462.172C166.397 455.738 162.656 449.007 159.393 442.037C157.967 438.941 157.131 435.607 156.929 432.204C156.541 425.553 162.119 421.629 168.234 424.219C171.006 425.445 173.507 427.209 175.592 429.409C178.923 432.831 181.752 436.79 184.832 440.554C186.475 437.919 187.969 435.113 189.863 432.569C191.868 429.905 194.092 427.413 196.513 425.12C197.656 423.97 199.144 423.228 200.75 423.008C202.356 422.787 203.989 423.1 205.4 423.899C208.639 425.53 209.529 428.462 209.096 431.793C208.222 437.462 206.157 442.882 203.038 447.696C200.917 451.152 198.464 454.289 196.262 457.483Z" fill="#E1A7BC" stroke="white" stroke-width="0.09" stroke-miterlimit="10"/>
<path d="M538.102 638.578C543.11 648.035 548.369 657.572 553.228 667.269C556.217 673.155 558.27 679.383 557.894 686.159C557.381 695.411 549.019 701.354 540.372 698.001C536.238 696.384 532.463 693.969 529.261 690.894C523.249 685.042 517.853 678.516 511.956 671.945C511.337 673.127 510.647 674.27 509.891 675.368C505.214 681.402 500.765 687.619 495.62 693.289C493.237 695.633 490.344 697.394 487.167 698.434C478.885 701.525 471.767 696.62 471.47 687.757C471.312 679.754 473.807 671.925 478.566 665.489C483.289 658.759 488.833 652.644 493.955 646.427C488.331 635.704 482.022 624.49 476.569 612.866C474.195 607.708 472.803 602.153 472.463 596.485C471.824 585.396 481.11 578.849 491.319 583.161C495.939 585.209 500.107 588.151 503.583 591.819C509.115 597.58 513.849 604.128 518.96 610.402C521.709 606.01 524.207 601.333 527.367 597.158C530.699 592.717 534.401 588.564 538.433 584.746C542.688 580.754 547.935 580.047 553.262 582.716C558.59 585.385 560.107 590.268 559.423 595.88C558.191 605.497 554.3 614.201 549.327 622.38C545.859 628.027 541.764 633.319 538.102 638.578Z" fill="#E1A7BC" stroke="white" stroke-width="0.15" stroke-miterlimit="10"/>
<path d="M412.15 594.156C415.151 599.86 418.288 605.564 421.276 611.371C423.199 614.831 424.164 618.741 424.071 622.698C423.763 628.254 418.744 631.824 413.554 629.805C411.077 628.835 408.813 627.389 406.892 625.55C403.287 622.036 400.047 618.124 396.511 614.142C396.136 614.847 395.721 615.529 395.267 616.184C392.461 619.801 389.757 623.531 386.7 626.93C385.276 628.341 383.541 629.4 381.635 630.022C376.662 631.881 372.395 628.881 372.213 623.611C372.12 618.809 373.621 614.112 376.479 610.253C379.308 606.215 382.662 602.553 385.708 598.845C382.285 592.4 378.544 585.681 375.27 578.711C373.852 575.612 373.016 572.279 372.806 568.878C372.429 562.216 377.996 558.291 384.122 560.892C386.894 562.118 389.395 563.882 391.48 566.083C394.8 569.505 397.64 573.475 400.709 577.228C402.363 574.604 403.857 571.798 405.751 569.242C407.752 566.578 409.973 564.087 412.39 561.794C413.535 560.643 415.026 559.902 416.634 559.683C418.242 559.465 419.878 559.781 421.288 560.584C424.516 562.216 425.417 565.147 424.984 568.478C424.108 574.147 422.044 579.566 418.927 584.38C416.805 587.825 414.352 590.996 412.15 594.156Z" fill="#E1A7BC" stroke="white" stroke-width="0.09" stroke-miterlimit="10"/>
<path d="M312.94 666.048C317.948 675.504 323.207 685.041 328.078 694.737C331.056 700.624 333.109 706.852 332.733 713.628C332.219 722.88 323.857 728.824 315.222 725.47C311.084 723.855 307.304 721.44 304.1 718.363C298.088 712.511 292.692 705.985 286.794 699.415C286.18 700.598 285.49 701.742 284.73 702.837C280.052 708.872 275.603 715.089 270.459 720.758C268.075 723.102 265.182 724.863 262.006 725.903C253.724 728.995 246.617 724.09 246.309 715.226C246.155 707.224 248.65 699.396 253.404 692.958C258.127 686.228 263.728 680.113 268.793 673.896C263.169 663.173 256.861 651.959 251.408 640.335C249.034 635.177 247.641 629.622 247.301 623.954C246.663 612.866 255.96 606.329 266.158 610.63C270.777 612.679 274.945 615.622 278.421 619.288C283.965 625.049 288.688 631.597 293.81 637.871C296.548 633.479 299.046 628.802 302.206 624.627C305.539 620.182 309.244 616.03 313.283 612.215C317.526 608.223 322.785 607.516 328.112 610.185C333.44 612.854 334.957 617.748 334.284 623.349C333.052 632.966 329.151 641.67 324.177 649.849C320.698 655.496 316.602 660.766 312.94 666.048Z" fill="#E1A7BC" stroke="white" stroke-width="0.15" stroke-miterlimit="10"/>
<path d="M1877.85 459.903C1882.86 469.348 1888.12 478.896 1892.99 488.593C1895.97 494.468 1898.03 500.697 1897.64 507.473C1897.13 516.736 1888.78 522.679 1880.13 519.314C1876 517.701 1872.22 515.289 1869.02 512.218C1863.01 506.354 1857.61 499.841 1851.72 493.259C1851.1 494.442 1850.41 495.585 1849.65 496.681C1844.96 502.716 1840.53 508.933 1835.38 514.602C1832.99 516.948 1830.1 518.708 1826.92 519.747C1818.63 522.838 1811.53 517.933 1811.22 509.07C1811.07 501.067 1813.57 493.24 1818.33 486.802C1823.05 480.072 1828.59 473.957 1833.72 467.751C1828.09 457.017 1821.77 445.803 1816.33 434.19C1813.95 429.025 1812.57 423.462 1812.23 417.786C1811.6 406.698 1820.88 400.162 1831.08 404.462C1835.7 406.511 1839.87 409.454 1843.34 413.121C1848.89 418.882 1853.61 425.43 1858.73 431.704C1861.48 427.312 1863.97 422.646 1867.13 418.471C1870.47 414.028 1874.17 409.873 1878.2 406.048C1882.45 402.055 1887.71 401.359 1893.03 404.029C1898.36 406.698 1899.88 411.581 1899.19 417.182C1897.96 426.81 1894.07 435.514 1889.1 443.682C1885.62 449.351 1881.52 454.633 1877.85 459.903Z" fill="#E1A7BC" stroke="white" stroke-width="0.15" stroke-miterlimit="10"/>
<path d="M1737.59 531.976C1742.6 541.433 1747.86 550.969 1752.73 560.666C1755.71 566.552 1757.77 572.78 1757.4 579.557C1756.87 588.808 1748.52 594.751 1739.88 591.397C1735.74 589.785 1731.96 587.369 1728.77 584.291C1722.75 578.438 1717.36 571.914 1711.46 565.343C1710.84 566.524 1710.15 567.667 1709.4 568.765C1704.71 574.8 1700.27 581.017 1695.12 586.686C1692.74 589.034 1689.84 590.795 1686.66 591.831C1678.38 594.922 1671.27 590.017 1670.97 581.153C1670.82 573.151 1673.31 565.321 1678.07 558.886C1682.79 552.155 1688.34 546.041 1693.46 539.824C1687.83 529.101 1681.52 517.887 1676.07 506.263C1673.69 501.107 1672.3 495.551 1671.97 489.882C1671.33 478.794 1680.61 472.257 1690.82 476.558C1695.44 478.606 1699.6 481.548 1703.08 485.216C1708.62 490.977 1713.34 497.525 1718.46 503.799C1721.21 499.407 1723.7 494.73 1726.86 490.555C1730.2 486.116 1733.9 481.964 1737.94 478.144C1742.19 474.151 1747.44 473.443 1752.77 476.113C1758.09 478.782 1759.61 483.665 1758.93 489.277C1757.69 498.894 1753.8 507.598 1748.83 515.777C1745.36 521.423 1741.27 526.717 1737.59 531.976Z" fill="#E1A7BC" stroke="white" stroke-width="0.15" stroke-miterlimit="10"/>
<path d="M1961.6 659.627C1966.61 669.083 1971.87 678.62 1976.74 688.316C1979.72 694.203 1981.77 700.431 1981.4 707.207C1980.88 716.459 1972.52 722.402 1963.88 719.048C1959.75 717.429 1955.97 715.014 1952.76 711.941C1946.76 706.089 1941.36 699.564 1935.47 692.994C1934.85 694.175 1934.16 695.318 1933.4 696.416C1928.72 702.451 1924.28 708.668 1919.12 714.337C1916.74 716.681 1913.85 718.442 1910.67 719.482C1902.39 722.574 1895.28 717.668 1894.97 708.804C1894.82 700.803 1897.31 692.975 1902.07 686.537C1906.79 679.806 1912.33 673.692 1917.47 667.475C1911.83 656.752 1905.52 645.538 1900.07 633.914C1897.7 628.756 1896.3 623.201 1895.96 617.533C1895.33 606.445 1904.62 599.897 1914.82 604.209C1919.44 606.254 1923.61 609.197 1927.08 612.867C1932.63 618.628 1937.35 625.176 1942.47 631.45C1945.21 627.058 1947.71 622.381 1950.87 618.206C1954.21 613.764 1957.91 609.612 1961.95 605.794C1966.19 601.802 1971.45 601.094 1976.78 603.764C1982.1 606.433 1983.62 611.316 1982.95 616.917C1981.72 626.545 1977.81 635.248 1972.84 643.428C1969.36 649.097 1965.28 654.391 1961.6 659.627Z" fill="#E1A7BC" stroke="white" stroke-width="0.15" stroke-miterlimit="10"/>
<path d="M1835.65 615.226C1838.65 620.93 1841.79 626.634 1844.78 632.44C1846.71 635.898 1847.67 639.81 1847.57 643.768C1847.26 649.324 1842.25 652.894 1837.07 650.875C1834.58 649.908 1832.32 648.462 1830.39 646.62C1826.79 643.107 1823.55 639.194 1820.01 635.212C1819.64 635.919 1819.23 636.601 1818.77 637.254C1815.96 640.871 1813.27 644.601 1810.21 648C1808.78 649.411 1807.05 650.47 1805.14 651.092C1800.16 652.951 1795.9 649.951 1795.71 644.681C1795.63 639.88 1797.13 635.184 1799.98 631.322C1802.81 627.284 1806.16 623.611 1809.21 619.915C1805.79 613.47 1802.05 606.751 1798.78 599.781C1797.36 596.684 1796.52 593.349 1796.32 589.947C1795.93 583.285 1801.51 579.361 1807.62 581.962C1810.4 583.188 1812.9 584.952 1814.98 587.153C1818.31 590.575 1821.14 594.545 1824.22 598.298C1825.86 595.674 1827.36 592.868 1829.25 590.313C1831.26 587.648 1833.48 585.156 1835.9 582.863C1837.04 581.712 1838.53 580.969 1840.14 580.751C1841.75 580.532 1843.38 580.85 1844.79 581.654C1848.03 583.285 1848.92 586.217 1848.49 589.548C1847.62 595.214 1845.55 600.631 1842.43 605.439C1840.31 608.895 1837.85 612.067 1835.65 615.226Z" fill="#E1A7BC" stroke="white" stroke-width="0.09" stroke-miterlimit="10"/>
<path d="M1736.44 687.119C1741.45 696.576 1746.71 706.112 1751.58 715.809C1754.56 721.695 1756.61 727.924 1756.23 734.7C1755.72 743.951 1747.37 749.894 1738.72 746.541C1734.59 744.921 1730.81 742.507 1727.6 739.434C1721.6 733.582 1716.19 727.057 1710.31 720.486C1709.69 721.667 1709 722.81 1708.24 723.908C1703.55 729.943 1699.12 736.16 1693.97 741.829C1691.59 744.175 1688.69 745.935 1685.51 746.974C1677.23 750.065 1670.12 745.16 1669.81 736.297C1669.66 728.294 1672.16 720.466 1676.92 714.029C1681.63 707.299 1687.18 701.184 1692.31 694.967C1686.68 684.244 1680.36 673.03 1674.92 661.406C1672.54 656.25 1671.15 650.694 1670.81 645.025C1670.16 633.937 1679.46 627.4 1689.66 631.701C1694.28 633.746 1698.45 636.689 1701.92 640.359C1707.47 646.12 1712.19 652.668 1717.31 658.942C1720.05 654.55 1722.55 649.873 1725.71 645.698C1729.05 641.259 1732.75 637.107 1736.78 633.287C1741.03 629.294 1746.29 628.586 1751.61 631.256C1756.94 633.925 1758.46 638.808 1757.79 644.42C1756.55 654.037 1752.65 662.741 1747.68 670.92C1744.2 676.567 1740.12 681.86 1736.44 687.119Z" fill="#E1A7BC" stroke="white" stroke-width="0.15" stroke-miterlimit="10"/>
<path d="M1619.77 478.554C1622.78 484.258 1625.9 489.961 1628.89 495.768C1630.82 499.225 1631.79 503.138 1631.69 507.096C1631.38 512.651 1626.37 516.222 1621.18 514.203C1618.7 513.229 1616.43 511.779 1614.51 509.936C1610.9 506.422 1607.66 502.51 1604.13 498.528C1603.76 499.234 1603.35 499.916 1602.9 500.57C1600.08 504.198 1597.39 507.928 1594.33 511.328C1592.9 512.732 1591.16 513.786 1589.25 514.408C1584.29 516.268 1580.02 513.324 1579.84 508.008C1579.74 503.207 1581.24 498.508 1584.1 494.65C1586.93 490.612 1590.29 486.938 1593.34 483.242C1589.91 476.809 1586.17 470.078 1582.9 463.108C1581.47 460.012 1580.64 456.677 1580.43 453.275C1580.05 446.624 1585.62 442.7 1591.75 445.289C1594.52 446.515 1597.02 448.28 1599.11 450.48C1602.43 453.902 1605.27 457.861 1608.34 461.625C1609.98 458.99 1611.47 456.184 1613.38 453.64C1615.38 450.973 1617.6 448.481 1620.02 446.191C1621.16 445.041 1622.65 444.299 1624.26 444.079C1625.86 443.858 1627.49 444.171 1628.9 444.97C1632.14 446.602 1633.03 449.533 1632.6 452.864C1631.74 458.535 1629.67 463.956 1626.54 468.766C1624.42 472.223 1621.97 475.394 1619.77 478.554Z" fill="#E1A7BC" stroke="white" stroke-width="0.09" stroke-miterlimit="10"/>
<path d="M818.215 444.217C823.212 453.662 828.482 463.21 833.342 472.907C836.319 478.782 838.384 485.011 838.007 491.787C837.482 501.05 829.132 506.993 820.485 503.628C816.352 502.015 812.576 499.603 809.374 496.532C803.363 490.668 797.967 484.155 792.069 477.573C791.453 478.756 790.763 479.899 790.004 480.995C785.316 487.041 780.878 493.247 775.733 498.928C773.348 501.272 770.45 503.029 767.269 504.061C758.999 507.164 751.88 502.247 751.584 493.384C751.427 485.382 753.922 477.552 758.679 471.116C763.402 464.386 768.946 458.271 774.068 452.065C768.444 441.331 762.124 430.117 756.683 418.504C754.305 413.348 752.912 407.792 752.576 402.123C751.937 391.024 761.223 384.487 771.433 388.788C776.046 390.84 780.21 393.782 783.684 397.446C789.229 403.207 793.951 409.755 799.073 416.029C801.822 411.648 804.321 406.971 807.469 402.796C810.809 398.353 814.514 394.198 818.546 390.374C822.801 386.381 828.048 385.685 833.376 388.355C838.703 391.024 840.22 395.906 839.536 401.507C838.304 411.135 834.414 419.839 829.44 428.007C825.972 433.665 821.877 438.958 818.215 444.217Z" fill="#E1A7BC" stroke="white" stroke-width="0.15" stroke-miterlimit="10"/>
<path d="M668.844 516.952C671.856 522.656 674.982 528.36 677.97 534.166C679.9 537.628 680.865 541.543 680.765 545.505C680.457 551.061 675.449 554.631 670.259 552.612C667.778 551.638 665.511 550.189 663.586 548.346C659.981 544.832 656.741 540.92 653.205 536.938C652.837 537.644 652.426 538.326 651.973 538.98C649.155 542.596 646.463 546.326 643.406 549.737C641.973 551.141 640.236 552.195 638.329 552.817C633.367 554.677 629.101 551.733 628.918 546.417C628.827 541.614 630.322 536.915 633.173 533.048C636.002 529.01 639.367 525.348 642.413 521.641C638.991 515.207 635.249 508.476 631.975 501.506C630.549 498.411 629.713 495.075 629.511 491.673C629.123 485.022 634.702 481.098 640.827 483.688C643.597 484.918 646.098 486.681 648.185 488.878C651.505 492.3 654.345 496.27 657.414 500.035C659.057 497.4 660.551 494.593 662.456 492.049C664.454 489.379 666.675 486.883 669.095 484.589C670.24 483.443 671.73 482.704 673.335 482.486C674.94 482.267 676.572 482.581 677.982 483.38C681.222 485.011 682.111 487.943 681.678 491.274C680.812 496.945 678.747 502.366 675.621 507.176C673.499 510.621 671.046 513.804 668.844 516.952Z" fill="#E1A7BC" stroke="white" stroke-width="0.09" stroke-miterlimit="10"/>
<path d="M901.913 643.963C906.921 653.42 912.18 662.957 917.051 672.653C920.028 678.54 922.081 684.768 921.705 691.544C921.192 700.796 912.83 706.739 904.194 703.385C900.058 701.766 896.279 699.351 893.072 696.278C887.072 690.426 881.664 683.901 875.778 677.331C875.16 678.512 874.47 679.655 873.713 680.753C869.025 686.787 864.53 693.005 859.431 698.674C857.048 701.018 854.155 702.779 850.978 703.819C842.696 706.911 835.589 702.005 835.281 693.141C835.132 685.138 837.63 677.31 842.388 670.874C847.1 664.143 852.655 658.029 857.777 651.812C852.153 641.089 845.833 629.875 840.392 618.251C838.013 613.095 836.62 607.539 836.285 601.87C835.635 590.782 844.932 584.245 855.13 588.546C859.751 590.591 863.92 593.534 867.394 597.204C872.938 602.964 877.66 609.512 882.782 615.787C885.52 611.395 888.018 606.718 891.178 602.543C894.518 598.104 898.223 593.952 902.255 590.131C906.499 586.139 911.758 585.431 917.085 588.1C922.412 590.77 923.929 595.652 923.256 601.265C922.024 610.881 918.123 619.585 913.149 627.765C909.716 633.388 905.632 638.705 901.913 643.963Z" fill="#E1A7BC" stroke="white" stroke-width="0.15" stroke-miterlimit="10"/>
<path d="M785.12 598.881C790.117 608.338 795.387 617.874 800.246 627.571C803.224 633.457 805.289 639.686 804.912 646.462C804.387 655.713 796.037 661.657 787.39 658.303C783.256 656.686 779.481 654.271 776.279 651.196C770.267 645.344 764.872 638.819 758.974 632.248C758.355 633.429 757.666 634.572 756.909 635.67C752.221 641.705 747.783 647.922 742.638 653.592C740.254 655.939 737.356 657.701 734.174 658.737C725.903 661.828 718.785 656.922 718.489 648.059C718.33 640.056 720.825 632.227 725.584 625.791C730.307 619.061 735.851 612.946 740.973 606.729C735.349 596.006 729.029 584.793 723.588 573.168C721.208 568.012 719.816 562.456 719.481 556.787C718.842 545.699 728.128 539.162 738.338 543.463C742.955 545.508 747.12 548.451 750.589 552.121C756.133 557.882 760.856 564.43 765.978 570.704C768.727 566.312 771.226 561.635 774.374 557.46C777.714 553.021 781.419 548.87 785.451 545.049C789.706 541.056 794.953 540.349 800.281 543.018C805.608 545.687 807.125 550.57 806.441 556.182C805.209 565.799 801.319 574.503 796.345 582.682C792.877 588.329 788.782 593.622 785.12 598.881Z" fill="#E1A7BC" stroke="white" stroke-width="0.15" stroke-miterlimit="10"/>
<path d="M676.797 671.432C681.804 680.889 687.063 690.426 691.934 700.134C694.912 706.008 696.977 712.237 696.589 719.013C696.075 728.265 687.725 734.208 679.078 730.854C674.942 729.241 671.166 726.826 667.967 723.747C661.955 717.895 656.56 711.382 650.662 704.8C650.043 705.981 649.354 707.124 648.597 708.222C643.909 714.256 639.414 720.474 634.326 726.143C631.94 728.488 629.043 730.249 625.862 731.288C617.58 734.379 610.473 729.474 610.165 720.61C610.016 712.607 612.514 704.779 617.272 698.343C621.995 691.612 627.539 685.498 632.661 679.292C627.037 668.558 620.717 657.344 615.276 645.731C612.898 640.57 611.505 635.011 611.169 629.339C610.53 618.251 619.816 611.714 630.014 616.015C634.633 618.064 638.801 621.006 642.277 624.673C647.821 630.433 652.544 636.981 657.666 643.256C660.415 638.864 662.902 634.187 666.062 630.012C669.405 625.575 673.11 621.424 677.139 617.6C681.382 613.608 686.641 612.9 691.969 615.581C697.296 618.262 698.813 623.133 698.129 628.734C696.897 638.35 693.007 647.066 688.033 655.234C684.565 660.892 680.47 666.174 676.797 671.432Z" fill="#E1A7BC" stroke="white" stroke-width="0.15" stroke-miterlimit="10"/>
<path d="M1177.51 449.532C1182.52 458.989 1187.77 468.526 1192.65 478.222C1195.62 484.108 1197.68 490.325 1197.3 497.101C1196.79 506.364 1188.42 512.308 1179.79 508.954C1175.65 507.334 1171.87 504.92 1168.67 501.847C1162.67 495.983 1157.26 489.47 1151.37 482.887C1150.76 484.07 1150.07 485.213 1149.31 486.31C1144.62 492.344 1140.18 498.561 1135.03 504.231C1132.64 506.572 1129.75 508.333 1126.57 509.376C1118.29 512.468 1111.18 507.551 1110.88 498.699C1110.73 490.692 1113.23 482.86 1117.98 476.419C1122.69 469.7 1128.25 463.586 1133.37 457.369C1127.75 446.635 1121.43 435.432 1115.98 423.808C1113.6 418.65 1112.21 413.095 1111.87 407.427C1111.23 396.327 1120.53 389.791 1130.73 394.103C1135.35 396.144 1139.51 399.083 1142.99 402.749C1148.53 408.522 1153.26 415.058 1158.38 421.332C1161.11 416.952 1163.61 412.275 1166.77 408.1C1170.11 403.654 1173.81 399.499 1177.85 395.677C1182.09 391.696 1187.35 390.989 1192.68 393.658C1198.01 396.327 1199.52 401.209 1198.85 406.811C1197.62 416.439 1193.72 425.143 1188.74 433.31C1185.26 438.98 1181.18 444.273 1177.51 449.532Z" fill="#E1A7BC" stroke="white" stroke-width="0.15" stroke-miterlimit="10"/>
<path d="M1037.25 521.595C1042.26 531.04 1047.52 540.588 1052.39 550.284C1055.36 556.159 1057.42 562.388 1057.04 569.164C1056.53 578.427 1048.18 584.37 1039.53 581.005C1035.39 579.39 1031.62 576.979 1028.41 573.909C1022.41 568.046 1017 561.533 1011.11 554.95C1010.5 556.133 1009.81 557.276 1009.05 558.373C1004.36 564.407 999.866 570.624 994.778 576.305C992.388 578.643 989.491 580.399 986.313 581.438C978.032 584.541 970.925 579.625 970.617 570.761C970.469 562.759 972.967 554.931 977.724 548.494C982.435 541.763 987.99 535.648 993.112 529.443C987.488 518.708 981.169 507.495 975.727 495.882C973.35 490.721 971.957 485.161 971.621 479.489C970.97 468.401 980.267 461.865 990.466 466.165C995.085 468.214 999.252 471.157 1002.73 474.824C1008.27 480.584 1013 487.132 1018.12 493.407C1020.86 489.026 1023.35 484.349 1026.51 480.174C1029.85 475.731 1033.56 471.575 1037.59 467.751C1041.83 463.758 1047.09 463.062 1052.42 465.731C1057.75 468.401 1059.26 473.284 1058.59 478.885C1057.36 488.513 1053.46 497.217 1048.48 505.384C1045.01 511.065 1040.92 516.347 1037.25 521.595Z" fill="#E1A7BC" stroke="white" stroke-width="0.15" stroke-miterlimit="10"/>
<path d="M919.421 468.185C922.421 473.889 925.558 479.592 928.547 485.399C930.475 488.856 931.44 492.769 931.342 496.727C931.034 502.282 926.014 505.853 920.835 503.834C918.353 502.866 916.086 501.421 914.162 499.579C910.557 496.054 907.317 492.152 903.781 488.171C903.411 488.878 902.996 489.56 902.537 490.213C899.731 493.829 897.039 497.559 893.982 500.959C892.55 502.366 890.813 503.424 888.905 504.05C883.932 505.898 879.665 502.909 879.483 497.639C879.396 492.838 880.895 488.143 883.749 484.281C886.578 480.243 889.932 476.569 892.978 472.873C889.556 466.428 885.814 459.709 882.551 452.727C881.127 449.635 880.291 446.304 880.087 442.906C879.7 436.244 885.278 432.319 891.392 434.92C894.164 436.146 896.665 437.91 898.75 440.111C902.081 443.533 904.91 447.491 907.99 451.256C909.633 448.632 911.127 445.826 913.021 443.27C915.026 440.606 917.251 438.115 919.672 435.822C920.814 434.67 922.303 433.928 923.91 433.709C925.516 433.491 927.15 433.808 928.558 434.612C931.798 436.232 932.688 439.175 932.254 442.506C931.38 448.171 929.315 453.587 926.197 458.397C924.075 461.854 921.622 465.025 919.421 468.185Z" fill="#E1A7BC" stroke="white" stroke-width="0.09" stroke-miterlimit="10"/>
<path d="M1261.25 649.278C1266.26 658.735 1271.52 668.282 1276.39 677.979C1279.37 683.854 1281.42 690.083 1281.04 696.859C1280.53 706.11 1272.17 712.065 1263.52 708.7C1259.39 707.087 1255.61 704.671 1252.41 701.593C1246.4 695.741 1241 689.227 1235.1 682.645C1234.49 683.826 1233.8 684.969 1233.04 686.067C1228.36 692.102 1223.91 698.319 1218.77 703.988C1216.39 706.332 1213.49 708.093 1210.32 709.133C1202.03 712.224 1194.92 707.319 1194.62 698.456C1194.47 690.454 1196.96 682.626 1201.72 676.188C1206.44 669.458 1211.98 663.343 1217.1 657.137C1211.48 646.403 1205.17 635.189 1199.72 623.576C1197.35 618.414 1195.95 612.855 1195.61 607.183C1194.97 596.095 1204.26 589.559 1214.47 593.86C1219.09 595.912 1223.25 598.854 1226.73 602.518C1232.28 608.279 1237 614.827 1242.11 621.101C1244.86 616.709 1247.36 612.032 1250.52 607.857C1253.85 603.418 1257.55 599.266 1261.58 595.446C1263.49 593.526 1265.97 592.288 1268.65 591.923C1271.34 591.558 1274.06 592.086 1276.41 593.426C1281.81 596.141 1283.26 600.978 1282.57 606.579C1281.34 616.207 1277.45 624.911 1272.48 633.079C1269.02 638.737 1264.92 644.019 1261.25 649.278Z" fill="#E1A7BC" stroke="white" stroke-width="0.15" stroke-miterlimit="10"/>
<path d="M1135.31 604.869C1138.31 610.573 1141.45 616.277 1144.43 622.083C1146.33 625.542 1147.28 629.444 1147.17 633.388C1146.86 638.944 1141.84 642.514 1136.67 640.495C1134.18 639.524 1131.92 638.075 1129.99 636.229C1126.39 632.716 1123.15 628.803 1119.61 624.822C1119.24 625.527 1118.82 626.209 1118.37 626.863C1115.56 630.479 1112.87 634.21 1109.8 637.621C1108.37 639.026 1106.64 640.081 1104.74 640.701C1099.76 642.56 1095.5 639.617 1095.31 634.301C1095.22 629.495 1096.72 624.795 1099.58 620.931C1102.41 616.893 1105.76 613.231 1108.81 609.524C1105.39 603.09 1101.64 596.36 1098.38 589.39C1096.95 586.296 1096.11 582.96 1095.92 579.556C1095.53 572.906 1101.11 568.981 1107.22 571.571C1109.99 572.801 1112.49 574.564 1114.58 576.761C1117.91 580.183 1120.74 584.154 1123.81 587.918C1125.46 585.283 1126.96 582.477 1128.85 579.933C1130.86 577.265 1133.08 574.769 1135.5 572.472C1136.65 571.326 1138.14 570.587 1139.74 570.369C1141.35 570.15 1142.98 570.464 1144.39 571.263C1147.62 572.894 1148.52 575.826 1148.08 579.157C1147.21 584.825 1145.14 590.244 1142.03 595.059C1139.96 598.527 1137.51 601.71 1135.31 604.869Z" fill="#E1A7BC" stroke="white" stroke-width="0.09" stroke-miterlimit="10"/>
<path d="M1036.1 676.738C1041.11 686.183 1046.37 695.731 1051.24 705.427C1054.21 711.302 1056.27 717.531 1055.89 724.307C1055.38 733.57 1047.02 739.513 1038.38 736.148C1034.24 734.533 1030.47 732.122 1027.26 729.052C1021.26 723.189 1015.85 716.676 1009.95 710.094C1009.34 711.279 1008.65 712.422 1007.89 713.516C1003.21 719.55 998.762 725.767 993.617 731.448C991.231 733.786 988.339 735.542 985.164 736.582C976.882 739.684 969.775 734.768 969.467 725.904C969.316 717.903 971.811 710.076 976.563 703.637C981.286 696.906 986.83 690.792 991.952 684.586C986.328 673.851 980.019 662.638 974.566 651.025C972.194 645.862 970.801 640.304 970.46 634.632C969.821 623.544 979.118 617.008 989.316 621.308C993.935 623.358 998.103 626.3 1001.58 629.967C1007.12 635.727 1011.85 642.275 1016.97 648.55C1019.71 644.169 1022.2 639.492 1025.36 635.317C1028.7 630.869 1032.4 626.713 1036.44 622.894C1040.68 618.901 1045.94 618.205 1051.27 620.875C1056.6 623.544 1058.12 628.427 1057.44 634.028C1056.21 643.656 1052.31 652.36 1047.34 660.528C1043.86 666.208 1039.76 671.49 1036.1 676.738Z" fill="#E1A7BC" stroke="white" stroke-width="0.15" stroke-miterlimit="10"/>
<path d="M1518.56 454.574C1523.57 464.03 1528.82 473.567 1533.7 483.275C1536.67 489.15 1538.73 495.378 1538.35 502.154C1537.84 511.406 1529.48 517.349 1520.84 513.995C1516.7 512.383 1512.92 509.967 1509.72 506.888C1503.71 501.036 1498.31 494.523 1492.41 487.941C1491.8 489.124 1491.11 490.268 1490.35 491.363C1485.67 497.398 1481.22 503.615 1476.08 509.284C1473.69 511.628 1470.8 513.389 1467.62 514.429C1459.34 517.521 1452.23 512.615 1451.93 503.751C1451.77 495.75 1454.27 487.922 1459.02 481.484C1463.74 474.753 1469.35 468.639 1474.41 462.422C1468.79 451.699 1462.48 440.486 1457.03 428.873C1454.65 423.71 1453.26 418.151 1452.92 412.48C1452.28 401.392 1461.58 394.855 1471.78 399.156C1476.39 401.208 1480.56 404.15 1484.04 407.814C1489.58 413.575 1494.31 420.123 1499.43 426.397C1502.17 422.005 1504.66 417.328 1507.82 413.153C1511.16 408.711 1514.86 404.559 1518.9 400.741C1523.14 396.749 1528.4 396.041 1533.73 398.722C1539.06 401.403 1540.57 406.274 1539.89 411.875C1538.67 421.491 1534.77 430.207 1529.79 438.375C1526.32 444.021 1522.22 449.315 1518.56 454.574Z" fill="#E1A7BC" stroke="white" stroke-width="0.15" stroke-miterlimit="10"/>
<path d="M1369.2 527.296C1372.2 533 1375.32 538.704 1378.32 544.51C1380.21 547.974 1381.14 551.874 1381.03 555.815C1380.72 561.371 1375.7 564.941 1370.51 562.922C1368.03 561.952 1365.77 560.507 1363.85 558.667C1360.24 555.154 1357 551.241 1353.47 547.26C1353.09 547.964 1352.68 548.646 1352.22 549.302C1349.42 552.918 1346.71 556.648 1343.66 560.047C1342.23 561.461 1340.49 562.52 1338.58 563.139C1333.62 564.998 1329.35 561.998 1329.17 556.728C1329.08 551.928 1330.57 547.232 1333.42 543.369C1336.26 539.331 1339.62 535.658 1342.66 531.962C1339.24 525.517 1335.5 518.798 1332.23 511.828C1330.81 508.729 1329.97 505.395 1329.76 501.994C1329.38 495.332 1334.95 491.408 1341.08 494.009C1343.85 495.235 1346.35 497 1348.44 499.2C1351.75 502.622 1354.6 506.592 1357.66 510.345C1359.31 507.721 1360.81 504.915 1362.71 502.36C1364.7 499.693 1366.93 497.201 1369.35 494.91C1370.49 493.761 1371.98 493.02 1373.58 492.801C1375.19 492.583 1376.82 492.899 1378.23 493.701C1381.47 495.332 1382.36 498.264 1381.94 501.595C1381.07 507.263 1379 512.679 1375.87 517.486C1373.85 520.988 1371.39 524.159 1369.2 527.296Z" fill="#E1A7BC" stroke="white" stroke-width="0.09" stroke-miterlimit="10"/>
<path d="M1602.33 654.331C1607.34 663.788 1612.6 673.325 1617.47 683.021C1620.45 688.908 1622.51 695.125 1622.14 701.901C1621.61 711.164 1613.26 717.108 1604.62 713.754C1600.48 712.137 1596.71 709.722 1593.51 706.647C1587.49 700.783 1582.1 694.27 1576.2 687.687C1575.58 688.87 1574.89 690.013 1574.14 691.11C1569.45 697.144 1565.01 703.361 1559.86 709.031C1557.48 711.376 1554.58 713.137 1551.4 714.175C1543.12 717.267 1536.01 712.35 1535.71 703.498C1535.56 695.492 1538.05 687.659 1542.81 681.219C1547.53 674.5 1553.08 668.386 1558.2 662.169C1552.58 651.434 1546.26 640.232 1540.81 628.608C1538.43 623.451 1537.04 617.895 1536.71 612.227C1536.07 601.127 1545.35 594.59 1555.56 598.902C1560.18 600.95 1564.34 603.889 1567.82 607.549C1573.36 613.322 1578.08 619.87 1583.2 626.132C1585.95 621.752 1588.44 617.075 1591.6 612.899C1594.94 608.457 1598.64 604.301 1602.68 600.476C1606.93 596.495 1612.18 595.788 1617.51 598.457C1622.83 601.127 1624.35 606.009 1623.67 611.61C1622.43 621.238 1618.55 629.942 1613.57 638.11C1610.07 643.78 1605.97 649.073 1602.33 654.331Z" fill="#E1A7BC" stroke="white" stroke-width="0.15" stroke-miterlimit="10"/>
<path d="M1485.46 609.249C1490.47 618.706 1495.73 628.243 1500.6 637.939C1503.58 643.826 1505.63 650.043 1505.26 656.819C1504.74 666.082 1496.38 672.025 1487.74 668.671C1483.61 667.054 1479.83 664.64 1476.62 661.564C1470.61 655.701 1465.21 649.187 1459.32 642.605C1458.7 643.79 1458.01 644.933 1457.25 646.027C1452.57 652.062 1448.13 658.279 1442.98 663.948C1440.6 666.29 1437.7 668.05 1434.53 669.093C1426.25 672.184 1419.14 667.268 1418.83 658.416C1418.68 650.41 1421.17 642.579 1425.93 636.137C1430.65 629.418 1436.25 623.303 1441.32 617.086C1435.69 606.352 1429.38 595.149 1423.93 583.525C1421.56 578.367 1420.16 572.812 1419.82 567.144C1419.19 556.044 1428.48 549.508 1438.68 553.82C1443.3 555.868 1447.46 558.806 1450.94 562.467C1456.49 568.239 1461.21 574.787 1466.33 581.05C1469.07 576.669 1471.57 571.992 1474.73 567.817C1478.06 563.369 1481.77 559.213 1485.81 555.394C1490.05 551.413 1495.31 550.705 1500.63 553.375C1505.96 556.044 1507.48 560.927 1506.79 566.528C1505.57 576.156 1501.67 584.86 1496.7 593.028C1493.22 598.697 1489.12 603.99 1485.46 609.249Z" fill="#E1A7BC" stroke="white" stroke-width="0.15" stroke-miterlimit="10"/>
<path d="M1377.15 681.802C1382.16 691.259 1387.42 700.796 1392.28 710.492C1395.27 716.379 1397.32 722.607 1396.94 729.383C1396.43 738.635 1388.07 744.578 1379.42 741.224C1375.29 739.607 1371.51 737.192 1368.31 734.117C1362.3 728.265 1356.9 721.74 1351 715.17C1350.39 716.351 1349.7 717.494 1348.94 718.592C1344.26 724.626 1339.81 730.843 1334.67 736.513C1332.28 738.857 1329.39 740.618 1326.22 741.658C1317.93 744.75 1310.81 739.844 1310.52 730.98C1310.36 722.978 1312.85 715.147 1317.61 708.713C1322.34 701.982 1327.88 695.868 1333 689.651C1327.38 678.928 1321.06 667.714 1315.62 656.09C1313.24 650.932 1311.85 645.377 1311.51 639.709C1310.87 628.621 1320.16 622.072 1330.37 626.385C1334.99 628.432 1339.15 631.375 1342.63 635.043C1348.16 640.747 1352.9 647.352 1358.01 653.626C1360.76 649.234 1363.26 644.557 1366.42 640.382C1369.75 635.94 1373.45 631.788 1377.48 627.97C1381.74 623.978 1386.98 623.271 1392.31 625.94C1397.64 628.609 1399.16 633.492 1398.47 639.093C1397.24 648.721 1393.35 657.425 1388.37 665.604C1384.91 671.251 1380.81 676.544 1377.15 681.802Z" fill="#E1A7BC" stroke="white" stroke-width="0.15" stroke-miterlimit="10"/>
</g>
<defs>
<clipPath id="clip0_645_2562">
<rect width="1920" height="975" fill="white"/>
</clipPath>
</defs>
</svg>