<svg width="216" height="189" viewBox="0 0 216 189" fill="none" xmlns="http://www.w3.org/2000/svg">
<path d="M41.71 173.15L54.5699 120.71L0 68.98L56.83 67.5699L91.33 0L123.32 56.9L215.74 41.73L159.63 109.66L198.04 170.21L115.41 141.2L61.95 188.55L82.3 146.51L108.44 120.91L108.97 116.79L106.22 116.05L94.83 125.57L92.41 125.09L103.48 104.06L102.83 101.85L100.13 101.4L87.5699 120.32L86.86 117.56L96.95 94.08L96.66 90.37L93.8 90.8099L81.13 118.41L78.67 117.62L81.28 93L79.6 89.7899L76.55 90.83L72.4301 118.87L71.2 125.98L68.3199 116.89L65.03 114.51L62.77 116.85L63.33 135.55L41.71 173.15Z" fill="#2A3D88"/>
<path d="M135.82 74.8798C135.82 74.8798 124.82 60.6699 115.2 64.9399C105.58 69.2099 101.75 72.9398 106.56 88.1298C111.37 103.32 131.98 110.36 131.98 110.36C131.98 110.36 154.05 101.52 163.64 87.2498C173.23 72.9798 158.4 67.7698 158.4 67.7698C158.4 67.7698 146.85 60.2098 135.82 74.8798Z" fill="#BE1620"/>
</svg>
