<svg width="1728" height="798" viewBox="0 0 1728 798" fill="none" xmlns="http://www.w3.org/2000/svg">
<path d="M183.375 51.3601C187.765 59.6502 192.375 68.0103 196.645 76.5203C199.255 81.6703 201.065 87.1306 200.735 93.0706C200.275 101.181 192.955 106.39 185.375 103.45C181.749 102.037 178.439 99.9193 175.635 97.2205C170.365 92.0905 165.635 86.3801 160.465 80.6101C159.923 81.6457 159.318 82.6475 158.655 83.6101C154.545 88.9001 150.655 94.3506 146.145 99.3206C144.055 101.379 141.514 102.922 138.725 103.83C131.465 106.54 125.235 102.24 124.975 94.4705C124.836 87.4555 127.023 80.5918 131.195 74.9505C135.335 69.0505 140.195 63.6903 144.685 58.2503C139.755 48.8403 134.215 39.0104 129.445 28.8304C127.361 24.3063 126.14 19.4326 125.845 14.4602C125.285 4.74025 133.425 -0.989441 142.375 2.78056C146.419 4.57955 150.069 7.15864 153.115 10.3704C157.975 15.3704 162.115 21.1604 166.605 26.6604C169.015 22.8104 171.195 18.6606 173.965 15.0506C176.895 11.1615 180.143 7.52199 183.675 4.17021C187.405 0.670207 192.005 0.0501876 196.675 2.40019C201.345 4.75019 202.675 9.02046 202.075 13.9305C200.995 22.3605 197.585 30.0004 193.225 37.1604C190.185 42.1204 186.595 46.7501 183.375 51.3601Z" fill="#E1A7BC" stroke="white" stroke-width="0.15" stroke-miterlimit="10"/>
<path d="M52.4439 115.13C55.0839 120.13 57.8239 125.13 60.4439 130.22C62.1336 133.252 62.9796 136.68 62.8939 140.15C62.6239 145.02 58.2339 148.15 53.6839 146.38C51.5094 145.53 49.5221 144.263 47.8339 142.65C44.6739 139.57 41.8339 136.14 38.7339 132.65C38.4094 133.267 38.0487 133.865 37.6539 134.44C35.1839 137.61 32.8239 140.88 30.1439 143.86C28.8896 145.102 27.3623 146.033 25.6839 146.58C21.3339 148.21 17.5939 145.58 17.4339 140.96C17.3456 136.751 18.6576 132.632 21.1639 129.25C23.6439 125.71 26.5939 122.5 29.2639 119.25C26.2639 113.6 22.9839 107.71 20.1139 101.6C18.866 98.8853 18.1335 95.9622 17.9539 92.9799C17.6139 87.1399 22.5039 83.6999 27.8739 85.9799C30.3039 87.0546 32.4962 88.6015 34.3239 90.5302C37.2339 93.5302 39.7239 97.0102 42.4139 100.3C43.8539 98.0002 45.1639 95.5402 46.8339 93.3002C48.5853 90.9625 50.5323 88.7777 52.6539 86.7699C53.6549 85.7609 54.9607 85.11 56.3691 84.9184C57.7774 84.7267 59.2096 85.005 60.4439 85.7099C63.2839 87.1399 64.0639 89.7098 63.6839 92.6298C62.925 97.6011 61.1147 102.354 58.3739 106.57C56.5239 109.58 54.3739 112.36 52.4439 115.13Z" fill="#E1A7BC" stroke="white" stroke-width="0.09" stroke-miterlimit="10"/>
<path d="M256.794 226.47C261.184 234.76 265.794 243.12 270.064 251.62C272.674 256.78 274.474 262.23 274.144 268.18C273.694 276.29 266.364 281.5 258.794 278.56C255.169 277.14 251.856 275.024 249.044 272.33C243.784 267.19 239.044 261.48 233.884 255.71C233.344 256.747 232.74 257.749 232.074 258.71C227.964 264 224.024 269.45 219.554 274.42C217.463 276.472 214.928 278.016 212.144 278.93C204.884 281.64 198.654 277.33 198.384 269.57C198.254 262.552 200.444 255.686 204.614 250.04C208.744 244.15 213.614 238.79 218.104 233.34C213.174 223.93 207.634 214.11 202.864 203.92C200.78 199.399 199.556 194.529 199.254 189.56C198.694 179.84 206.844 174.1 215.784 177.88C219.835 179.673 223.489 182.253 226.534 185.47C231.394 190.52 235.534 196.26 240.024 201.75C242.424 197.91 244.614 193.81 247.384 190.15C250.309 186.256 253.557 182.617 257.094 179.27C260.814 175.77 265.424 175.15 270.094 177.49C274.764 179.83 276.094 184.11 275.504 189.02C274.424 197.46 271.004 205.09 266.644 212.25C263.594 217.22 260.014 221.86 256.794 226.47Z" fill="#E1A7BC" stroke="white" stroke-width="0.15" stroke-miterlimit="10"/>
<path d="M154.363 186.951C158.753 195.241 163.363 203.601 167.633 212.101C170.243 217.261 172.053 222.711 171.723 228.651C171.263 236.771 163.943 241.981 156.363 239.041C152.739 237.623 149.43 235.506 146.623 232.811C141.353 227.671 136.623 221.961 131.453 216.191C130.913 217.228 130.309 218.23 129.643 219.191C125.533 224.481 121.643 229.931 117.133 234.901C115.041 236.957 112.502 238.501 109.713 239.411C102.453 242.121 96.2233 237.811 95.9633 230.051C95.8243 223.033 98.0113 216.166 102.183 210.521C106.323 204.631 111.183 199.271 115.673 193.821C110.743 184.411 105.203 174.591 100.433 164.401C98.3475 159.881 97.1265 155.01 96.8333 150.041C96.2733 140.321 104.413 134.581 113.363 138.361C117.407 140.156 121.057 142.732 124.103 145.941C128.963 151.001 133.103 156.741 137.593 162.231C140.003 158.391 142.183 154.291 144.953 150.631C147.881 146.736 151.129 143.094 154.663 139.741C158.393 136.251 162.993 135.631 167.663 137.971C172.333 140.311 173.663 144.591 173.063 149.501C171.983 157.941 168.573 165.571 164.213 172.731C161.173 177.701 157.583 182.341 154.363 186.951Z" fill="#E1A7BC" stroke="white" stroke-width="0.15" stroke-miterlimit="10"/>
<path d="M59.4155 250.579C63.8055 258.869 68.4155 267.229 72.6855 275.729C75.2955 280.889 77.0955 286.349 76.7655 292.289C76.3155 300.399 68.9955 305.609 61.4155 302.669C57.7897 301.25 54.4773 299.133 51.6655 296.439C46.4055 291.309 41.6655 285.589 36.5055 279.829C35.9632 280.865 35.3588 281.867 34.6955 282.829C30.5855 288.119 26.6455 293.569 22.1855 298.539C20.0935 300.595 17.5538 302.139 14.7655 303.05C7.50554 305.76 1.27554 301.459 1.00554 293.689C0.874664 286.674 3.06479 279.812 7.23554 274.169C11.3755 268.269 16.2355 262.909 20.7255 257.459C15.7955 248.059 10.2555 238.229 5.48554 228.039C3.39981 223.519 2.17878 218.649 1.88554 213.68C1.32554 203.96 9.46554 198.219 18.4055 201.999C22.4555 203.789 26.1096 206.366 29.1555 209.579C34.0155 214.629 38.1555 220.37 42.6455 225.87C45.0555 222.02 47.2355 217.92 50.0055 214.26C52.9329 210.368 56.1809 206.729 59.7155 203.379C63.4355 199.879 68.0455 199.259 72.7155 201.599C77.3855 203.939 78.7155 208.22 78.1155 213.14C77.0355 221.57 73.6255 229.2 69.2655 236.37C66.2255 241.3 62.6855 245.939 59.4155 250.579Z" fill="#E1A7BC" stroke="white" stroke-width="0.15" stroke-miterlimit="10"/>
<path d="M498.345 56.0301C502.735 64.3101 507.345 72.68 511.615 81.18C514.225 86.33 516.025 91.7898 515.695 97.7298C515.245 105.85 507.915 111.06 500.345 108.11C496.72 106.693 493.408 104.581 490.595 101.89C485.335 96.75 480.595 91.0399 475.435 85.2699C474.895 86.3067 474.291 87.3086 473.625 88.2699C469.515 93.5599 465.575 99.0098 461.105 103.98C459.016 106.034 456.48 107.578 453.695 108.49C446.435 111.2 440.205 106.9 439.935 99.1297C439.803 92.1157 441.99 85.2542 446.155 79.6097C450.295 73.7097 455.155 68.35 459.655 62.91C454.715 53.5 449.185 43.6701 444.405 33.4901C442.325 28.9646 441.105 24.0917 440.805 19.12C440.245 9.39998 448.395 3.66981 457.335 7.43981C461.384 9.23605 465.038 11.8159 468.085 15.0301C472.945 20.0301 477.085 25.8202 481.575 31.3202C483.975 27.4802 486.165 23.3801 488.935 19.7201C491.86 15.8233 495.108 12.1802 498.645 8.82994C502.365 5.32994 506.975 4.71992 511.645 7.05992C516.315 9.39992 517.645 13.6797 517.055 18.5897C515.975 27.0297 512.555 34.6602 508.195 41.8202C505.145 46.7802 501.565 51.4101 498.345 56.0301Z" fill="#E1A7BC" stroke="white" stroke-width="0.15" stroke-miterlimit="10"/>
<path d="M375.392 119.21C379.782 127.5 384.392 135.86 388.662 144.36C391.272 149.52 393.072 154.98 392.742 160.92C392.292 169.03 384.962 174.24 377.392 171.3C373.764 169.884 370.451 167.767 367.642 165.07C362.382 159.94 357.642 154.22 352.482 148.46C351.94 149.495 351.335 150.497 350.672 151.46C346.562 156.75 342.622 162.2 338.152 167.17C336.063 169.224 333.527 170.768 330.742 171.68C323.482 174.39 317.252 170.09 316.982 162.32C316.851 155.305 319.041 148.443 323.212 142.8C327.342 136.9 332.212 131.54 336.702 126.09C331.772 116.69 326.232 106.86 321.462 96.6698C319.376 92.1498 318.155 87.2793 317.862 82.3099C317.292 72.5899 325.442 66.8598 334.382 70.6298C338.431 72.426 342.084 75.0059 345.132 78.2201C349.992 83.2701 354.132 89.0101 358.622 94.5101C361.022 90.6601 363.212 86.5598 365.982 82.8998C368.909 79.0085 372.158 75.3692 375.692 72.0199C379.412 68.5199 384.022 67.9001 388.692 70.2401C393.362 72.5801 394.692 76.8701 394.102 81.7801C393.022 90.2101 389.602 97.8501 385.242 105.01C382.192 109.96 378.612 114.58 375.392 119.21Z" fill="#E1A7BC" stroke="white" stroke-width="0.15" stroke-miterlimit="10"/>
<path d="M272.103 72.3792C274.733 77.3792 277.483 82.3795 280.103 87.4695C281.794 90.5006 282.64 93.9296 282.553 97.3992C282.283 102.269 277.883 105.399 273.343 103.629C271.167 102.778 269.179 101.507 267.493 99.8894C264.333 96.8094 261.493 93.3794 258.393 89.8894C258.071 90.5102 257.707 91.1083 257.303 91.6795C254.843 94.8595 252.483 98.1292 249.803 101.109C248.547 102.34 247.025 103.264 245.353 103.809C240.993 105.439 237.253 102.859 237.093 98.1995C237.015 93.9907 238.33 89.8741 240.833 86.4895C243.313 82.9495 246.253 79.7295 248.923 76.4895C245.923 70.8495 242.643 64.9491 239.783 58.8391C238.533 56.1253 237.8 53.2022 237.623 50.2195C237.283 44.3895 242.173 40.9495 247.533 43.2195C249.963 44.2943 252.155 45.8406 253.983 47.7693C256.903 50.7693 259.383 54.2393 262.083 57.5393C263.523 55.2293 264.833 52.7693 266.493 50.5393C268.251 48.2039 270.201 46.0198 272.323 44.0095C273.325 43.0019 274.63 42.3513 276.037 42.158C277.445 41.9646 278.877 42.2389 280.113 42.9392C282.953 44.3692 283.733 46.9392 283.353 49.8592C282.587 54.8285 280.777 59.5798 278.043 63.7996C276.183 66.8296 274.033 69.5792 272.103 72.3792Z" fill="#E1A7BC" stroke="white" stroke-width="0.09" stroke-miterlimit="10"/>
<path d="M571.764 231.13C576.154 239.42 580.764 247.78 585.024 256.28C587.644 261.44 589.444 266.9 589.114 272.84C588.664 280.95 581.334 286.16 573.754 283.22C570.13 281.802 566.82 279.686 564.014 276.99C558.744 271.86 554.014 266.14 548.844 260.38C548.302 261.415 547.697 262.417 547.034 263.38C542.934 268.67 539.034 274.12 534.524 279.09C532.435 281.144 529.899 282.688 527.114 283.6C519.854 286.31 513.614 282.01 513.354 274.24C513.215 267.225 515.402 260.361 519.574 254.72C523.714 248.82 528.574 243.46 533.064 238.01C528.134 228.61 522.604 218.78 517.824 208.59C515.743 204.068 514.522 199.199 514.224 194.23C513.664 184.51 521.804 178.77 530.754 182.55C534.803 184.345 538.457 186.925 541.504 190.14C546.354 195.19 550.504 200.93 554.984 206.43C557.394 202.58 559.584 198.48 562.354 194.82C565.275 190.927 568.52 187.287 572.054 183.94C575.784 180.44 580.384 179.82 585.054 182.16C589.724 184.5 591.054 188.78 590.454 193.7C589.374 202.13 585.964 209.76 581.604 216.93C578.564 221.88 574.974 226.52 571.764 231.13Z" fill="#E1A7BC" stroke="white" stroke-width="0.15" stroke-miterlimit="10"/>
<path d="M461.353 192.189C463.983 197.189 466.733 202.189 469.353 207.279C471.039 210.312 471.884 213.74 471.803 217.209C471.533 222.079 467.133 225.209 462.583 223.439C460.412 222.589 458.428 221.321 456.743 219.709C453.583 216.629 450.743 213.199 447.643 209.709C447.315 210.326 446.951 210.924 446.553 211.499C444.093 214.669 441.723 217.939 439.043 220.919C437.795 222.156 436.274 223.084 434.603 223.629C430.243 225.259 426.503 222.629 426.343 218.009C426.263 213.8 427.578 209.682 430.083 206.299C432.563 202.759 435.503 199.549 438.173 196.299C435.173 190.649 431.893 184.759 429.023 178.649C427.78 175.933 427.048 173.011 426.863 170.029C426.533 164.189 431.413 160.749 436.783 163.029C439.213 164.104 441.406 165.65 443.233 167.579C446.143 170.579 448.633 174.059 451.323 177.349C452.773 175.049 454.083 172.589 455.743 170.349C457.498 168.014 459.444 165.83 461.563 163.819C462.567 162.811 463.874 162.161 465.284 161.969C466.694 161.778 468.127 162.055 469.363 162.759C472.193 164.189 472.983 166.759 472.603 169.679C471.835 174.648 470.026 179.398 467.293 183.619C465.433 186.639 463.283 189.419 461.353 192.189Z" fill="#E1A7BC" stroke="white" stroke-width="0.09" stroke-miterlimit="10"/>
<path d="M374.385 255.21C378.775 263.5 383.385 271.86 387.655 280.36C390.265 285.52 392.065 290.98 391.735 296.92C391.285 305.03 383.955 310.24 376.385 307.3C372.757 305.884 369.444 303.767 366.635 301.07C361.365 295.94 356.635 290.22 351.465 284.46C350.926 285.498 350.322 286.5 349.655 287.46C345.555 292.75 341.655 298.2 337.145 303.17C335.055 305.224 332.519 306.768 329.735 307.68C322.475 310.39 316.245 306.09 315.975 298.32C315.84 291.306 318.027 284.444 322.195 278.8C326.335 272.9 331.245 267.54 335.685 262.09C330.755 252.69 325.225 242.86 320.445 232.67C318.363 228.148 317.142 223.279 316.845 218.31C316.285 208.59 324.435 202.86 333.375 206.63C337.423 208.426 341.077 211.006 344.125 214.22C348.985 219.27 353.125 225.01 357.615 230.51C360.015 226.66 362.205 222.56 364.975 218.9C367.896 215.004 371.145 211.364 374.685 208.02C378.405 204.52 383.015 203.9 387.685 206.24C392.355 208.58 393.685 212.87 393.095 217.78C392.015 226.21 388.595 233.84 384.235 241.01C381.185 245.96 377.595 250.58 374.385 255.21Z" fill="#E1A7BC" stroke="white" stroke-width="0.15" stroke-miterlimit="10"/>
<path d="M1746.2 74.5008C1750.59 82.7808 1755.2 91.1507 1759.47 99.6507C1762.08 104.801 1763.89 110.261 1763.55 116.201C1763.1 124.321 1755.78 129.531 1748.2 126.581C1744.58 125.167 1741.27 123.053 1738.46 120.361C1733.19 115.221 1728.46 109.511 1723.29 103.741C1722.75 104.778 1722.15 105.78 1721.48 106.741C1717.37 112.031 1713.48 117.481 1708.97 122.451C1706.88 124.507 1704.34 126.05 1701.55 126.961C1694.29 129.671 1688.06 125.371 1687.79 117.601C1687.67 110.586 1689.86 103.724 1694.02 98.0809C1698.16 92.1809 1703.02 86.8207 1707.51 81.3807C1702.58 71.9707 1697.04 62.1408 1692.27 51.9608C1690.19 47.433 1688.97 42.556 1688.68 37.5809C1688.12 27.8609 1696.26 22.1307 1705.2 25.9007C1709.25 27.697 1712.91 30.2768 1715.95 33.4911C1720.81 38.5411 1724.95 44.2811 1729.44 49.7811C1731.85 45.9311 1734.03 41.841 1736.8 38.181C1739.73 34.2866 1742.98 30.6437 1746.51 27.2909C1750.23 23.7909 1754.84 23.1809 1759.51 25.5209C1764.18 27.8609 1765.51 32.1411 1764.91 37.0511C1763.83 45.4911 1760.42 53.1211 1756.06 60.2811C1753.01 65.2511 1749.42 69.8808 1746.2 74.5008Z" fill="#E1A7BC" stroke="white" stroke-width="0.15" stroke-miterlimit="10"/>
<path d="M1623.25 137.681C1627.64 145.971 1632.25 154.331 1636.52 162.831C1639.13 167.991 1640.94 173.451 1640.61 179.391C1640.15 187.501 1632.83 192.711 1625.25 189.771C1621.63 188.357 1618.32 186.24 1615.51 183.541C1610.24 178.411 1605.51 172.691 1600.34 166.931C1599.8 167.966 1599.2 168.968 1598.53 169.931C1594.42 175.221 1590.53 180.671 1586.02 185.641C1583.93 187.699 1581.39 189.242 1578.6 190.151C1571.34 192.861 1565.11 188.561 1564.85 180.791C1564.71 173.776 1566.9 166.912 1571.07 161.271C1575.21 155.371 1580.07 150.011 1584.56 144.561C1579.63 135.161 1574.09 125.331 1569.32 115.141C1567.24 110.621 1566.02 105.75 1565.72 100.781C1565.16 91.061 1573.3 85.3308 1582.25 89.1008C1586.3 90.8961 1589.95 93.4757 1592.99 96.6906C1597.85 101.741 1601.99 107.481 1606.48 112.981C1608.89 109.131 1611.07 105.031 1613.84 101.371C1616.77 97.4795 1620.02 93.8403 1623.55 90.4909C1627.28 86.9909 1631.88 86.3706 1636.55 88.7106C1641.22 91.0506 1642.55 95.3307 1641.95 100.251C1640.87 108.681 1637.46 116.311 1633.1 123.481C1630.06 128.431 1626.47 133.071 1623.25 137.681Z" fill="#E1A7BC" stroke="white" stroke-width="0.15" stroke-miterlimit="10"/>
<path d="M1709.21 210.66C1711.84 215.66 1714.59 220.659 1717.21 225.749C1718.9 228.78 1719.75 232.21 1719.66 235.68C1719.39 240.55 1714.99 243.68 1710.45 241.91C1708.28 241.062 1706.29 239.794 1704.6 238.18C1701.44 235.1 1698.6 231.67 1695.5 228.18C1695.18 228.799 1694.81 229.397 1694.41 229.97C1691.95 233.14 1689.59 236.41 1686.91 239.39C1685.66 240.627 1684.14 241.554 1682.46 242.1C1678.1 243.73 1674.36 241.099 1674.2 236.479C1674.13 232.271 1675.44 228.155 1677.94 224.769C1680.42 221.229 1683.36 218.009 1686.03 214.769C1683.03 209.119 1679.75 203.23 1676.89 197.12C1675.64 194.405 1674.91 191.482 1674.73 188.499C1674.39 182.659 1679.28 179.219 1684.64 181.499C1687.07 182.574 1689.26 184.121 1691.09 186.05C1694.01 189.05 1696.49 192.53 1699.19 195.82C1700.63 193.52 1701.94 191.06 1703.6 188.82C1705.36 186.484 1707.31 184.3 1709.43 182.289C1710.43 181.28 1711.74 180.63 1713.15 180.438C1714.56 180.246 1715.99 180.524 1717.22 181.229C1720.06 182.659 1720.84 185.229 1720.46 188.149C1719.7 193.117 1717.89 197.865 1715.15 202.079C1713.29 205.109 1711.14 207.89 1709.21 210.66Z" fill="#E1A7BC" stroke="white" stroke-width="0.09" stroke-miterlimit="10"/>
<path d="M1622.24 273.681C1626.63 281.971 1631.24 290.331 1635.51 298.831C1638.12 303.991 1639.92 309.451 1639.59 315.391C1639.14 323.501 1631.82 328.711 1624.24 325.771C1620.62 324.351 1617.31 322.234 1614.49 319.541C1609.23 314.411 1604.49 308.691 1599.33 302.931C1598.79 303.966 1598.19 304.968 1597.52 305.931C1593.41 311.221 1589.52 316.671 1585.01 321.641C1582.92 323.697 1580.38 325.24 1577.59 326.151C1570.33 328.861 1564.1 324.561 1563.83 316.791C1563.7 309.775 1565.89 302.913 1570.06 297.271C1574.19 291.371 1579.06 286.011 1583.55 280.561C1578.62 271.161 1573.08 261.331 1568.31 251.141C1566.23 246.621 1565.01 241.75 1564.71 236.781C1564.14 227.061 1572.29 221.331 1581.23 225.101C1585.28 226.894 1588.94 229.473 1591.98 232.691C1596.84 237.741 1600.98 243.481 1605.47 248.981C1607.87 245.131 1610.06 241.031 1612.83 237.371C1615.76 233.48 1619.01 229.84 1622.54 226.491C1626.26 222.991 1630.87 222.371 1635.54 224.711C1640.21 227.051 1641.54 231.331 1640.95 236.251C1639.87 244.681 1636.45 252.311 1632.09 259.481C1629.04 264.431 1625.46 269.071 1622.24 273.681Z" fill="#E1A7BC" stroke="white" stroke-width="0.15" stroke-miterlimit="10"/>
<path d="M1519.97 90.8503C1522.61 95.8503 1525.35 100.85 1527.97 105.94C1529.66 108.971 1530.5 112.401 1530.42 115.87C1530.15 120.74 1525.76 123.87 1521.21 122.1C1519.03 121.246 1517.04 119.976 1515.36 118.36C1512.2 115.28 1509.36 111.85 1506.26 108.36C1505.93 108.979 1505.57 109.577 1505.18 110.15C1502.71 113.33 1500.35 116.6 1497.67 119.58C1496.41 120.811 1494.89 121.735 1493.22 122.28C1488.87 123.91 1485.13 121.33 1484.97 116.67C1484.88 112.461 1486.19 108.343 1488.7 104.96C1491.18 101.42 1494.13 98.2002 1496.8 94.9602C1493.8 89.3202 1490.52 83.4203 1487.65 77.3103C1486.39 74.5964 1485.66 71.6729 1485.49 68.6902C1485.15 62.8602 1490.04 59.4202 1495.41 61.6902C1497.84 62.7649 1500.03 64.3118 1501.86 66.2404C1504.77 69.2404 1507.26 72.7105 1509.95 76.0105C1511.39 73.7005 1512.7 71.2405 1514.37 69.0105C1516.12 66.6728 1518.06 64.488 1520.19 62.4802C1521.19 61.4725 1522.49 60.822 1523.9 60.6286C1525.31 60.4353 1526.74 60.7101 1527.98 61.4104C1530.82 62.8404 1531.6 65.4103 1531.22 68.3303C1530.46 73.3016 1528.65 78.0539 1525.91 82.2702C1524.05 85.3002 1521.9 88.0803 1519.97 90.8503Z" fill="#E1A7BC" stroke="white" stroke-width="0.09" stroke-miterlimit="10"/>
<path d="M817.315 60.7504C821.695 69.0304 826.315 77.4003 830.575 85.9003C833.185 91.0503 834.995 96.5105 834.665 102.451C834.205 110.571 826.885 115.78 819.305 112.83C815.681 111.416 812.372 109.303 809.565 106.61C804.295 101.47 799.565 95.7606 794.395 89.9906C793.854 91.0274 793.25 92.0294 792.585 92.9906C788.475 98.2906 784.585 103.73 780.075 108.71C777.984 110.765 775.443 112.306 772.655 113.21C765.405 115.93 759.165 111.62 758.905 103.85C758.767 96.8357 760.954 89.9724 765.125 84.3304C769.265 78.4304 774.125 73.0702 778.615 67.6302C773.685 58.2202 768.145 48.3903 763.375 38.2103C761.29 33.6899 760.069 28.8197 759.775 23.8505C759.215 14.1205 767.355 8.39051 776.305 12.1605C780.349 13.9595 783.999 16.5386 787.045 19.7504C791.905 24.8004 796.045 30.5404 800.535 36.0404C802.945 32.2004 805.135 28.1003 807.895 24.4403C810.822 20.5458 814.07 16.9035 817.605 13.5506C821.335 10.0506 825.935 9.44063 830.605 11.7806C835.275 14.1206 836.605 18.4004 836.005 23.3104C834.925 31.7504 831.515 39.3804 827.155 46.5404C824.115 51.5004 820.525 56.1404 817.315 60.7504Z" fill="#E1A7BC" stroke="white" stroke-width="0.15" stroke-miterlimit="10"/>
<path d="M686.375 124.511C689.015 129.511 691.755 134.511 694.375 139.601C696.066 142.636 696.912 146.068 696.825 149.541C696.555 154.411 692.165 157.541 687.615 155.771C685.44 154.917 683.452 153.647 681.765 152.031C678.605 148.951 675.765 145.521 672.665 142.031C672.342 142.65 671.982 143.248 671.585 143.821C669.115 146.991 666.755 150.261 664.075 153.251C662.819 154.482 661.296 155.406 659.625 155.951C655.275 157.581 651.535 155.001 651.375 150.341C651.295 146.13 652.606 142.011 655.105 138.621C657.585 135.081 660.535 131.871 663.205 128.621C660.205 122.981 656.925 117.081 654.055 110.971C652.804 108.258 652.072 105.334 651.895 102.351C651.555 96.5213 656.445 93.0813 661.815 95.3513C664.243 96.4295 666.434 97.9754 668.265 99.9011C671.175 102.901 673.665 106.381 676.355 109.681C677.795 107.371 679.105 104.911 680.775 102.681C682.526 100.34 684.473 98.1526 686.595 96.1413C687.598 95.1367 688.904 94.489 690.311 94.2976C691.718 94.1061 693.149 94.3813 694.385 95.0813C697.225 96.5113 698.005 99.0812 697.625 102.001C696.866 106.972 695.055 111.725 692.315 115.941C690.455 118.961 688.305 121.751 686.375 124.511Z" fill="#E1A7BC" stroke="white" stroke-width="0.09" stroke-miterlimit="10"/>
<path d="M890.685 235.851C895.075 244.141 899.685 252.501 903.955 261.001C906.565 266.161 908.365 271.621 908.035 277.561C907.585 285.671 900.255 290.881 892.685 287.941C889.059 286.521 885.747 284.404 882.935 281.711C877.675 276.581 872.935 270.861 867.775 265.101C867.233 266.136 866.628 267.138 865.965 268.101C861.855 273.391 857.915 278.841 853.445 283.811C851.356 285.865 848.82 287.409 846.035 288.321C838.775 291.031 832.545 286.731 832.275 278.961C832.144 271.945 834.334 265.083 838.505 259.441C842.635 253.541 847.505 248.181 851.995 242.731C847.065 233.331 841.525 223.501 836.755 213.311C834.669 208.791 833.448 203.92 833.155 198.951C832.585 189.231 840.735 183.501 849.675 187.271C853.726 189.063 857.38 191.643 860.425 194.861C865.285 199.911 869.425 205.651 873.915 211.151C876.315 207.301 878.505 203.201 881.275 199.541C884.202 195.649 887.45 192.01 890.985 188.661C894.705 185.161 899.315 184.541 903.985 186.881C908.655 189.221 909.985 193.501 909.395 198.421C908.315 206.851 904.895 214.481 900.535 221.651C897.525 226.581 893.945 231.241 890.685 235.851Z" fill="#E1A7BC" stroke="white" stroke-width="0.15" stroke-miterlimit="10"/>
<path d="M788.303 196.331C792.683 204.621 797.303 212.981 801.563 221.481C804.173 226.641 805.983 232.101 805.653 238.041C805.193 246.151 797.873 251.361 790.293 248.421C786.669 247.003 783.359 244.887 780.553 242.191C775.283 237.061 770.553 231.341 765.383 225.581C764.841 226.617 764.236 227.619 763.573 228.581C759.463 233.871 755.573 239.321 751.063 244.291C748.972 246.349 746.432 247.893 743.643 248.801C736.393 251.511 730.153 247.211 729.893 239.441C729.754 232.426 731.941 225.562 736.113 219.921C740.253 214.021 745.113 208.661 749.603 203.211C744.673 193.811 739.133 183.981 734.363 173.791C732.277 169.271 731.056 164.401 730.763 159.431C730.203 149.711 738.343 143.981 747.293 147.751C751.341 149.544 754.992 152.124 758.033 155.341C762.893 160.391 767.033 166.131 771.523 171.631C773.933 167.781 776.123 163.681 778.883 160.021C781.81 156.13 785.058 152.491 788.593 149.141C792.323 145.641 796.923 145.021 801.593 147.361C806.263 149.701 807.593 153.981 806.993 158.901C805.913 167.331 802.503 174.961 798.143 182.131C795.103 187.081 791.513 191.721 788.303 196.331Z" fill="#E1A7BC" stroke="white" stroke-width="0.15" stroke-miterlimit="10"/>
<path d="M693.345 259.93C697.735 268.22 702.345 276.58 706.615 285.09C709.225 290.24 711.035 295.7 710.695 301.64C710.245 309.75 702.925 314.96 695.345 312.02C691.719 310.606 688.409 308.489 685.605 305.79C680.335 300.66 675.605 294.95 670.435 289.18C669.893 290.216 669.288 291.218 668.625 292.18C664.515 297.47 660.575 302.92 656.115 307.89C654.023 309.946 651.484 311.49 648.695 312.4C641.435 315.11 635.205 310.81 634.935 303.04C634.804 296.025 636.994 289.163 641.165 283.52C645.305 277.62 650.165 272.261 654.655 266.821C649.725 257.411 644.185 247.58 639.415 237.4C637.331 232.876 636.11 228.003 635.815 223.031C635.255 213.311 643.395 207.58 652.335 211.35C656.384 213.147 660.038 215.726 663.085 218.94C667.945 223.99 672.085 229.73 676.575 235.23C678.985 231.38 681.165 227.28 683.935 223.62C686.865 219.731 690.113 216.092 693.645 212.741C697.365 209.241 701.975 208.621 706.645 210.97C711.315 213.32 712.645 217.59 712.045 222.5C710.965 230.93 707.555 238.57 703.195 245.73C700.155 250.69 696.565 255.32 693.345 259.93Z" fill="#E1A7BC" stroke="white" stroke-width="0.15" stroke-miterlimit="10"/>
<path d="M1132.27 65.4101C1136.66 73.7001 1141.27 82.06 1145.54 90.56C1148.15 95.72 1149.95 101.17 1149.62 107.11C1149.17 115.23 1141.84 120.44 1134.27 117.5C1130.65 116.08 1127.34 113.964 1124.52 111.27C1119.26 106.13 1114.52 100.42 1109.36 94.6498C1108.82 95.6866 1108.22 96.6886 1107.55 97.6498C1103.44 102.94 1099.55 108.39 1095.03 113.36C1092.94 115.412 1090.41 116.956 1087.62 117.87C1080.36 120.58 1074.13 116.27 1073.86 108.51C1073.73 101.492 1075.92 94.6262 1080.09 88.9799C1084.22 83.0899 1089.09 77.7302 1093.58 72.2802C1088.65 62.8702 1083.11 53.0498 1078.33 42.8598C1076.25 38.3382 1075.03 33.4686 1074.73 28.4999C1074.17 18.7699 1082.32 13.0402 1091.26 16.8202C1095.32 18.6094 1098.97 21.1856 1102.01 24.3998C1106.87 29.4598 1111.01 35.1899 1115.5 40.6899C1117.9 36.8499 1120.09 32.7498 1122.86 29.0898C1125.79 25.1929 1129.04 21.5504 1132.57 18.2001C1136.29 14.7101 1140.9 14.0901 1145.57 16.4301C1150.24 18.7701 1151.57 23.0499 1150.98 27.9599C1149.9 36.3999 1146.48 44.0299 1142.12 51.1899C1139.07 56.1599 1135.49 60.8001 1132.27 65.4101Z" fill="#E1A7BC" stroke="white" stroke-width="0.15" stroke-miterlimit="10"/>
<path d="M1009.32 128.581C1013.71 136.861 1018.32 145.231 1022.59 153.731C1025.2 158.881 1027 164.341 1026.67 170.281C1026.22 178.401 1018.9 183.611 1011.32 180.661C1007.7 179.245 1004.38 177.131 1001.57 174.441C996.312 169.301 991.572 163.591 986.412 157.821C985.872 158.858 985.267 159.86 984.602 160.821C980.492 166.111 976.552 171.561 972.092 176.541C969.996 178.59 967.458 180.13 964.672 181.041C957.412 183.761 951.182 179.451 950.912 171.681C950.782 164.666 952.972 157.804 957.142 152.161C961.272 146.261 966.142 140.901 970.632 135.461C965.702 126.051 960.162 116.221 955.392 106.041C953.307 101.517 952.086 96.6431 951.792 91.6708C951.222 81.9508 959.372 76.2211 968.312 79.9911C972.361 81.7873 976.014 84.3667 979.062 87.5809C983.922 92.6309 988.062 98.371 992.552 103.871C994.952 100.031 997.142 95.9309 999.912 92.2709C1002.84 88.3764 1006.09 84.7336 1009.62 81.3807C1013.34 77.8807 1017.95 77.2707 1022.62 79.6107C1027.29 81.9507 1028.62 86.231 1028.03 91.141C1026.95 99.581 1023.53 107.211 1019.17 114.371C1016.12 119.351 1012.54 123.981 1009.32 128.581Z" fill="#E1A7BC" stroke="white" stroke-width="0.15" stroke-miterlimit="10"/>
<path d="M906.033 81.7611C908.663 86.7611 911.413 91.761 914.033 96.851C915.723 99.8821 916.569 103.312 916.483 106.781C916.213 111.651 911.813 114.781 907.273 113.011C905.097 112.163 903.109 110.896 901.423 109.281C898.263 106.191 895.423 102.771 892.323 99.2812C891.998 99.9007 891.634 100.499 891.233 101.071C888.773 104.241 886.413 107.511 883.733 110.491C882.477 111.725 880.955 112.652 879.283 113.201C874.923 114.821 871.183 112.201 871.023 107.581C870.946 103.372 872.261 99.2562 874.763 95.871C877.243 92.331 880.183 89.111 882.853 85.871C879.853 80.221 876.573 74.3308 873.713 68.2108C872.464 65.5001 871.731 62.5803 871.553 59.601C871.213 53.761 876.103 50.321 881.463 52.601C883.893 53.6757 886.085 55.2221 887.913 57.1508C890.833 60.1508 893.313 63.6208 896.013 66.9208C897.453 64.6208 898.763 62.1608 900.423 59.9208C902.18 57.5853 904.131 55.4013 906.253 53.391C907.254 52.382 908.56 51.7311 909.968 51.5395C911.376 51.3478 912.808 51.6261 914.043 52.331C916.883 53.751 917.663 56.3309 917.283 59.2509C916.516 64.2171 914.706 68.9648 911.973 73.1811C910.113 76.2111 907.963 78.9911 906.033 81.7611Z" fill="#E1A7BC" stroke="white" stroke-width="0.09" stroke-miterlimit="10"/>
<path d="M1205.69 240.509C1210.08 248.799 1214.69 257.169 1218.96 265.669C1221.57 270.819 1223.37 276.279 1223.04 282.219C1222.59 290.329 1215.26 295.549 1207.68 292.599C1204.05 291.185 1200.74 289.068 1197.94 286.369C1192.67 281.239 1187.94 275.529 1182.77 269.759C1182.22 270.795 1181.62 271.797 1180.96 272.759C1176.86 278.049 1172.96 283.499 1168.45 288.469C1166.36 290.524 1163.82 292.067 1161.04 292.979C1153.78 295.689 1147.54 291.389 1147.28 283.619C1147.14 276.605 1149.33 269.743 1153.5 264.099C1157.64 258.199 1162.5 252.839 1166.99 247.399C1162.06 237.989 1156.53 228.159 1151.75 217.979C1149.67 213.453 1148.44 208.581 1148.15 203.609C1147.59 193.889 1155.73 188.159 1164.68 191.929C1168.72 193.728 1172.38 196.307 1175.43 199.519C1180.29 204.569 1184.43 210.309 1188.91 215.809C1191.32 211.959 1193.51 207.859 1196.28 204.199C1199.2 200.308 1202.44 196.669 1205.98 193.319C1207.65 191.637 1209.83 190.551 1212.18 190.231C1214.53 189.912 1216.92 190.375 1218.98 191.549C1223.71 193.929 1224.98 198.169 1224.38 203.079C1223.3 211.519 1219.89 219.149 1215.53 226.309C1212.5 231.269 1208.91 235.899 1205.69 240.509Z" fill="#E1A7BC" stroke="white" stroke-width="0.15" stroke-miterlimit="10"/>
<path d="M1095.28 201.58C1097.91 206.58 1100.66 211.58 1103.28 216.67C1104.95 219.702 1105.77 223.123 1105.68 226.58C1105.41 231.45 1101.01 234.58 1096.47 232.81C1094.3 231.959 1092.31 230.688 1090.62 229.071C1087.46 225.991 1084.62 222.561 1081.52 219.071C1081.2 219.689 1080.83 220.287 1080.43 220.86C1077.97 224.03 1075.61 227.3 1072.92 230.29C1071.67 231.523 1070.15 232.447 1068.48 232.99C1064.12 234.62 1060.38 232.04 1060.22 227.38C1060.14 223.168 1061.46 219.047 1063.96 215.66C1066.44 212.12 1069.38 208.91 1072.05 205.66C1069.05 200.02 1065.77 194.12 1062.91 188.01C1061.66 185.298 1060.92 182.374 1060.75 179.39C1060.41 173.56 1065.3 170.12 1070.66 172.39C1073.09 173.469 1075.28 175.014 1077.11 176.94C1080.03 179.94 1082.51 183.42 1085.2 186.72C1086.65 184.41 1087.96 181.95 1089.62 179.72C1091.38 177.382 1093.33 175.194 1095.45 173.18C1096.46 172.176 1097.76 171.528 1099.17 171.337C1100.58 171.145 1102.01 171.42 1103.24 172.12C1106.07 173.55 1106.86 176.12 1106.48 179.04C1105.71 184.009 1103.9 188.76 1101.17 192.98C1099.36 196.02 1097.21 198.81 1095.28 201.58Z" fill="#E1A7BC" stroke="white" stroke-width="0.09" stroke-miterlimit="10"/>
<path d="M1008.31 264.581C1012.7 272.861 1017.31 281.231 1021.58 289.731C1024.19 294.881 1025.99 300.341 1025.66 306.281C1025.21 314.401 1017.88 319.611 1010.31 316.661C1006.69 315.245 1003.38 313.131 1000.56 310.441C995.304 305.301 990.564 299.591 985.394 293.821C984.858 294.86 984.253 295.862 983.584 296.821C979.484 302.111 975.584 307.561 971.074 312.541C968.983 314.59 966.447 316.13 963.664 317.041C956.404 319.761 950.174 315.451 949.904 307.681C949.772 300.667 951.958 293.805 956.124 288.161C960.264 282.261 965.124 276.901 969.614 271.461C964.684 262.051 959.154 252.221 954.374 242.041C952.294 237.515 951.073 232.642 950.774 227.671C950.214 217.951 958.364 212.221 967.304 215.991C971.353 217.787 975.006 220.367 978.054 223.581C982.914 228.631 987.054 234.371 991.544 239.871C993.944 236.031 996.134 231.931 998.904 228.271C1001.83 224.372 1005.07 220.728 1008.61 217.381C1012.33 213.881 1016.94 213.271 1021.61 215.611C1026.28 217.951 1027.61 222.231 1027.02 227.141C1025.94 235.581 1022.52 243.211 1018.16 250.371C1015.11 255.351 1011.52 259.981 1008.31 264.581Z" fill="#E1A7BC" stroke="white" stroke-width="0.15" stroke-miterlimit="10"/>
<path d="M1431.24 69.8289C1435.63 78.1189 1440.24 86.479 1444.51 94.9891C1447.12 100.139 1448.92 105.599 1448.59 111.539C1448.14 119.649 1440.81 124.859 1433.24 121.919C1429.62 120.505 1426.3 118.388 1423.49 115.689C1418.22 110.559 1413.49 104.849 1408.32 99.0789C1407.79 100.117 1407.18 101.119 1406.51 102.079C1402.41 107.369 1398.51 112.819 1394 117.789C1391.91 119.843 1389.38 121.387 1386.59 122.299C1379.33 125.009 1373.1 120.709 1372.83 112.939C1372.7 105.924 1374.89 99.0621 1379.05 93.4187C1383.19 87.5187 1388.1 82.1588 1392.54 76.7088C1387.61 67.3088 1382.08 57.4791 1377.3 47.2991C1375.22 42.7736 1374 37.9007 1373.7 32.929C1373.14 23.209 1381.29 17.4788 1390.23 21.2488C1394.28 23.0476 1397.93 25.6266 1400.98 28.8387C1405.84 33.8887 1409.98 39.6287 1414.47 45.1287C1416.87 41.2787 1419.06 37.1788 1421.83 33.5188C1424.76 29.625 1428.01 25.9854 1431.54 22.639C1435.26 19.139 1439.87 18.5189 1444.54 20.8689C1449.21 23.2189 1450.54 27.4887 1449.94 32.3987C1448.87 40.8287 1445.45 48.4687 1441.09 55.6287C1438.04 60.5787 1434.45 65.2189 1431.24 69.8289Z" fill="#E1A7BC" stroke="white" stroke-width="0.15" stroke-miterlimit="10"/>
<path d="M1300.31 133.579C1302.94 138.579 1305.68 143.579 1308.31 148.669C1309.96 151.705 1310.78 155.125 1310.68 158.579C1310.41 163.449 1306.01 166.579 1301.46 164.809C1299.29 163.959 1297.31 162.692 1295.62 161.079C1292.46 157.999 1289.62 154.569 1286.52 151.079C1286.19 151.697 1285.83 152.294 1285.43 152.869C1282.97 156.039 1280.6 159.309 1277.92 162.289C1276.67 163.528 1275.15 164.456 1273.47 164.999C1269.12 166.629 1265.38 163.999 1265.22 159.379C1265.14 155.171 1266.45 151.055 1268.95 147.669C1271.44 144.129 1274.38 140.909 1277.05 137.669C1274.05 132.019 1270.77 126.129 1267.9 120.019C1266.66 117.303 1265.93 114.381 1265.74 111.399C1265.41 105.559 1270.29 102.119 1275.66 104.399C1278.09 105.474 1280.28 107.021 1282.11 108.949C1285.02 111.949 1287.51 115.429 1290.2 118.719C1291.64 116.419 1292.96 113.959 1294.62 111.719C1296.37 109.382 1298.32 107.197 1300.44 105.189C1301.44 104.181 1302.75 103.532 1304.16 103.34C1305.57 103.149 1307 103.426 1308.23 104.129C1311.07 105.559 1311.85 108.129 1311.48 111.049C1310.72 116.017 1308.9 120.766 1306.16 124.979C1304.39 128.049 1302.23 130.829 1300.31 133.579Z" fill="#E1A7BC" stroke="white" stroke-width="0.09" stroke-miterlimit="10"/>
<path d="M1504.68 244.939C1509.07 253.229 1513.68 261.589 1517.95 270.089C1520.56 275.249 1522.37 280.7 1522.04 286.64C1521.58 294.76 1514.26 299.97 1506.68 297.03C1503.06 295.612 1499.75 293.495 1496.94 290.8C1491.67 285.66 1486.94 279.95 1481.77 274.18C1481.23 275.216 1480.63 276.218 1479.96 277.18C1475.85 282.47 1471.96 287.92 1467.45 292.89C1465.36 294.946 1462.82 296.489 1460.03 297.399C1452.77 300.109 1446.54 295.799 1446.28 288.039C1446.14 281.021 1448.33 274.155 1452.5 268.51C1456.64 262.62 1461.5 257.26 1465.99 251.81C1461.06 242.4 1455.52 232.58 1450.75 222.39C1448.67 217.87 1447.45 212.999 1447.15 208.03C1446.59 198.3 1454.73 192.57 1463.68 196.35C1467.73 198.145 1471.38 200.721 1474.42 203.93C1479.28 208.99 1483.42 214.73 1487.91 220.22C1490.32 216.38 1492.5 212.28 1495.27 208.62C1498.2 204.725 1501.45 201.082 1504.98 197.729C1508.71 194.239 1513.31 193.619 1517.98 195.959C1522.65 198.299 1523.98 202.58 1523.38 207.49C1522.3 215.93 1518.89 223.56 1514.53 230.72C1511.46 235.69 1507.87 240.329 1504.68 244.939Z" fill="#E1A7BC" stroke="white" stroke-width="0.15" stroke-miterlimit="10"/>
<path d="M1402.23 205.42C1406.62 213.71 1411.23 222.07 1415.5 230.57C1418.11 235.73 1419.91 241.18 1419.58 247.12C1419.13 255.24 1411.8 260.45 1404.23 257.51C1400.61 256.093 1397.29 253.976 1394.48 251.28C1389.21 246.14 1384.48 240.43 1379.31 234.66C1378.78 235.699 1378.17 236.701 1377.5 237.66C1373.4 242.95 1369.5 248.4 1364.99 253.37C1362.9 255.422 1360.37 256.965 1357.58 257.88C1350.32 260.59 1344.09 256.28 1343.82 248.52C1343.69 241.503 1345.87 234.637 1350.04 228.99C1354.18 223.1 1359.09 217.74 1363.53 212.29C1358.6 202.88 1353.07 193.06 1348.29 182.87C1346.21 178.348 1344.99 173.479 1344.69 168.51C1344.13 158.78 1352.28 153.05 1361.22 156.83C1365.27 158.625 1368.92 161.201 1371.97 164.41C1376.83 169.47 1380.97 175.21 1385.46 180.7C1387.86 176.86 1390.05 172.76 1392.82 169.1C1395.74 165.201 1398.99 161.558 1402.53 158.21C1406.25 154.72 1410.86 154.1 1415.53 156.44C1420.2 158.78 1421.53 163.06 1420.93 167.97C1419.86 176.41 1416.44 184.04 1412.08 191.2C1409.03 196.17 1405.44 200.81 1402.23 205.42Z" fill="#E1A7BC" stroke="white" stroke-width="0.15" stroke-miterlimit="10"/>
<path d="M1307.28 269.02C1311.67 277.31 1316.28 285.67 1320.54 294.17C1323.16 299.33 1324.96 304.79 1324.63 310.73C1324.18 318.84 1316.85 324.05 1309.27 321.11C1305.65 319.693 1302.34 317.576 1299.53 314.88C1294.26 309.75 1289.53 304.03 1284.36 298.27C1283.82 299.306 1283.22 300.308 1282.55 301.27C1278.45 306.56 1274.55 312.01 1270.04 316.98C1267.95 319.035 1265.42 320.579 1262.63 321.491C1255.37 324.201 1249.13 319.9 1248.87 312.13C1248.73 305.115 1250.92 298.251 1255.09 292.61C1259.23 286.71 1264.09 281.35 1268.58 275.9C1263.65 266.5 1258.11 256.67 1253.34 246.48C1251.26 241.959 1250.04 237.089 1249.74 232.12C1249.18 222.4 1257.32 216.66 1266.27 220.44C1270.32 222.235 1273.98 224.815 1277.02 228.031C1281.87 233.031 1286.02 238.821 1290.5 244.321C1292.91 240.471 1295.1 236.37 1297.87 232.71C1300.79 228.817 1304.04 225.177 1307.57 221.83C1311.3 218.33 1315.9 217.711 1320.57 220.051C1325.24 222.391 1326.57 226.67 1325.97 231.58C1324.89 240.02 1321.48 247.651 1317.12 254.821C1314.08 259.771 1310.49 264.41 1307.28 269.02Z" fill="#E1A7BC" stroke="white" stroke-width="0.15" stroke-miterlimit="10"/>
<path d="M183.375 657.36C187.765 665.65 192.375 674.01 196.645 682.52C199.255 687.67 201.065 693.131 200.735 699.071C200.275 707.181 192.955 712.39 185.375 709.45C181.749 708.037 178.439 705.919 175.635 703.22C170.365 698.09 165.635 692.38 160.465 686.61C159.923 687.646 159.318 688.648 158.655 689.61C154.545 694.9 150.655 700.351 146.145 705.321C144.055 707.379 141.514 708.922 138.725 709.83C131.465 712.54 125.235 708.24 124.975 700.47C124.836 693.456 127.023 686.592 131.195 680.95C135.335 675.05 140.195 669.69 144.685 664.25C139.755 654.84 134.215 645.01 129.445 634.83C127.361 630.306 126.14 625.433 125.845 620.46C125.285 610.74 133.425 605.011 142.375 608.781C146.419 610.58 150.069 613.159 153.115 616.37C157.975 621.37 162.115 627.16 166.605 632.66C169.015 628.81 171.195 624.661 173.965 621.051C176.895 617.162 180.143 613.522 183.675 610.17C187.405 606.67 192.005 606.05 196.675 608.4C201.345 610.75 202.675 615.02 202.075 619.93C200.995 628.36 197.585 636 193.225 643.16C190.185 648.12 186.595 652.75 183.375 657.36Z" fill="#E1A7BC" stroke="white" stroke-width="0.15" stroke-miterlimit="10"/>
<path d="M52.4439 721.13C55.0839 726.13 57.8239 731.13 60.4439 736.22C62.1336 739.252 62.9796 742.68 62.8939 746.15C62.6239 751.02 58.2339 754.15 53.6839 752.38C51.5094 751.53 49.5221 750.263 47.8339 748.65C44.6739 745.57 41.8339 742.14 38.7339 738.65C38.4094 739.267 38.0487 739.865 37.6539 740.44C35.1839 743.61 32.8239 746.88 30.1439 749.86C28.8896 751.102 27.3623 752.033 25.6839 752.58C21.3339 754.21 17.5939 751.58 17.4339 746.96C17.3456 742.751 18.6576 738.632 21.1639 735.25C23.6439 731.71 26.5939 728.5 29.2639 725.25C26.2639 719.6 22.9839 713.71 20.1139 707.6C18.866 704.885 18.1335 701.962 17.9539 698.98C17.6139 693.14 22.5039 689.7 27.8739 691.98C30.3039 693.055 32.4962 694.602 34.3239 696.53C37.2339 699.53 39.7239 703.01 42.4139 706.3C43.8539 704 45.1639 701.54 46.8339 699.3C48.5853 696.963 50.5323 694.778 52.6539 692.77C53.6549 691.761 54.9607 691.11 56.3691 690.918C57.7774 690.727 59.2096 691.005 60.4439 691.71C63.2839 693.14 64.0639 695.71 63.6839 698.63C62.925 703.601 61.1147 708.354 58.3739 712.57C56.5239 715.58 54.3739 718.36 52.4439 721.13Z" fill="#E1A7BC" stroke="white" stroke-width="0.09" stroke-miterlimit="10"/>
<path d="M498.345 662.03C502.735 670.31 507.345 678.68 511.615 687.18C514.225 692.33 516.025 697.79 515.695 703.73C515.245 711.85 507.915 717.06 500.345 714.11C496.72 712.693 493.408 710.581 490.595 707.89C485.335 702.75 480.595 697.04 475.435 691.27C474.895 692.307 474.291 693.309 473.625 694.27C469.515 699.56 465.575 705.01 461.105 709.98C459.016 712.034 456.48 713.578 453.695 714.49C446.435 717.2 440.205 712.9 439.935 705.13C439.803 698.116 441.99 691.254 446.155 685.61C450.295 679.71 455.155 674.35 459.655 668.91C454.715 659.5 449.185 649.67 444.405 639.49C442.325 634.965 441.105 630.092 440.805 625.12C440.245 615.4 448.395 609.67 457.335 613.44C461.384 615.236 465.038 617.816 468.085 621.03C472.945 626.03 477.085 631.82 481.575 637.32C483.975 633.48 486.165 629.38 488.935 625.72C491.86 621.823 495.108 618.18 498.645 614.83C502.365 611.33 506.975 610.72 511.645 613.06C516.315 615.4 517.645 619.68 517.055 624.59C515.975 633.03 512.555 640.66 508.195 647.82C505.145 652.78 501.565 657.41 498.345 662.03Z" fill="#E1A7BC" stroke="white" stroke-width="0.15" stroke-miterlimit="10"/>
<path d="M375.392 725.21C379.782 733.5 384.392 741.86 388.662 750.36C391.272 755.52 393.072 760.98 392.742 766.92C392.292 775.03 384.962 780.24 377.392 777.3C373.764 775.884 370.451 773.767 367.642 771.07C362.382 765.94 357.642 760.22 352.482 754.46C351.94 755.495 351.335 756.497 350.672 757.46C346.562 762.75 342.622 768.2 338.152 773.17C336.063 775.224 333.527 776.768 330.742 777.68C323.482 780.39 317.252 776.09 316.982 768.32C316.851 761.305 319.041 754.443 323.212 748.8C327.342 742.9 332.212 737.54 336.702 732.09C331.772 722.69 326.232 712.86 321.462 702.67C319.376 698.15 318.155 693.279 317.862 688.31C317.292 678.59 325.442 672.86 334.382 676.63C338.431 678.426 342.084 681.006 345.132 684.22C349.992 689.27 354.132 695.01 358.622 700.51C361.022 696.66 363.212 692.56 365.982 688.9C368.909 685.009 372.158 681.369 375.692 678.02C379.412 674.52 384.022 673.9 388.692 676.24C393.362 678.58 394.692 682.87 394.102 687.78C393.022 696.21 389.602 703.85 385.242 711.01C382.192 715.96 378.612 720.58 375.392 725.21Z" fill="#E1A7BC" stroke="white" stroke-width="0.15" stroke-miterlimit="10"/>
<path d="M272.103 678.379C274.733 683.379 277.483 688.38 280.103 693.47C281.794 696.501 282.64 699.93 282.553 703.399C282.283 708.269 277.883 711.399 273.343 709.629C271.167 708.778 269.179 707.507 267.493 705.889C264.333 702.809 261.493 699.379 258.393 695.889C258.071 696.51 257.707 697.108 257.303 697.679C254.843 700.859 252.483 704.129 249.803 707.109C248.547 708.34 247.025 709.264 245.353 709.809C240.993 711.439 237.253 708.859 237.093 704.199C237.015 699.991 238.33 695.874 240.833 692.49C243.313 688.95 246.253 685.73 248.923 682.49C245.923 676.85 242.643 670.949 239.783 664.839C238.533 662.125 237.8 659.202 237.623 656.22C237.283 650.39 242.173 646.95 247.533 649.22C249.963 650.294 252.155 651.841 253.983 653.769C256.903 656.769 259.383 660.239 262.083 663.539C263.523 661.229 264.833 658.769 266.493 656.539C268.251 654.204 270.201 652.02 272.323 650.01C273.325 649.002 274.63 648.351 276.037 648.158C277.445 647.965 278.877 648.239 280.113 648.939C282.953 650.369 283.733 652.939 283.353 655.859C282.587 660.829 280.777 665.58 278.043 669.8C276.183 672.83 274.033 675.579 272.103 678.379Z" fill="#E1A7BC" stroke="white" stroke-width="0.09" stroke-miterlimit="10"/>
<path d="M616.353 643.189C618.983 648.189 621.733 653.189 624.353 658.279C626.039 661.312 626.884 664.74 626.803 668.209C626.533 673.079 622.133 676.209 617.583 674.439C615.412 673.589 613.428 672.321 611.743 670.709C608.583 667.629 605.743 664.199 602.643 660.709C602.315 661.326 601.951 661.924 601.553 662.499C599.093 665.669 596.723 668.939 594.043 671.919C592.795 673.156 591.274 674.084 589.603 674.629C585.243 676.259 581.503 673.629 581.343 669.009C581.263 664.8 582.578 660.682 585.083 657.299C587.563 653.759 590.503 650.549 593.173 647.299C590.173 641.649 586.893 635.759 584.023 629.649C582.78 626.933 582.048 624.011 581.863 621.029C581.533 615.189 586.413 611.749 591.783 614.029C594.213 615.104 596.406 616.65 598.233 618.579C601.143 621.579 603.633 625.059 606.323 628.349C607.773 626.049 609.083 623.589 610.743 621.349C612.498 619.014 614.445 616.83 616.563 614.819C617.567 613.811 618.874 613.161 620.284 612.969C621.694 612.778 623.127 613.055 624.363 613.759C627.193 615.189 627.983 617.759 627.603 620.679C626.835 625.648 625.026 630.398 622.293 634.619C620.433 637.639 618.283 640.419 616.353 643.189Z" fill="#E1A7BC" stroke="white" stroke-width="0.09" stroke-miterlimit="10"/>
<path d="M1746.2 680.501C1750.59 688.781 1755.2 697.151 1759.47 705.651C1762.08 710.801 1763.89 716.261 1763.55 722.201C1763.1 730.321 1755.78 735.531 1748.2 732.581C1744.58 731.167 1741.27 729.053 1738.46 726.361C1733.19 721.221 1728.46 715.511 1723.29 709.741C1722.75 710.778 1722.15 711.78 1721.48 712.741C1717.37 718.031 1713.48 723.481 1708.97 728.451C1706.88 730.507 1704.34 732.05 1701.55 732.961C1694.29 735.671 1688.06 731.371 1687.79 723.601C1687.67 716.586 1689.86 709.724 1694.02 704.081C1698.16 698.181 1703.02 692.821 1707.51 687.381C1702.58 677.971 1697.04 668.141 1692.27 657.961C1690.19 653.433 1688.97 648.556 1688.68 643.581C1688.12 633.861 1696.26 628.131 1705.2 631.901C1709.25 633.697 1712.91 636.277 1715.95 639.491C1720.81 644.541 1724.95 650.281 1729.44 655.781C1731.85 651.931 1734.03 647.841 1736.8 644.181C1739.73 640.287 1742.98 636.644 1746.51 633.291C1750.23 629.791 1754.84 629.181 1759.51 631.521C1764.18 633.861 1765.51 638.141 1764.91 643.051C1763.83 651.491 1760.42 659.121 1756.06 666.281C1753.01 671.251 1749.42 675.881 1746.2 680.501Z" fill="#E1A7BC" stroke="white" stroke-width="0.15" stroke-miterlimit="10"/>
<path d="M1623.25 743.681C1627.64 751.971 1632.25 760.331 1636.52 768.831C1639.13 773.991 1640.94 779.451 1640.61 785.391C1640.15 793.501 1632.83 798.711 1625.25 795.771C1621.63 794.357 1618.32 792.24 1615.51 789.541C1610.24 784.411 1605.51 778.691 1600.34 772.931C1599.8 773.966 1599.2 774.968 1598.53 775.931C1594.42 781.221 1590.53 786.671 1586.02 791.641C1583.93 793.699 1581.39 795.242 1578.6 796.151C1571.34 798.861 1565.11 794.561 1564.85 786.791C1564.71 779.776 1566.9 772.912 1571.07 767.271C1575.21 761.371 1580.07 756.011 1584.56 750.561C1579.63 741.161 1574.09 731.331 1569.32 721.141C1567.24 716.621 1566.02 711.75 1565.72 706.781C1565.16 697.061 1573.3 691.331 1582.25 695.101C1586.3 696.896 1589.95 699.476 1592.99 702.691C1597.85 707.741 1601.99 713.481 1606.48 718.981C1608.89 715.131 1611.07 711.031 1613.84 707.371C1616.77 703.48 1620.02 699.84 1623.55 696.491C1627.28 692.991 1631.88 692.371 1636.55 694.711C1641.22 697.051 1642.55 701.331 1641.95 706.251C1640.87 714.681 1637.46 722.311 1633.1 729.481C1630.06 734.431 1626.47 739.071 1623.25 743.681Z" fill="#E1A7BC" stroke="white" stroke-width="0.15" stroke-miterlimit="10"/>
<path d="M1519.97 696.85C1522.61 701.85 1525.35 706.85 1527.97 711.94C1529.66 714.971 1530.5 718.401 1530.42 721.87C1530.15 726.74 1525.76 729.87 1521.21 728.1C1519.03 727.246 1517.04 725.976 1515.36 724.36C1512.2 721.28 1509.36 717.85 1506.26 714.36C1505.93 714.979 1505.57 715.577 1505.18 716.15C1502.71 719.33 1500.35 722.6 1497.67 725.58C1496.41 726.811 1494.89 727.735 1493.22 728.28C1488.87 729.91 1485.13 727.33 1484.97 722.67C1484.88 718.461 1486.19 714.343 1488.7 710.96C1491.18 707.42 1494.13 704.2 1496.8 700.96C1493.8 695.32 1490.52 689.42 1487.65 683.31C1486.39 680.596 1485.66 677.673 1485.49 674.69C1485.15 668.86 1490.04 665.42 1495.41 667.69C1497.84 668.765 1500.03 670.312 1501.86 672.24C1504.77 675.24 1507.26 678.71 1509.95 682.01C1511.39 679.7 1512.7 677.24 1514.37 675.01C1516.12 672.673 1518.06 670.488 1520.19 668.48C1521.19 667.473 1522.49 666.822 1523.9 666.629C1525.31 666.435 1526.74 666.71 1527.98 667.41C1530.82 668.84 1531.6 671.41 1531.22 674.33C1530.46 679.302 1528.65 684.054 1525.91 688.27C1524.05 691.3 1521.9 694.08 1519.97 696.85Z" fill="#E1A7BC" stroke="white" stroke-width="0.09" stroke-miterlimit="10"/>
<path d="M817.315 666.75C821.695 675.03 826.315 683.4 830.575 691.9C833.185 697.05 834.995 702.511 834.665 708.451C834.205 716.571 826.885 721.78 819.305 718.83C815.681 717.416 812.372 715.303 809.565 712.61C804.295 707.47 799.565 701.761 794.395 695.991C793.854 697.027 793.25 698.029 792.585 698.991C788.475 704.291 784.585 709.73 780.075 714.71C777.984 716.765 775.443 718.306 772.655 719.21C765.405 721.93 759.165 717.62 758.905 709.85C758.767 702.836 760.954 695.972 765.125 690.33C769.265 684.43 774.125 679.07 778.615 673.63C773.685 664.22 768.145 654.39 763.375 644.21C761.29 639.69 760.069 634.82 759.775 629.85C759.215 620.12 767.355 614.391 776.305 618.161C780.349 619.959 783.999 622.539 787.045 625.75C791.905 630.8 796.045 636.54 800.535 642.04C802.945 638.2 805.135 634.1 807.895 630.44C810.822 626.546 814.07 622.903 817.605 619.551C821.335 616.051 825.935 615.441 830.605 617.781C835.275 620.121 836.605 624.4 836.005 629.31C834.925 637.75 831.515 645.38 827.155 652.54C824.115 657.5 820.525 662.14 817.315 666.75Z" fill="#E1A7BC" stroke="white" stroke-width="0.15" stroke-miterlimit="10"/>
<path d="M686.375 730.511C689.015 735.511 691.755 740.511 694.375 745.601C696.066 748.636 696.912 752.068 696.825 755.541C696.555 760.411 692.165 763.541 687.615 761.771C685.44 760.917 683.452 759.647 681.765 758.031C678.605 754.951 675.765 751.521 672.665 748.031C672.342 748.65 671.982 749.248 671.585 749.821C669.115 752.991 666.755 756.261 664.075 759.251C662.819 760.482 661.296 761.406 659.625 761.951C655.275 763.581 651.535 761.001 651.375 756.341C651.295 752.13 652.606 748.011 655.105 744.621C657.585 741.081 660.535 737.871 663.205 734.621C660.205 728.981 656.925 723.081 654.055 716.971C652.804 714.258 652.072 711.334 651.895 708.351C651.555 702.521 656.445 699.081 661.815 701.351C664.243 702.429 666.434 703.975 668.265 705.901C671.175 708.901 673.665 712.381 676.355 715.681C677.795 713.371 679.105 710.911 680.775 708.681C682.526 706.34 684.473 704.153 686.595 702.141C687.598 701.137 688.904 700.489 690.311 700.298C691.718 700.106 693.149 700.381 694.385 701.081C697.225 702.511 698.005 705.081 697.625 708.001C696.866 712.972 695.055 717.725 692.315 721.941C690.455 724.961 688.305 727.751 686.375 730.511Z" fill="#E1A7BC" stroke="white" stroke-width="0.09" stroke-miterlimit="10"/>
<path d="M1132.27 671.41C1136.66 679.7 1141.27 688.06 1145.54 696.56C1148.15 701.72 1149.95 707.17 1149.62 713.11C1149.17 721.23 1141.84 726.44 1134.27 723.5C1130.65 722.08 1127.34 719.964 1124.52 717.27C1119.26 712.13 1114.52 706.42 1109.36 700.65C1108.82 701.687 1108.22 702.689 1107.55 703.65C1103.44 708.94 1099.55 714.39 1095.03 719.36C1092.94 721.412 1090.41 722.956 1087.62 723.87C1080.36 726.58 1074.13 722.27 1073.86 714.51C1073.73 707.492 1075.92 700.626 1080.09 694.98C1084.22 689.09 1089.09 683.73 1093.58 678.28C1088.65 668.87 1083.11 659.05 1078.33 648.86C1076.25 644.338 1075.03 639.469 1074.73 634.5C1074.17 624.77 1082.32 619.04 1091.26 622.82C1095.32 624.609 1098.97 627.186 1102.01 630.4C1106.87 635.46 1111.01 641.19 1115.5 646.69C1117.9 642.85 1120.09 638.75 1122.86 635.09C1125.79 631.193 1129.04 627.55 1132.57 624.2C1136.29 620.71 1140.9 620.09 1145.57 622.43C1150.24 624.77 1151.57 629.05 1150.98 633.96C1149.9 642.4 1146.48 650.03 1142.12 657.19C1139.07 662.16 1135.49 666.8 1132.27 671.41Z" fill="#E1A7BC" stroke="white" stroke-width="0.15" stroke-miterlimit="10"/>
<path d="M1009.32 734.581C1013.71 742.861 1018.32 751.231 1022.59 759.731C1025.2 764.881 1027 770.341 1026.67 776.281C1026.22 784.401 1018.9 789.611 1011.32 786.661C1007.7 785.245 1004.38 783.131 1001.57 780.441C996.312 775.301 991.572 769.591 986.412 763.821C985.872 764.858 985.267 765.86 984.602 766.821C980.492 772.111 976.552 777.561 972.092 782.541C969.996 784.59 967.458 786.13 964.672 787.041C957.412 789.761 951.182 785.451 950.912 777.681C950.782 770.666 952.972 763.804 957.142 758.161C961.272 752.261 966.142 746.901 970.632 741.461C965.702 732.051 960.162 722.221 955.392 712.041C953.307 707.517 952.086 702.643 951.792 697.671C951.222 687.951 959.372 682.221 968.312 685.991C972.361 687.787 976.014 690.367 979.062 693.581C983.922 698.631 988.062 704.371 992.552 709.871C994.952 706.031 997.142 701.931 999.912 698.271C1002.84 694.376 1006.09 690.734 1009.62 687.381C1013.34 683.881 1017.95 683.271 1022.62 685.611C1027.29 687.951 1028.62 692.231 1028.03 697.141C1026.95 705.581 1023.53 713.211 1019.17 720.371C1016.12 725.351 1012.54 729.981 1009.32 734.581Z" fill="#E1A7BC" stroke="white" stroke-width="0.15" stroke-miterlimit="10"/>
<path d="M906.033 687.761C908.663 692.761 911.413 697.761 914.033 702.851C915.723 705.882 916.569 709.312 916.483 712.781C916.213 717.651 911.813 720.781 907.273 719.011C905.097 718.163 903.109 716.896 901.423 715.281C898.263 712.191 895.423 708.771 892.323 705.281C891.998 705.901 891.634 706.499 891.233 707.071C888.773 710.241 886.413 713.511 883.733 716.491C882.477 717.725 880.955 718.652 879.283 719.201C874.923 720.821 871.183 718.201 871.023 713.581C870.946 709.372 872.261 705.256 874.763 701.871C877.243 698.331 880.183 695.111 882.853 691.871C879.853 686.221 876.573 680.331 873.713 674.211C872.464 671.5 871.731 668.58 871.553 665.601C871.213 659.761 876.103 656.321 881.463 658.601C883.893 659.676 886.085 661.222 887.913 663.151C890.833 666.151 893.313 669.621 896.013 672.921C897.453 670.621 898.763 668.161 900.423 665.921C902.18 663.585 904.131 661.401 906.253 659.391C907.254 658.382 908.56 657.731 909.968 657.539C911.376 657.348 912.808 657.626 914.043 658.331C916.883 659.751 917.663 662.331 917.283 665.251C916.516 670.217 914.706 674.965 911.973 679.181C910.113 682.211 907.963 684.991 906.033 687.761Z" fill="#E1A7BC" stroke="white" stroke-width="0.09" stroke-miterlimit="10"/>
<path d="M1431.24 675.829C1435.63 684.119 1440.24 692.479 1444.51 700.989C1447.12 706.139 1448.92 711.599 1448.59 717.539C1448.14 725.649 1440.81 730.859 1433.24 727.919C1429.62 726.505 1426.3 724.388 1423.49 721.689C1418.22 716.559 1413.49 710.849 1408.32 705.079C1407.79 706.117 1407.18 707.119 1406.51 708.079C1402.41 713.369 1398.51 718.819 1394 723.789C1391.91 725.843 1389.38 727.387 1386.59 728.299C1379.33 731.009 1373.1 726.709 1372.83 718.939C1372.7 711.924 1374.89 705.062 1379.05 699.419C1383.19 693.519 1388.1 688.159 1392.54 682.709C1387.61 673.309 1382.08 663.479 1377.3 653.299C1375.22 648.774 1374 643.901 1373.7 638.929C1373.14 629.209 1381.29 623.479 1390.23 627.249C1394.28 629.048 1397.93 631.627 1400.98 634.839C1405.84 639.889 1409.98 645.629 1414.47 651.129C1416.87 647.279 1419.06 643.179 1421.83 639.519C1424.76 635.625 1428.01 631.985 1431.54 628.639C1435.26 625.139 1439.87 624.519 1444.54 626.869C1449.21 629.219 1450.54 633.489 1449.94 638.399C1448.87 646.829 1445.45 654.469 1441.09 661.629C1438.04 666.579 1434.45 671.219 1431.24 675.829Z" fill="#E1A7BC" stroke="white" stroke-width="0.15" stroke-miterlimit="10"/>
<path d="M1250.31 697.579C1252.94 702.579 1255.68 707.579 1258.31 712.669C1259.96 715.705 1260.78 719.125 1260.68 722.579C1260.41 727.449 1256.01 730.579 1251.46 728.809C1249.29 727.959 1247.31 726.692 1245.62 725.079C1242.46 721.999 1239.62 718.569 1236.52 715.079C1236.19 715.697 1235.83 716.294 1235.43 716.869C1232.97 720.039 1230.6 723.309 1227.92 726.289C1226.67 727.528 1225.15 728.456 1223.47 728.999C1219.12 730.629 1215.38 727.999 1215.22 723.379C1215.14 719.171 1216.45 715.055 1218.95 711.669C1221.44 708.129 1224.38 704.909 1227.05 701.669C1224.05 696.019 1220.77 690.129 1217.9 684.019C1216.66 681.303 1215.93 678.381 1215.74 675.399C1215.41 669.559 1220.29 666.119 1225.66 668.399C1228.09 669.474 1230.28 671.021 1232.11 672.949C1235.02 675.949 1237.51 679.429 1240.2 682.719C1241.64 680.419 1242.96 677.959 1244.62 675.719C1246.37 673.382 1248.32 671.197 1250.44 669.189C1251.44 668.181 1252.75 667.532 1254.16 667.34C1255.57 667.149 1257 667.426 1258.23 668.129C1261.07 669.559 1261.85 672.129 1261.48 675.049C1260.72 680.017 1258.9 684.766 1256.16 688.979C1254.39 692.049 1252.23 694.829 1250.31 697.579Z" fill="#E1A7BC" stroke="white" stroke-width="0.09" stroke-miterlimit="10"/>
<path d="M183.375 364.36C187.765 372.65 192.375 381.01 196.645 389.52C199.255 394.67 201.065 400.131 200.735 406.071C200.275 414.181 192.955 419.39 185.375 416.45C181.749 415.037 178.439 412.919 175.635 410.22C170.365 405.09 165.635 399.38 160.465 393.61C159.923 394.646 159.318 395.648 158.655 396.61C154.545 401.9 150.655 407.351 146.145 412.321C144.055 414.379 141.514 415.922 138.725 416.83C131.465 419.54 125.235 415.24 124.975 407.47C124.836 400.456 127.023 393.592 131.195 387.95C135.335 382.05 140.195 376.69 144.685 371.25C139.755 361.84 134.215 352.01 129.445 341.83C127.361 337.306 126.14 332.433 125.845 327.46C125.285 317.74 133.425 312.011 142.375 315.781C146.419 317.58 150.069 320.159 153.115 323.37C157.975 328.37 162.115 334.16 166.605 339.66C169.015 335.81 171.195 331.661 173.965 328.051C176.895 324.162 180.143 320.522 183.675 317.17C187.405 313.67 192.005 313.05 196.675 315.4C201.345 317.75 202.675 322.02 202.075 326.93C200.995 335.36 197.585 343 193.225 350.16C190.185 355.12 186.595 359.75 183.375 364.36Z" fill="#E1A7BC" stroke="white" stroke-width="0.15" stroke-miterlimit="10"/>
<path d="M52.4439 428.13C55.0839 433.13 57.8239 438.13 60.4439 443.22C62.1336 446.252 62.9796 449.68 62.8939 453.15C62.6239 458.02 58.2339 461.15 53.6839 459.38C51.5094 458.53 49.5221 457.263 47.8339 455.65C44.6739 452.57 41.8339 449.14 38.7339 445.65C38.4094 446.267 38.0487 446.865 37.6539 447.44C35.1839 450.61 32.8239 453.88 30.1439 456.86C28.8896 458.102 27.3623 459.033 25.6839 459.58C21.3339 461.21 17.5939 458.58 17.4339 453.96C17.3456 449.751 18.6576 445.632 21.1639 442.25C23.6439 438.71 26.5939 435.5 29.2639 432.25C26.2639 426.6 22.9839 420.71 20.1139 414.6C18.866 411.885 18.1335 408.962 17.9539 405.98C17.6139 400.14 22.5039 396.7 27.8739 398.98C30.3039 400.055 32.4962 401.602 34.3239 403.53C37.2339 406.53 39.7239 410.01 42.4139 413.3C43.8539 411 45.1639 408.54 46.8339 406.3C48.5853 403.963 50.5323 401.778 52.6539 399.77C53.6549 398.761 54.9607 398.11 56.3691 397.918C57.7774 397.727 59.2096 398.005 60.4439 398.71C63.2839 400.14 64.0639 402.71 63.6839 405.63C62.925 410.601 61.1147 415.354 58.3739 419.57C56.5239 422.58 54.3739 425.36 52.4439 428.13Z" fill="#E1A7BC" stroke="white" stroke-width="0.09" stroke-miterlimit="10"/>
<path d="M256.794 539.47C261.184 547.76 265.794 556.12 270.064 564.62C272.674 569.78 274.474 575.23 274.144 581.18C273.694 589.29 266.364 594.5 258.794 591.56C255.169 590.14 251.856 588.024 249.044 585.33C243.784 580.19 239.044 574.48 233.884 568.71C233.344 569.747 232.74 570.749 232.074 571.71C227.964 577 224.024 582.45 219.554 587.42C217.463 589.472 214.928 591.016 212.144 591.93C204.884 594.64 198.654 590.33 198.384 582.57C198.254 575.552 200.444 568.686 204.614 563.04C208.744 557.15 213.614 551.79 218.104 546.34C213.174 536.93 207.634 527.11 202.864 516.92C200.78 512.399 199.556 507.529 199.254 502.56C198.694 492.84 206.844 487.1 215.784 490.88C219.835 492.673 223.489 495.253 226.534 498.47C231.394 503.52 235.534 509.26 240.024 514.75C242.424 510.91 244.614 506.81 247.384 503.15C250.309 499.256 253.557 495.617 257.094 492.27C260.814 488.77 265.424 488.15 270.094 490.49C274.764 492.83 276.094 497.11 275.504 502.02C274.424 510.46 271.004 518.09 266.644 525.25C263.594 530.22 260.014 534.86 256.794 539.47Z" fill="#E1A7BC" stroke="white" stroke-width="0.15" stroke-miterlimit="10"/>
<path d="M154.363 499.951C158.753 508.241 163.363 516.601 167.633 525.101C170.243 530.261 172.053 535.711 171.723 541.651C171.263 549.771 163.943 554.981 156.363 552.041C152.739 550.623 149.43 548.506 146.623 545.811C141.353 540.671 136.623 534.961 131.453 529.191C130.913 530.228 130.309 531.23 129.643 532.191C125.533 537.481 121.643 542.931 117.133 547.901C115.041 549.957 112.502 551.501 109.713 552.411C102.453 555.121 96.2233 550.811 95.9633 543.051C95.8243 536.033 98.0113 529.166 102.183 523.521C106.323 517.631 111.183 512.271 115.673 506.821C110.743 497.411 105.203 487.591 100.433 477.401C98.3475 472.881 97.1265 468.01 96.8333 463.041C96.2733 453.321 104.413 447.581 113.363 451.361C117.407 453.156 121.057 455.732 124.103 458.941C128.963 464.001 133.103 469.741 137.593 475.231C140.003 471.391 142.183 467.291 144.953 463.631C147.881 459.736 151.129 456.094 154.663 452.741C158.393 449.251 162.993 448.631 167.663 450.971C172.333 453.311 173.663 457.591 173.063 462.501C171.983 470.941 168.573 478.571 164.213 485.731C161.173 490.701 157.583 495.341 154.363 499.951Z" fill="#E1A7BC" stroke="white" stroke-width="0.15" stroke-miterlimit="10"/>
<path d="M59.4155 563.579C63.8055 571.869 68.4155 580.229 72.6855 588.729C75.2955 593.889 77.0955 599.349 76.7655 605.289C76.3155 613.399 68.9955 618.609 61.4155 615.669C57.7897 614.25 54.4773 612.133 51.6655 609.439C46.4055 604.309 41.6655 598.589 36.5055 592.829C35.9632 593.865 35.3588 594.867 34.6955 595.829C30.5855 601.119 26.6455 606.569 22.1855 611.539C20.0935 613.595 17.5538 615.139 14.7655 616.05C7.50554 618.76 1.27554 614.459 1.00554 606.689C0.874664 599.674 3.06479 592.812 7.23554 587.169C11.3755 581.269 16.2355 575.909 20.7255 570.459C15.7955 561.059 10.2555 551.229 5.48554 541.039C3.39981 536.519 2.17878 531.649 1.88554 526.68C1.32554 516.96 9.46554 511.219 18.4055 514.999C22.4555 516.789 26.1096 519.366 29.1555 522.579C34.0155 527.629 38.1555 533.37 42.6455 538.87C45.0555 535.02 47.2355 530.92 50.0055 527.26C52.9329 523.368 56.1809 519.729 59.7155 516.379C63.4355 512.879 68.0455 512.259 72.7155 514.599C77.3855 516.939 78.7155 521.22 78.1155 526.14C77.0355 534.57 73.6255 542.2 69.2655 549.37C66.2255 554.3 62.6855 558.939 59.4155 563.579Z" fill="#E1A7BC" stroke="white" stroke-width="0.15" stroke-miterlimit="10"/>
<path d="M498.345 369.03C502.735 377.31 507.345 385.68 511.615 394.18C514.225 399.33 516.025 404.79 515.695 410.73C515.245 418.85 507.915 424.06 500.345 421.11C496.72 419.693 493.408 417.581 490.595 414.89C485.335 409.75 480.595 404.04 475.435 398.27C474.895 399.307 474.291 400.309 473.625 401.27C469.515 406.56 465.575 412.01 461.105 416.98C459.016 419.034 456.48 420.578 453.695 421.49C446.435 424.2 440.205 419.9 439.935 412.13C439.803 405.116 441.99 398.254 446.155 392.61C450.295 386.71 455.155 381.35 459.655 375.91C454.715 366.5 449.185 356.67 444.405 346.49C442.325 341.965 441.105 337.092 440.805 332.12C440.245 322.4 448.395 316.67 457.335 320.44C461.384 322.236 465.038 324.816 468.085 328.03C472.945 333.03 477.085 338.82 481.575 344.32C483.975 340.48 486.165 336.38 488.935 332.72C491.86 328.823 495.108 325.18 498.645 321.83C502.365 318.33 506.975 317.72 511.645 320.06C516.315 322.4 517.645 326.68 517.055 331.59C515.975 340.03 512.555 347.66 508.195 354.82C505.145 359.78 501.565 364.41 498.345 369.03Z" fill="#E1A7BC" stroke="white" stroke-width="0.15" stroke-miterlimit="10"/>
<path d="M375.392 432.21C379.782 440.5 384.392 448.86 388.662 457.36C391.272 462.52 393.072 467.98 392.742 473.92C392.292 482.03 384.962 487.24 377.392 484.3C373.764 482.884 370.451 480.767 367.642 478.07C362.382 472.94 357.642 467.22 352.482 461.46C351.94 462.495 351.335 463.497 350.672 464.46C346.562 469.75 342.622 475.2 338.152 480.17C336.063 482.224 333.527 483.768 330.742 484.68C323.482 487.39 317.252 483.09 316.982 475.32C316.851 468.305 319.041 461.443 323.212 455.8C327.342 449.9 332.212 444.54 336.702 439.09C331.772 429.69 326.232 419.86 321.462 409.67C319.376 405.15 318.155 400.279 317.862 395.31C317.292 385.59 325.442 379.86 334.382 383.63C338.431 385.426 342.084 388.006 345.132 391.22C349.992 396.27 354.132 402.01 358.622 407.51C361.022 403.66 363.212 399.56 365.982 395.9C368.909 392.009 372.158 388.369 375.692 385.02C379.412 381.52 384.022 380.9 388.692 383.24C393.362 385.58 394.692 389.87 394.102 394.78C393.022 403.21 389.602 410.85 385.242 418.01C382.192 422.96 378.612 427.58 375.392 432.21Z" fill="#E1A7BC" stroke="white" stroke-width="0.15" stroke-miterlimit="10"/>
<path d="M272.103 385.379C274.733 390.379 277.483 395.38 280.103 400.47C281.794 403.501 282.64 406.93 282.553 410.399C282.283 415.269 277.883 418.399 273.343 416.629C271.167 415.778 269.179 414.507 267.493 412.889C264.333 409.809 261.493 406.379 258.393 402.889C258.071 403.51 257.707 404.108 257.303 404.679C254.843 407.859 252.483 411.129 249.803 414.109C248.547 415.34 247.025 416.264 245.353 416.809C240.993 418.439 237.253 415.859 237.093 411.199C237.015 406.991 238.33 402.874 240.833 399.49C243.313 395.95 246.253 392.73 248.923 389.49C245.923 383.85 242.643 377.949 239.783 371.839C238.533 369.125 237.8 366.202 237.623 363.22C237.283 357.39 242.173 353.95 247.533 356.22C249.963 357.294 252.155 358.841 253.983 360.769C256.903 363.769 259.383 367.239 262.083 370.539C263.523 368.229 264.833 365.769 266.493 363.539C268.251 361.204 270.201 359.02 272.323 357.01C273.325 356.002 274.63 355.351 276.037 355.158C277.445 354.965 278.877 355.239 280.113 355.939C282.953 357.369 283.733 359.939 283.353 362.859C282.587 367.829 280.777 372.58 278.043 376.8C276.183 379.83 274.033 382.579 272.103 385.379Z" fill="#E1A7BC" stroke="white" stroke-width="0.09" stroke-miterlimit="10"/>
<path d="M571.764 544.13C576.154 552.42 580.764 560.78 585.024 569.28C587.644 574.44 589.444 579.9 589.114 585.84C588.664 593.95 581.334 599.16 573.754 596.22C570.13 594.802 566.82 592.686 564.014 589.99C558.744 584.86 554.014 579.14 548.844 573.38C548.302 574.415 547.697 575.417 547.034 576.38C542.934 581.67 539.034 587.12 534.524 592.09C532.435 594.144 529.899 595.688 527.114 596.6C519.854 599.31 513.614 595.01 513.354 587.24C513.215 580.225 515.402 573.361 519.574 567.72C523.714 561.82 528.574 556.46 533.064 551.01C528.134 541.61 522.604 531.78 517.824 521.59C515.743 517.068 514.522 512.199 514.224 507.23C513.664 497.51 521.804 491.77 530.754 495.55C534.803 497.345 538.457 499.925 541.504 503.14C546.354 508.19 550.504 513.93 554.984 519.43C557.394 515.58 559.584 511.48 562.354 507.82C565.275 503.927 568.52 500.287 572.054 496.94C575.784 493.44 580.384 492.82 585.054 495.16C589.724 497.5 591.054 501.78 590.454 506.7C589.374 515.13 585.964 522.76 581.604 529.93C578.564 534.88 574.974 539.52 571.764 544.13Z" fill="#E1A7BC" stroke="white" stroke-width="0.15" stroke-miterlimit="10"/>
<path d="M461.353 505.189C463.983 510.189 466.733 515.189 469.353 520.279C471.039 523.312 471.884 526.74 471.803 530.209C471.533 535.079 467.133 538.209 462.583 536.439C460.412 535.589 458.428 534.321 456.743 532.709C453.583 529.629 450.743 526.199 447.643 522.709C447.315 523.326 446.951 523.924 446.553 524.499C444.093 527.669 441.723 530.939 439.043 533.919C437.795 535.156 436.274 536.084 434.603 536.629C430.243 538.259 426.503 535.629 426.343 531.009C426.263 526.8 427.578 522.682 430.083 519.299C432.563 515.759 435.503 512.549 438.173 509.299C435.173 503.649 431.893 497.759 429.023 491.649C427.78 488.933 427.048 486.011 426.863 483.029C426.533 477.189 431.413 473.749 436.783 476.029C439.213 477.104 441.406 478.65 443.233 480.579C446.143 483.579 448.633 487.059 451.323 490.349C452.773 488.049 454.083 485.589 455.743 483.349C457.498 481.014 459.444 478.83 461.563 476.819C462.567 475.811 463.874 475.161 465.284 474.969C466.694 474.778 468.127 475.055 469.363 475.759C472.193 477.189 472.983 479.759 472.603 482.679C471.835 487.648 470.026 492.398 467.293 496.619C465.433 499.639 463.283 502.419 461.353 505.189Z" fill="#E1A7BC" stroke="white" stroke-width="0.09" stroke-miterlimit="10"/>
<path d="M374.385 568.21C378.775 576.5 383.385 584.86 387.655 593.36C390.265 598.52 392.065 603.98 391.735 609.92C391.285 618.03 383.955 623.24 376.385 620.3C372.757 618.884 369.444 616.767 366.635 614.07C361.365 608.94 356.635 603.22 351.465 597.46C350.926 598.498 350.322 599.5 349.655 600.46C345.555 605.75 341.655 611.2 337.145 616.17C335.055 618.224 332.519 619.768 329.735 620.68C322.475 623.39 316.245 619.09 315.975 611.32C315.84 604.306 318.027 597.444 322.195 591.8C326.335 585.9 331.245 580.54 335.685 575.09C330.755 565.69 325.225 555.86 320.445 545.67C318.363 541.148 317.142 536.279 316.845 531.31C316.285 521.59 324.435 515.86 333.375 519.63C337.423 521.426 341.077 524.006 344.125 527.22C348.985 532.27 353.125 538.01 357.615 543.51C360.015 539.66 362.205 535.56 364.975 531.9C367.896 528.004 371.145 524.364 374.685 521.02C378.405 517.52 383.015 516.9 387.685 519.24C392.355 521.58 393.685 525.87 393.095 530.78C392.015 539.21 388.595 546.84 384.235 554.01C381.185 558.96 377.595 563.58 374.385 568.21Z" fill="#E1A7BC" stroke="white" stroke-width="0.15" stroke-miterlimit="10"/>
<path d="M1746.2 387.501C1750.59 395.781 1755.2 404.151 1759.47 412.651C1762.08 417.801 1763.89 423.261 1763.55 429.201C1763.1 437.321 1755.78 442.531 1748.2 439.581C1744.58 438.167 1741.27 436.053 1738.46 433.361C1733.19 428.221 1728.46 422.511 1723.29 416.741C1722.75 417.778 1722.15 418.78 1721.48 419.741C1717.37 425.031 1713.48 430.481 1708.97 435.451C1706.88 437.507 1704.34 439.05 1701.55 439.961C1694.29 442.671 1688.06 438.371 1687.79 430.601C1687.67 423.586 1689.86 416.724 1694.02 411.081C1698.16 405.181 1703.02 399.821 1707.51 394.381C1702.58 384.971 1697.04 375.141 1692.27 364.961C1690.19 360.433 1688.97 355.556 1688.68 350.581C1688.12 340.861 1696.26 335.131 1705.2 338.901C1709.25 340.697 1712.91 343.277 1715.95 346.491C1720.81 351.541 1724.95 357.281 1729.44 362.781C1731.85 358.931 1734.03 354.841 1736.8 351.181C1739.73 347.287 1742.98 343.644 1746.51 340.291C1750.23 336.791 1754.84 336.181 1759.51 338.521C1764.18 340.861 1765.51 345.141 1764.91 350.051C1763.83 358.491 1760.42 366.121 1756.06 373.281C1753.01 378.251 1749.42 382.881 1746.2 387.501Z" fill="#E1A7BC" stroke="white" stroke-width="0.15" stroke-miterlimit="10"/>
<path d="M1623.25 450.681C1627.64 458.971 1632.25 467.331 1636.52 475.831C1639.13 480.991 1640.94 486.451 1640.61 492.391C1640.15 500.501 1632.83 505.711 1625.25 502.771C1621.63 501.357 1618.32 499.24 1615.51 496.541C1610.24 491.411 1605.51 485.691 1600.34 479.931C1599.8 480.966 1599.2 481.968 1598.53 482.931C1594.42 488.221 1590.53 493.671 1586.02 498.641C1583.93 500.699 1581.39 502.242 1578.6 503.151C1571.34 505.861 1565.11 501.561 1564.85 493.791C1564.71 486.776 1566.9 479.912 1571.07 474.271C1575.21 468.371 1580.07 463.011 1584.56 457.561C1579.63 448.161 1574.09 438.331 1569.32 428.141C1567.24 423.621 1566.02 418.75 1565.72 413.781C1565.16 404.061 1573.3 398.331 1582.25 402.101C1586.3 403.896 1589.95 406.476 1592.99 409.691C1597.85 414.741 1601.99 420.481 1606.48 425.981C1608.89 422.131 1611.07 418.031 1613.84 414.371C1616.77 410.48 1620.02 406.84 1623.55 403.491C1627.28 399.991 1631.88 399.371 1636.55 401.711C1641.22 404.051 1642.55 408.331 1641.95 413.251C1640.87 421.681 1637.46 429.311 1633.1 436.481C1630.06 441.431 1626.47 446.071 1623.25 450.681Z" fill="#E1A7BC" stroke="white" stroke-width="0.15" stroke-miterlimit="10"/>
<path d="M1709.21 523.66C1711.84 528.66 1714.59 533.659 1717.21 538.749C1718.9 541.78 1719.75 545.21 1719.66 548.68C1719.39 553.55 1714.99 556.68 1710.45 554.91C1708.28 554.062 1706.29 552.794 1704.6 551.18C1701.44 548.1 1698.6 544.67 1695.5 541.18C1695.18 541.799 1694.81 542.397 1694.41 542.97C1691.95 546.14 1689.59 549.41 1686.91 552.39C1685.66 553.627 1684.14 554.554 1682.46 555.1C1678.1 556.73 1674.36 554.099 1674.2 549.479C1674.13 545.271 1675.44 541.155 1677.94 537.769C1680.42 534.229 1683.36 531.009 1686.03 527.769C1683.03 522.119 1679.75 516.23 1676.89 510.12C1675.64 507.405 1674.91 504.482 1674.73 501.499C1674.39 495.659 1679.28 492.219 1684.64 494.499C1687.07 495.574 1689.26 497.121 1691.09 499.05C1694.01 502.05 1696.49 505.53 1699.19 508.82C1700.63 506.52 1701.94 504.06 1703.6 501.82C1705.36 499.484 1707.31 497.3 1709.43 495.289C1710.43 494.28 1711.74 493.63 1713.15 493.438C1714.56 493.246 1715.99 493.524 1717.22 494.229C1720.06 495.659 1720.84 498.229 1720.46 501.149C1719.7 506.117 1717.89 510.865 1715.15 515.079C1713.29 518.109 1711.14 520.89 1709.21 523.66Z" fill="#E1A7BC" stroke="white" stroke-width="0.09" stroke-miterlimit="10"/>
<path d="M1622.24 586.681C1626.63 594.971 1631.24 603.331 1635.51 611.831C1638.12 616.991 1639.92 622.451 1639.59 628.391C1639.14 636.501 1631.82 641.711 1624.24 638.771C1620.62 637.351 1617.31 635.234 1614.49 632.541C1609.23 627.411 1604.49 621.691 1599.33 615.931C1598.79 616.966 1598.19 617.968 1597.52 618.931C1593.41 624.221 1589.52 629.671 1585.01 634.641C1582.92 636.697 1580.38 638.24 1577.59 639.151C1570.33 641.861 1564.1 637.561 1563.83 629.791C1563.7 622.775 1565.89 615.913 1570.06 610.271C1574.19 604.371 1579.06 599.011 1583.55 593.561C1578.62 584.161 1573.08 574.331 1568.31 564.141C1566.23 559.621 1565.01 554.75 1564.71 549.781C1564.14 540.061 1572.29 534.331 1581.23 538.101C1585.28 539.894 1588.94 542.473 1591.98 545.691C1596.84 550.741 1600.98 556.481 1605.47 561.981C1607.87 558.131 1610.06 554.031 1612.83 550.371C1615.76 546.48 1619.01 542.84 1622.54 539.491C1626.26 535.991 1630.87 535.371 1635.54 537.711C1640.21 540.051 1641.54 544.331 1640.95 549.251C1639.87 557.681 1636.45 565.311 1632.09 572.481C1629.04 577.431 1625.46 582.071 1622.24 586.681Z" fill="#E1A7BC" stroke="white" stroke-width="0.15" stroke-miterlimit="10"/>
<path d="M1519.97 403.85C1522.61 408.85 1525.35 413.85 1527.97 418.94C1529.66 421.971 1530.5 425.401 1530.42 428.87C1530.15 433.74 1525.76 436.87 1521.21 435.1C1519.03 434.246 1517.04 432.976 1515.36 431.36C1512.2 428.28 1509.36 424.85 1506.26 421.36C1505.93 421.979 1505.57 422.577 1505.18 423.15C1502.71 426.33 1500.35 429.6 1497.67 432.58C1496.41 433.811 1494.89 434.735 1493.22 435.28C1488.87 436.91 1485.13 434.33 1484.97 429.67C1484.88 425.461 1486.19 421.343 1488.7 417.96C1491.18 414.42 1494.13 411.2 1496.8 407.96C1493.8 402.32 1490.52 396.42 1487.65 390.31C1486.39 387.596 1485.66 384.673 1485.49 381.69C1485.15 375.86 1490.04 372.42 1495.41 374.69C1497.84 375.765 1500.03 377.312 1501.86 379.24C1504.77 382.24 1507.26 385.71 1509.95 389.01C1511.39 386.7 1512.7 384.24 1514.37 382.01C1516.12 379.673 1518.06 377.488 1520.19 375.48C1521.19 374.473 1522.49 373.822 1523.9 373.629C1525.31 373.435 1526.74 373.71 1527.98 374.41C1530.82 375.84 1531.6 378.41 1531.22 381.33C1530.46 386.302 1528.65 391.054 1525.91 395.27C1524.05 398.3 1521.9 401.08 1519.97 403.85Z" fill="#E1A7BC" stroke="white" stroke-width="0.09" stroke-miterlimit="10"/>
<path d="M817.315 373.75C821.695 382.03 826.315 390.4 830.575 398.9C833.185 404.05 834.995 409.511 834.665 415.451C834.205 423.571 826.885 428.78 819.305 425.83C815.681 424.416 812.372 422.303 809.565 419.61C804.295 414.47 799.565 408.761 794.395 402.991C793.854 404.027 793.25 405.029 792.585 405.991C788.475 411.291 784.585 416.73 780.075 421.71C777.984 423.765 775.443 425.306 772.655 426.21C765.405 428.93 759.165 424.62 758.905 416.85C758.767 409.836 760.954 402.972 765.125 397.33C769.265 391.43 774.125 386.07 778.615 380.63C773.685 371.22 768.145 361.39 763.375 351.21C761.29 346.69 760.069 341.82 759.775 336.85C759.215 327.12 767.355 321.391 776.305 325.161C780.349 326.959 783.999 329.539 787.045 332.75C791.905 337.8 796.045 343.54 800.535 349.04C802.945 345.2 805.135 341.1 807.895 337.44C810.822 333.546 814.07 329.903 817.605 326.551C821.335 323.051 825.935 322.441 830.605 324.781C835.275 327.121 836.605 331.4 836.005 336.31C834.925 344.75 831.515 352.38 827.155 359.54C824.115 364.5 820.525 369.14 817.315 373.75Z" fill="#E1A7BC" stroke="white" stroke-width="0.15" stroke-miterlimit="10"/>
<path d="M686.375 437.511C689.015 442.511 691.755 447.511 694.375 452.601C696.066 455.636 696.912 459.068 696.825 462.541C696.555 467.411 692.165 470.541 687.615 468.771C685.44 467.917 683.452 466.647 681.765 465.031C678.605 461.951 675.765 458.521 672.665 455.031C672.342 455.65 671.982 456.248 671.585 456.821C669.115 459.991 666.755 463.261 664.075 466.251C662.819 467.482 661.296 468.406 659.625 468.951C655.275 470.581 651.535 468.001 651.375 463.341C651.295 459.13 652.606 455.011 655.105 451.621C657.585 448.081 660.535 444.871 663.205 441.621C660.205 435.981 656.925 430.081 654.055 423.971C652.804 421.258 652.072 418.334 651.895 415.351C651.555 409.521 656.445 406.081 661.815 408.351C664.243 409.429 666.434 410.975 668.265 412.901C671.175 415.901 673.665 419.381 676.355 422.681C677.795 420.371 679.105 417.911 680.775 415.681C682.526 413.34 684.473 411.153 686.595 409.141C687.598 408.137 688.904 407.489 690.311 407.298C691.718 407.106 693.149 407.381 694.385 408.081C697.225 409.511 698.005 412.081 697.625 415.001C696.866 419.972 695.055 424.725 692.315 428.941C690.455 431.961 688.305 434.751 686.375 437.511Z" fill="#E1A7BC" stroke="white" stroke-width="0.09" stroke-miterlimit="10"/>
<path d="M890.685 548.851C895.075 557.141 899.685 565.501 903.955 574.001C906.565 579.161 908.365 584.621 908.035 590.561C907.585 598.671 900.255 603.881 892.685 600.941C889.059 599.521 885.747 597.404 882.935 594.711C877.675 589.581 872.935 583.861 867.775 578.101C867.233 579.136 866.628 580.138 865.965 581.101C861.855 586.391 857.915 591.841 853.445 596.811C851.356 598.865 848.82 600.409 846.035 601.321C838.775 604.031 832.545 599.731 832.275 591.961C832.144 584.945 834.334 578.083 838.505 572.441C842.635 566.541 847.505 561.181 851.995 555.731C847.065 546.331 841.525 536.501 836.755 526.311C834.669 521.791 833.448 516.92 833.155 511.951C832.585 502.231 840.735 496.501 849.675 500.271C853.726 502.063 857.38 504.643 860.425 507.861C865.285 512.911 869.425 518.651 873.915 524.151C876.315 520.301 878.505 516.201 881.275 512.541C884.202 508.649 887.45 505.01 890.985 501.661C894.705 498.161 899.315 497.541 903.985 499.881C908.655 502.221 909.985 506.501 909.395 511.421C908.315 519.851 904.895 527.481 900.535 534.651C897.525 539.581 893.945 544.241 890.685 548.851Z" fill="#E1A7BC" stroke="white" stroke-width="0.15" stroke-miterlimit="10"/>
<path d="M788.303 509.331C792.683 517.621 797.303 525.981 801.563 534.481C804.173 539.641 805.983 545.101 805.653 551.041C805.193 559.151 797.873 564.361 790.293 561.421C786.669 560.003 783.359 557.887 780.553 555.191C775.283 550.061 770.553 544.341 765.383 538.581C764.841 539.617 764.236 540.619 763.573 541.581C759.463 546.871 755.573 552.321 751.063 557.291C748.972 559.349 746.432 560.893 743.643 561.801C736.393 564.511 730.153 560.211 729.893 552.441C729.754 545.426 731.941 538.562 736.113 532.921C740.253 527.021 745.113 521.661 749.603 516.211C744.673 506.811 739.133 496.981 734.363 486.791C732.277 482.271 731.056 477.401 730.763 472.431C730.203 462.711 738.343 456.981 747.293 460.751C751.341 462.544 754.992 465.124 758.033 468.341C762.893 473.391 767.033 479.131 771.523 484.631C773.933 480.781 776.123 476.681 778.883 473.021C781.81 469.13 785.058 465.491 788.593 462.141C792.323 458.641 796.923 458.021 801.593 460.361C806.263 462.701 807.593 466.981 806.993 471.901C805.913 480.331 802.503 487.961 798.143 495.131C795.103 500.081 791.513 504.721 788.303 509.331Z" fill="#E1A7BC" stroke="white" stroke-width="0.15" stroke-miterlimit="10"/>
<path d="M693.345 572.93C697.735 581.22 702.345 589.58 706.615 598.09C709.225 603.24 711.035 608.7 710.695 614.64C710.245 622.75 702.925 627.96 695.345 625.02C691.719 623.606 688.409 621.489 685.605 618.79C680.335 613.66 675.605 607.95 670.435 602.18C669.893 603.216 669.288 604.218 668.625 605.18C664.515 610.47 660.575 615.92 656.115 620.89C654.023 622.946 651.484 624.49 648.695 625.4C641.435 628.11 635.205 623.81 634.935 616.04C634.804 609.025 636.994 602.163 641.165 596.52C645.305 590.62 650.165 585.261 654.655 579.821C649.725 570.411 644.185 560.58 639.415 550.4C637.331 545.876 636.11 541.003 635.815 536.031C635.255 526.311 643.395 520.58 652.335 524.35C656.384 526.147 660.038 528.726 663.085 531.94C667.945 536.99 672.085 542.73 676.575 548.23C678.985 544.38 681.165 540.28 683.935 536.62C686.865 532.731 690.113 529.092 693.645 525.741C697.365 522.241 701.975 521.621 706.645 523.97C711.315 526.32 712.645 530.59 712.045 535.5C710.965 543.93 707.555 551.57 703.195 558.73C700.155 563.69 696.565 568.32 693.345 572.93Z" fill="#E1A7BC" stroke="white" stroke-width="0.15" stroke-miterlimit="10"/>
<path d="M1132.27 378.41C1136.66 386.7 1141.27 395.06 1145.54 403.56C1148.15 408.72 1149.95 414.17 1149.62 420.11C1149.17 428.23 1141.84 433.44 1134.27 430.5C1130.65 429.08 1127.34 426.964 1124.52 424.27C1119.26 419.13 1114.52 413.42 1109.36 407.65C1108.82 408.687 1108.22 409.689 1107.55 410.65C1103.44 415.94 1099.55 421.39 1095.03 426.36C1092.94 428.412 1090.41 429.956 1087.62 430.87C1080.36 433.58 1074.13 429.27 1073.86 421.51C1073.73 414.492 1075.92 407.626 1080.09 401.98C1084.22 396.09 1089.09 390.73 1093.58 385.28C1088.65 375.87 1083.11 366.05 1078.33 355.86C1076.25 351.338 1075.03 346.469 1074.73 341.5C1074.17 331.77 1082.32 326.04 1091.26 329.82C1095.32 331.609 1098.97 334.186 1102.01 337.4C1106.87 342.46 1111.01 348.19 1115.5 353.69C1117.9 349.85 1120.09 345.75 1122.86 342.09C1125.79 338.193 1129.04 334.55 1132.57 331.2C1136.29 327.71 1140.9 327.09 1145.57 329.43C1150.24 331.77 1151.57 336.05 1150.98 340.96C1149.9 349.4 1146.48 357.03 1142.12 364.19C1139.07 369.16 1135.49 373.8 1132.27 378.41Z" fill="#E1A7BC" stroke="white" stroke-width="0.15" stroke-miterlimit="10"/>
<path d="M1009.32 441.581C1013.71 449.861 1018.32 458.231 1022.59 466.731C1025.2 471.881 1027 477.341 1026.67 483.281C1026.22 491.401 1018.9 496.611 1011.32 493.661C1007.7 492.245 1004.38 490.131 1001.57 487.441C996.312 482.301 991.572 476.591 986.412 470.821C985.872 471.858 985.267 472.86 984.602 473.821C980.492 479.111 976.552 484.561 972.092 489.541C969.996 491.59 967.458 493.13 964.672 494.041C957.412 496.761 951.182 492.451 950.912 484.681C950.782 477.666 952.972 470.804 957.142 465.161C961.272 459.261 966.142 453.901 970.632 448.461C965.702 439.051 960.162 429.221 955.392 419.041C953.307 414.517 952.086 409.643 951.792 404.671C951.222 394.951 959.372 389.221 968.312 392.991C972.361 394.787 976.014 397.367 979.062 400.581C983.922 405.631 988.062 411.371 992.552 416.871C994.952 413.031 997.142 408.931 999.912 405.271C1002.84 401.376 1006.09 397.734 1009.62 394.381C1013.34 390.881 1017.95 390.271 1022.62 392.611C1027.29 394.951 1028.62 399.231 1028.03 404.141C1026.95 412.581 1023.53 420.211 1019.17 427.371C1016.12 432.351 1012.54 436.981 1009.32 441.581Z" fill="#E1A7BC" stroke="white" stroke-width="0.15" stroke-miterlimit="10"/>
<path d="M906.033 394.761C908.663 399.761 911.413 404.761 914.033 409.851C915.723 412.882 916.569 416.312 916.483 419.781C916.213 424.651 911.813 427.781 907.273 426.011C905.097 425.163 903.109 423.896 901.423 422.281C898.263 419.191 895.423 415.771 892.323 412.281C891.998 412.901 891.634 413.499 891.233 414.071C888.773 417.241 886.413 420.511 883.733 423.491C882.477 424.725 880.955 425.652 879.283 426.201C874.923 427.821 871.183 425.201 871.023 420.581C870.946 416.372 872.261 412.256 874.763 408.871C877.243 405.331 880.183 402.111 882.853 398.871C879.853 393.221 876.573 387.331 873.713 381.211C872.464 378.5 871.731 375.58 871.553 372.601C871.213 366.761 876.103 363.321 881.463 365.601C883.893 366.676 886.085 368.222 887.913 370.151C890.833 373.151 893.313 376.621 896.013 379.921C897.453 377.621 898.763 375.161 900.423 372.921C902.18 370.585 904.131 368.401 906.253 366.391C907.254 365.382 908.56 364.731 909.968 364.539C911.376 364.348 912.808 364.626 914.043 365.331C916.883 366.751 917.663 369.331 917.283 372.251C916.516 377.217 914.706 381.965 911.973 386.181C910.113 389.211 907.963 391.991 906.033 394.761Z" fill="#E1A7BC" stroke="white" stroke-width="0.09" stroke-miterlimit="10"/>
<path d="M1205.69 553.509C1210.08 561.799 1214.69 570.169 1218.96 578.669C1221.57 583.819 1223.37 589.279 1223.04 595.219C1222.59 603.329 1215.26 608.549 1207.68 605.599C1204.05 604.185 1200.74 602.068 1197.94 599.369C1192.67 594.239 1187.94 588.529 1182.77 582.759C1182.22 583.795 1181.62 584.797 1180.96 585.759C1176.86 591.049 1172.96 596.499 1168.45 601.469C1166.36 603.524 1163.82 605.067 1161.04 605.979C1153.78 608.689 1147.54 604.389 1147.28 596.619C1147.14 589.605 1149.33 582.743 1153.5 577.099C1157.64 571.199 1162.5 565.839 1166.99 560.399C1162.06 550.989 1156.53 541.159 1151.75 530.979C1149.67 526.453 1148.44 521.581 1148.15 516.609C1147.59 506.889 1155.73 501.159 1164.68 504.929C1168.72 506.728 1172.38 509.307 1175.43 512.519C1180.29 517.569 1184.43 523.309 1188.91 528.809C1191.32 524.959 1193.51 520.859 1196.28 517.199C1199.2 513.308 1202.44 509.669 1205.98 506.319C1207.65 504.637 1209.83 503.551 1212.18 503.231C1214.53 502.912 1216.92 503.375 1218.98 504.549C1223.71 506.929 1224.98 511.169 1224.38 516.079C1223.3 524.519 1219.89 532.149 1215.53 539.309C1212.5 544.269 1208.91 548.899 1205.69 553.509Z" fill="#E1A7BC" stroke="white" stroke-width="0.15" stroke-miterlimit="10"/>
<path d="M1095.28 514.58C1097.91 519.58 1100.66 524.58 1103.28 529.67C1104.95 532.702 1105.77 536.123 1105.68 539.58C1105.41 544.45 1101.01 547.58 1096.47 545.81C1094.3 544.959 1092.31 543.688 1090.62 542.071C1087.46 538.991 1084.62 535.561 1081.52 532.071C1081.2 532.689 1080.83 533.287 1080.43 533.86C1077.97 537.03 1075.61 540.3 1072.92 543.29C1071.67 544.523 1070.15 545.447 1068.48 545.99C1064.12 547.62 1060.38 545.04 1060.22 540.38C1060.14 536.168 1061.46 532.047 1063.96 528.66C1066.44 525.12 1069.38 521.91 1072.05 518.66C1069.05 513.02 1065.77 507.12 1062.91 501.01C1061.66 498.298 1060.92 495.374 1060.75 492.39C1060.41 486.56 1065.3 483.12 1070.66 485.39C1073.09 486.469 1075.28 488.014 1077.11 489.94C1080.03 492.94 1082.51 496.42 1085.2 499.72C1086.65 497.41 1087.96 494.95 1089.62 492.72C1091.38 490.382 1093.33 488.194 1095.45 486.18C1096.46 485.176 1097.76 484.528 1099.17 484.337C1100.58 484.145 1102.01 484.42 1103.24 485.12C1106.07 486.55 1106.86 489.12 1106.48 492.04C1105.71 497.009 1103.9 501.76 1101.17 505.98C1099.36 509.02 1097.21 511.81 1095.28 514.58Z" fill="#E1A7BC" stroke="white" stroke-width="0.09" stroke-miterlimit="10"/>
<path d="M1008.31 577.581C1012.7 585.861 1017.31 594.231 1021.58 602.731C1024.19 607.881 1025.99 613.341 1025.66 619.281C1025.21 627.401 1017.88 632.611 1010.31 629.661C1006.69 628.245 1003.38 626.131 1000.56 623.441C995.304 618.301 990.564 612.591 985.394 606.821C984.858 607.86 984.253 608.862 983.584 609.821C979.484 615.111 975.584 620.561 971.074 625.541C968.983 627.59 966.447 629.13 963.664 630.041C956.404 632.761 950.174 628.451 949.904 620.681C949.772 613.667 951.958 606.805 956.124 601.161C960.264 595.261 965.124 589.901 969.614 584.461C964.684 575.051 959.154 565.221 954.374 555.041C952.294 550.515 951.073 545.642 950.774 540.671C950.214 530.951 958.364 525.221 967.304 528.991C971.353 530.787 975.006 533.367 978.054 536.581C982.914 541.631 987.054 547.371 991.544 552.871C993.944 549.031 996.134 544.931 998.904 541.271C1001.83 537.372 1005.07 533.728 1008.61 530.381C1012.33 526.881 1016.94 526.271 1021.61 528.611C1026.28 530.951 1027.61 535.231 1027.02 540.141C1025.94 548.581 1022.52 556.211 1018.16 563.371C1015.11 568.351 1011.52 572.981 1008.31 577.581Z" fill="#E1A7BC" stroke="white" stroke-width="0.15" stroke-miterlimit="10"/>
<path d="M1431.24 382.829C1435.63 391.119 1440.24 399.479 1444.51 407.989C1447.12 413.139 1448.92 418.599 1448.59 424.539C1448.14 432.649 1440.81 437.859 1433.24 434.919C1429.62 433.505 1426.3 431.388 1423.49 428.689C1418.22 423.559 1413.49 417.849 1408.32 412.079C1407.79 413.117 1407.18 414.119 1406.51 415.079C1402.41 420.369 1398.51 425.819 1394 430.789C1391.91 432.843 1389.38 434.387 1386.59 435.299C1379.33 438.009 1373.1 433.709 1372.83 425.939C1372.7 418.924 1374.89 412.062 1379.05 406.419C1383.19 400.519 1388.1 395.159 1392.54 389.709C1387.61 380.309 1382.08 370.479 1377.3 360.299C1375.22 355.774 1374 350.901 1373.7 345.929C1373.14 336.209 1381.29 330.479 1390.23 334.249C1394.28 336.048 1397.93 338.627 1400.98 341.839C1405.84 346.889 1409.98 352.629 1414.47 358.129C1416.87 354.279 1419.06 350.179 1421.83 346.519C1424.76 342.625 1428.01 338.985 1431.54 335.639C1435.26 332.139 1439.87 331.519 1444.54 333.869C1449.21 336.219 1450.54 340.489 1449.94 345.399C1448.87 353.829 1445.45 361.469 1441.09 368.629C1438.04 373.579 1434.45 378.219 1431.24 382.829Z" fill="#E1A7BC" stroke="white" stroke-width="0.15" stroke-miterlimit="10"/>
<path d="M1300.31 446.579C1302.94 451.579 1305.68 456.579 1308.31 461.669C1309.96 464.705 1310.78 468.125 1310.68 471.579C1310.41 476.449 1306.01 479.579 1301.46 477.809C1299.29 476.959 1297.31 475.692 1295.62 474.079C1292.46 470.999 1289.62 467.569 1286.52 464.079C1286.19 464.697 1285.83 465.294 1285.43 465.869C1282.97 469.039 1280.6 472.309 1277.92 475.289C1276.67 476.528 1275.15 477.456 1273.47 477.999C1269.12 479.629 1265.38 476.999 1265.22 472.379C1265.14 468.171 1266.45 464.055 1268.95 460.669C1271.44 457.129 1274.38 453.909 1277.05 450.669C1274.05 445.019 1270.77 439.129 1267.9 433.019C1266.66 430.303 1265.93 427.381 1265.74 424.399C1265.41 418.559 1270.29 415.119 1275.66 417.399C1278.09 418.474 1280.28 420.021 1282.11 421.949C1285.02 424.949 1287.51 428.429 1290.2 431.719C1291.64 429.419 1292.96 426.959 1294.62 424.719C1296.37 422.382 1298.32 420.197 1300.44 418.189C1301.44 417.181 1302.75 416.532 1304.16 416.34C1305.57 416.149 1307 416.426 1308.23 417.129C1311.07 418.559 1311.85 421.129 1311.48 424.049C1310.72 429.017 1308.9 433.766 1306.16 437.979C1304.39 441.049 1302.23 443.829 1300.31 446.579Z" fill="#E1A7BC" stroke="white" stroke-width="0.09" stroke-miterlimit="10"/>
<path d="M1504.68 557.939C1509.07 566.229 1513.68 574.589 1517.95 583.089C1520.56 588.249 1522.37 593.7 1522.04 599.64C1521.58 607.76 1514.26 612.97 1506.68 610.03C1503.06 608.612 1499.75 606.495 1496.94 603.8C1491.67 598.66 1486.94 592.95 1481.77 587.18C1481.23 588.216 1480.63 589.218 1479.96 590.18C1475.85 595.47 1471.96 600.92 1467.45 605.89C1465.36 607.946 1462.82 609.489 1460.03 610.399C1452.77 613.109 1446.54 608.799 1446.28 601.039C1446.14 594.021 1448.33 587.155 1452.5 581.51C1456.64 575.62 1461.5 570.26 1465.99 564.81C1461.06 555.4 1455.52 545.58 1450.75 535.39C1448.67 530.87 1447.45 525.999 1447.15 521.03C1446.59 511.3 1454.73 505.57 1463.68 509.35C1467.73 511.145 1471.38 513.721 1474.42 516.93C1479.28 521.99 1483.42 527.73 1487.91 533.22C1490.32 529.38 1492.5 525.28 1495.27 521.62C1498.2 517.725 1501.45 514.082 1504.98 510.729C1508.71 507.239 1513.31 506.619 1517.98 508.959C1522.65 511.299 1523.98 515.58 1523.38 520.49C1522.3 528.93 1518.89 536.56 1514.53 543.72C1511.46 548.69 1507.87 553.329 1504.68 557.939Z" fill="#E1A7BC" stroke="white" stroke-width="0.15" stroke-miterlimit="10"/>
<path d="M1402.23 518.42C1406.62 526.71 1411.23 535.07 1415.5 543.57C1418.11 548.73 1419.91 554.18 1419.58 560.12C1419.13 568.24 1411.8 573.45 1404.23 570.51C1400.61 569.093 1397.29 566.976 1394.48 564.28C1389.21 559.14 1384.48 553.43 1379.31 547.66C1378.78 548.699 1378.17 549.701 1377.5 550.66C1373.4 555.95 1369.5 561.4 1364.99 566.37C1362.9 568.422 1360.37 569.965 1357.58 570.88C1350.32 573.59 1344.09 569.28 1343.82 561.52C1343.69 554.503 1345.87 547.637 1350.04 541.99C1354.18 536.1 1359.09 530.74 1363.53 525.29C1358.6 515.88 1353.07 506.06 1348.29 495.87C1346.21 491.348 1344.99 486.479 1344.69 481.51C1344.13 471.78 1352.28 466.05 1361.22 469.83C1365.27 471.625 1368.92 474.201 1371.97 477.41C1376.83 482.47 1380.97 488.21 1385.46 493.7C1387.86 489.86 1390.05 485.76 1392.82 482.1C1395.74 478.201 1398.99 474.558 1402.53 471.21C1406.25 467.72 1410.86 467.1 1415.53 469.44C1420.2 471.78 1421.53 476.06 1420.93 480.97C1419.86 489.41 1416.44 497.04 1412.08 504.2C1409.03 509.17 1405.44 513.81 1402.23 518.42Z" fill="#E1A7BC" stroke="white" stroke-width="0.15" stroke-miterlimit="10"/>
<path d="M1307.28 582.02C1311.67 590.31 1316.28 598.67 1320.54 607.17C1323.16 612.33 1324.96 617.79 1324.63 623.73C1324.18 631.84 1316.85 637.05 1309.27 634.11C1305.65 632.693 1302.34 630.576 1299.53 627.88C1294.26 622.75 1289.53 617.03 1284.36 611.27C1283.82 612.306 1283.22 613.308 1282.55 614.27C1278.45 619.56 1274.55 625.01 1270.04 629.98C1267.95 632.035 1265.42 633.579 1262.63 634.491C1255.37 637.201 1249.13 632.9 1248.87 625.13C1248.73 618.115 1250.92 611.251 1255.09 605.61C1259.23 599.71 1264.09 594.35 1268.58 588.9C1263.65 579.5 1258.11 569.67 1253.34 559.48C1251.26 554.959 1250.04 550.089 1249.74 545.12C1249.18 535.4 1257.32 529.66 1266.27 533.44C1270.32 535.235 1273.98 537.815 1277.02 541.031C1281.87 546.031 1286.02 551.821 1290.5 557.321C1292.91 553.471 1295.1 549.37 1297.87 545.71C1300.79 541.817 1304.04 538.177 1307.57 534.83C1311.3 531.33 1315.9 530.711 1320.57 533.051C1325.24 535.391 1326.57 539.67 1325.97 544.58C1324.89 553.02 1321.48 560.651 1317.12 567.821C1314.08 572.771 1310.49 577.41 1307.28 582.02Z" fill="#E1A7BC" stroke="white" stroke-width="0.15" stroke-miterlimit="10"/>
</svg>
