<svg width="54" height="53" viewBox="0 0 54 53" fill="none" xmlns="http://www.w3.org/2000/svg"><script xmlns=""/>
<path d="M53.364 27.0301C53.364 23.5785 52.6767 20.1606 51.3412 16.9717C50.0056 13.7829 48.0481 10.8855 45.5804 8.44483C43.1127 6.00418 40.183 4.06815 36.9588 2.74728C33.7346 1.42641 30.2789 0.746582 26.789 0.746582C23.2991 0.746582 19.8434 1.42641 16.6191 2.74728C13.3949 4.06815 10.4652 6.00418 7.99751 8.44483C5.52979 10.8855 3.57228 13.7829 2.23676 16.9717C0.901233 20.1606 0.213867 23.5785 0.213867 27.0301C0.213867 40.1532 10.8333 53.0001 22.6227 53.0001V34.6144H15.8299V26.9852H22.6227V21.1926C22.6227 14.6086 26.6078 10.9658 32.7138 10.9658C34.7189 10.9936 36.7193 11.1657 38.6991 11.4809V17.9754H35.3253C32.0119 17.9754 30.9779 20.0058 30.9779 22.081V26.9852H38.3141L37.1367 34.6144H30.9779V53.0001C37.2229 52.0127 42.9073 48.8555 47.0104 44.0956C51.1134 39.3357 53.3661 33.285 53.364 27.0301Z" fill="#E1A7BC"/>
</svg>