<svg width="53" height="53" viewBox="0 0 53 53" fill="none" xmlns="http://www.w3.org/2000/svg"><script xmlns=""/>
<path d="M45.1128 7.58144C40.6208 3.14134 34.6506 0.46679 28.3135 0.0555976C21.9763 -0.355595 15.704 1.52458 10.664 5.34619C5.62395 9.1678 2.15969 14.6705 0.915928 20.83C-0.327835 26.9894 0.733701 33.386 3.9029 38.8291L0.189453 52.2657L14.0695 48.6602C17.9077 50.7315 22.211 51.8148 26.5834 51.8103C40.9993 51.8103 53 40.1951 53 25.915C52.9678 22.4964 52.2547 19.1177 50.9013 15.9719C49.548 12.8261 47.581 9.97488 45.1128 7.58144ZM26.6136 47.3987C22.7135 47.4076 18.8833 46.3761 15.5262 44.4128L14.7715 43.9499L6.53701 46.0849L8.73338 38.1424L8.21255 37.3212C6.47107 34.4856 5.41456 31.2909 5.12524 27.9855C4.83592 24.6801 5.32161 21.3534 6.54447 18.264C7.76733 15.1745 9.69442 12.4058 12.1758 10.1732C14.6571 7.94056 17.6259 6.3042 20.851 5.39157C24.0761 4.47895 27.4706 4.31469 30.7704 4.91135C34.0702 5.50802 37.1864 6.84965 39.8764 8.83183C42.5664 10.814 44.7578 13.3833 46.2799 16.3398C47.8021 19.2963 48.614 22.5601 48.6525 25.8776C48.5997 37.7392 38.5916 47.3987 26.6136 47.3987ZM38.5464 31.2747C37.8973 30.9537 34.6744 29.3862 34.0782 29.1772C33.4819 28.9682 33.0366 28.8487 32.5687 29.5056C32.1007 30.1625 30.8855 31.6031 30.4931 32.0436C30.1006 32.484 29.7383 32.5362 29.0817 32.2078C25.2324 30.3117 22.7115 28.8189 20.1755 24.5117C19.5037 23.3696 20.8472 23.4517 22.1002 20.9809C22.1848 20.8013 22.2236 20.6039 22.2131 20.4061C22.2026 20.2082 22.143 20.016 22.0397 19.8462C21.8737 19.5178 20.5302 16.3376 20.0246 15.0388C19.5189 13.7399 18.9528 13.9564 18.515 13.934C18.0773 13.9116 17.7074 13.934 17.2697 13.934C16.9386 13.9425 16.6129 14.0187 16.313 14.1574C16.013 14.2961 15.7452 14.4945 15.5262 14.7402C14.79 15.4346 14.2084 16.2733 13.8185 17.2026C13.4286 18.1319 13.2391 19.1314 13.2619 20.1373C13.2619 23.3247 15.6092 26.4002 15.9337 26.8556C16.2583 27.3109 20.5454 33.8203 27.1118 36.627C31.2629 38.4037 32.8857 38.5529 34.9613 38.2468C36.2293 38.0602 38.8332 36.6866 39.3766 35.1713C39.8046 34.2023 39.9359 33.1304 39.754 32.0884C39.6181 31.7525 39.1804 31.5957 38.5313 31.2747H38.5464Z" fill="#E1A7BC"/>
</svg>