<svg width="52" height="52" viewBox="0 0 52 52" fill="none" xmlns="http://www.w3.org/2000/svg"><script xmlns=""/>
<path d="M36.814 4.33295C39.6797 4.34152 42.4257 5.48572 44.4521 7.51565C46.4785 9.54559 47.6207 12.2963 47.6292 15.1671V36.8329C47.6207 39.7037 46.4785 42.4544 44.4521 44.4843C42.4257 46.5143 39.6797 47.6585 36.814 47.6671H15.1858C12.3201 47.6585 9.57414 46.5143 7.54774 44.4843C5.52134 42.4544 4.37913 39.7037 4.37057 36.8329V15.1671C4.37913 12.2963 5.52134 9.54559 7.54774 7.51565C9.57414 5.48572 12.3201 4.34152 15.1858 4.33295H36.814ZM36.814 0H15.1858C6.85829 0 0.045166 6.825 0.045166 15.1671V36.8329C0.045166 45.175 6.85829 52 15.1858 52H36.814C45.1415 52 51.9547 45.175 51.9547 36.8329V15.1671C51.9547 6.825 45.1415 0 36.814 0Z" fill="#E1A7BC"/>
<path d="M40.0586 15.167C39.4169 15.167 38.7896 14.9764 38.2561 14.6193C37.7226 14.2622 37.3067 13.7546 37.0612 13.1607C36.8156 12.5669 36.7514 11.9134 36.8765 11.283C37.0017 10.6525 37.3107 10.0734 37.7645 9.6189C38.2182 9.16438 38.7963 8.85484 39.4256 8.72944C40.055 8.60404 40.7073 8.6684 41.3001 8.91439C41.8929 9.16037 42.3996 9.57693 42.7561 10.1114C43.1126 10.6459 43.3029 11.2742 43.3029 11.917C43.3038 12.344 43.2205 12.7671 43.0578 13.1618C42.8951 13.5565 42.6561 13.9152 42.3547 14.2171C42.0532 14.5191 41.6952 14.7585 41.3012 14.9215C40.9072 15.0845 40.4849 15.1679 40.0586 15.167Z" fill="#E1A7BC"/>
<path d="M26.0001 17.3329C27.7113 17.3329 29.384 17.8413 30.8069 18.7936C32.2297 19.746 33.3386 21.0996 33.9935 22.6833C34.6483 24.267 34.8196 26.0096 34.4858 27.6909C34.152 29.3721 33.3279 30.9164 32.1179 32.1285C30.9079 33.3406 29.3663 34.1661 27.688 34.5005C26.0097 34.8349 24.2701 34.6633 22.6891 34.0073C21.1082 33.3513 19.7569 32.2404 18.8062 30.8152C17.8555 29.3899 17.3481 27.7142 17.3481 26C17.3506 23.7021 18.2629 21.499 19.8849 19.8742C21.507 18.2493 23.7062 17.3354 26.0001 17.3329ZM26.0001 13C23.4334 13 20.9244 13.7624 18.7902 15.1909C16.6561 16.6194 14.9928 18.6497 14.0106 21.0251C13.0283 23.4006 12.7713 26.0144 13.2721 28.5362C13.7728 31.0579 15.0088 33.3743 16.8237 35.1924C18.6386 37.0105 20.951 38.2486 23.4683 38.7502C25.9857 39.2518 28.595 38.9944 30.9663 38.0104C33.3376 37.0265 35.3644 35.3603 36.7904 33.2224C38.2163 31.0846 38.9775 28.5712 38.9775 26C38.9775 22.5522 37.6102 19.2456 35.1765 16.8076C32.7427 14.3696 29.4419 13 26.0001 13Z" fill="#E1A7BC"/>
</svg>