<svg width="61" height="46" viewBox="0 0 61 46" fill="none" xmlns="http://www.w3.org/2000/svg"><script xmlns=""/>
<path d="M6.08868 0.479004C4.9006 0.479004 3.74264 0.848786 2.77882 1.53585C1.815 2.22291 1.09418 3.19233 0.718476 4.30708C0.342772 5.42182 0.331245 6.62537 0.685492 7.74697C1.03974 8.86856 1.74179 9.85144 2.69226 10.5565L28.3541 29.5917C29.0074 30.0762 29.8019 30.3382 30.6184 30.3382C31.435 30.3382 32.2295 30.0762 32.8827 29.5917L58.5445 10.5565C59.495 9.85144 60.197 8.86856 60.5513 7.74697C60.9055 6.62537 60.894 5.42182 60.5183 4.30708C60.1426 3.19233 59.4217 2.22291 58.4579 1.53585C57.4941 0.848786 56.3362 0.479004 55.1481 0.479004H6.08868ZM0.427979 13.5424V37.8029C0.427979 39.7827 1.22319 41.6814 2.63864 43.0813C4.05409 44.4813 5.97383 45.2677 7.97558 45.2677H53.2612C55.263 45.2677 57.1827 44.4813 58.5982 43.0813C60.0136 41.6814 60.8088 39.7827 60.8088 37.8029V13.5424L35.147 32.5776C33.8405 33.5467 32.2515 34.0706 30.6184 34.0706C28.9853 34.0706 27.3963 33.5467 26.0899 32.5776L0.427979 13.5424Z" fill="#E1A7BC"/>
</svg>