<svg width="315" height="227" viewBox="0 0 315 227" fill="none" xmlns="http://www.w3.org/2000/svg"><script xmlns=""/>
<path d="M117.646 70.0441C118.184 77.648 118.964 85.3047 119.196 92.9824C119.286 97.9189 118.996 102.855 118.332 107.747C117.657 113.316 114.936 116.037 110.316 116.627C105.402 117.26 101.479 115.277 99.6541 110.057C96.971 102.756 94.7967 95.2787 93.147 87.6776C89.854 71.897 88.5817 55.7617 89.3608 39.6601C89.5457 36.0518 90.2893 32.494 91.565 29.1137C94.3493 21.8789 101.679 19.0208 108.154 23.2921C112.766 26.5339 116.807 30.5183 120.114 35.0829C127.243 44.4481 132.696 54.8573 137.368 65.6674C137.6 66.1841 137.874 66.722 138.127 67.1966L138.876 67.0489C137.821 58.1689 136.482 49.3205 135.965 40.4194C135.758 34.6616 136.112 28.8973 137.02 23.2077C137.758 17.8607 140.606 15.3823 145.193 14.7707C150.013 14.1801 153.936 16.1311 155.74 21.0985C157.457 25.7407 158.694 30.5469 159.431 35.4415C162.394 55.4269 163.649 75.5176 160.96 95.6295C160.646 97.8349 160.069 99.9948 159.241 102.063C156.077 110.247 146.227 112.746 140.258 106.281C135.106 100.47 130.496 94.2004 126.484 87.551C123.035 82.0248 120.557 75.9501 117.646 70.0441Z" fill="#222221"/>
<path d="M202.565 169.222C201.658 161.291 200.382 153.403 199.971 145.429C199.708 139.069 199.98 132.698 200.783 126.383C201.605 119.369 206.33 115.91 212.447 117.155C217.477 118.209 220.093 121.858 220.884 126.457C222.751 137.309 224.86 148.203 225.609 159.15C226.379 170.414 225.788 181.783 225.472 193.099C225.303 196.639 224.632 200.136 223.478 203.487C220.536 212.494 210.38 215.246 203.957 208.296C198.808 202.483 194.217 196.198 190.247 189.524C186.819 184.019 184.362 177.923 181.81 172.65C182.274 180.538 182.98 189.102 183.202 197.687C183.24 202.131 182.887 206.571 182.147 210.954C181.441 215.668 178.888 218.168 174.923 218.885C170.314 219.707 166.37 218.421 164.535 214.002C161.78 207.389 159.575 200.56 157.943 193.584C154.209 177.167 152.614 160.336 153.197 143.51C153.29 140.278 153.739 137.067 154.537 133.934C157.173 123.715 166.718 120.593 175.007 127.205C181.114 132.078 185.48 138.479 189.308 145.134C193.527 152.517 197.228 160.142 201.162 167.651C201.479 168.241 201.837 168.8 202.164 169.37L202.565 169.222Z" fill="#222221"/>
<path d="M286.609 184.24C278.995 186.201 272.002 188.089 264.957 189.734C264.274 189.791 263.632 190.082 263.14 190.559C262.648 191.036 262.336 191.669 262.258 192.35C261.639 195.626 260.825 198.862 259.821 202.042C257.775 208.074 253.831 210.722 247.704 210.574C242.082 210.426 238.054 207.6 236.936 201.367C235.864 195.099 235.426 188.739 235.628 182.383C236.088 163.755 239.494 145.317 245.721 127.753C249.054 118.325 255.308 111.934 265.759 110.689C268.877 110.222 272.062 110.507 275.047 111.521C278.032 112.536 280.731 114.251 282.918 116.521C288.834 122.396 292.547 129.736 296.428 136.939C303.051 149.257 308.662 162.029 312.089 175.623C313.364 180.808 314.109 186.108 314.314 191.443C314.546 196.568 311.91 199.88 307.807 201.346C302.365 203.223 297.904 202.4 294.698 198.098C291.893 194.311 289.815 189.998 287.432 185.895C287.021 185.189 286.672 184.356 286.609 184.24ZM278.699 165.457C275.24 155.511 271.897 145.904 268.564 136.285H268.174C267.352 147.064 266.518 157.832 265.675 168.842L278.699 165.457Z" fill="#222221"/>
<path d="M224.197 81.771C216.445 83.722 209.137 85.5149 201.86 87.4765C201.406 87.6807 201.001 87.9791 200.672 88.3519C200.343 88.7247 200.097 89.1632 199.951 89.6385C199.012 92.8024 198.506 96.1667 197.462 99.3201C195.131 106.312 189.974 109.181 182.802 107.757C178.056 106.819 174.924 103.17 174.007 97.3901C172.675 87.9499 172.601 78.3748 173.785 68.915C175.367 53.8969 178.109 39.1004 183.372 24.8945C186.536 16.4574 191.956 10.3194 201.301 8.46326C209.474 6.82857 216.656 8.86399 221.697 15.4238C226.318 21.5646 230.464 28.0482 234.1 34.8186C241.184 47.3292 246.538 60.7435 250.014 74.6943C251.075 79.3239 251.718 84.0395 251.934 88.7843C252.187 93.7516 249.571 97.4323 245.606 98.8771C240.206 100.849 235.597 100.122 232.402 95.9136C229.618 92.2435 227.55 88.0249 225.209 84.0278C224.828 83.2958 224.49 82.5423 224.197 81.771ZM206.078 33.9011L205.656 34.0065C204.823 44.7638 203.99 55.5211 203.146 66.4576L216.16 62.9246C212.712 53.0111 209.4 43.456 206.078 33.9011Z" fill="#222221"/>
<path d="M68.2142 165.224C68.0349 157.599 66.8326 150.164 68.6782 142.708C70.5238 135.252 77.1153 131.012 84.2341 132.583C85.9943 132.926 87.6322 133.73 88.9809 134.912C90.3296 136.094 91.3409 137.612 91.9118 139.312C94.3375 146.462 96.5206 153.739 98.2396 161.09C100.149 169.369 101.266 177.827 103.059 186.127C103.833 189.364 105.047 192.479 106.666 195.387C107.341 196.652 109.408 198.097 110.6 197.918C111.437 197.703 112.21 197.291 112.856 196.717C113.501 196.143 114.001 195.423 114.312 194.617C115.439 190.028 116.124 185.342 116.358 180.622C116.664 170.308 116.358 159.983 116.569 149.669C116.721 145.418 117.208 141.187 118.025 137.013C119.005 131.55 122.349 128.576 127.516 127.816C133.074 127.057 137.651 129.019 139.74 134.144C141.644 138.707 142.956 143.496 143.642 148.392C145.751 164.929 146.025 181.487 142.471 197.908C141.056 204.473 138.063 210.594 133.749 215.741C121.821 230.148 102.3 230.802 88.9378 217.281C82.8209 211.09 79.0031 203.444 76.4298 195.324C73.2869 185.421 70.9351 175.275 68.2142 165.224Z" fill="#222221"/>
<path d="M79.3727 49.995C80.0898 64.5701 80.343 78.9658 77.2001 93.1718C74.7218 104.404 69.2482 113.853 58.6702 119.337C48.0922 124.821 35.8268 122.702 26.5249 114.433C19.7331 108.411 15.9786 100.48 12.8147 92.2859C7.94115 79.1221 5.05493 65.3061 4.25102 51.2922C4.04308 47.3597 4.39822 43.4177 5.30565 39.5858C6.56067 33.9751 11.1695 30.4632 16.7696 30.0202C21.6842 29.6405 26.0187 31.9185 27.9592 37.4975C30.5338 45.2477 32.6918 53.1301 34.4241 61.1108C36.1854 68.6937 37.2717 76.4347 38.9696 84.028C39.6339 86.8062 40.7414 89.4592 42.2495 91.8851C44.3588 95.3865 47.8813 95.1123 49.3999 91.2945C50.5278 88.5648 51.1737 85.6602 51.3089 82.7097C51.5409 72.8489 51.2034 62.9775 51.4881 53.1167C51.672 46.914 52.2426 40.7289 53.1966 34.5973C54.0403 29.1237 57.5523 26.2235 62.7727 25.654C68.1725 25.0634 72.6652 27.0988 74.4897 32.1505C76.6095 37.8877 77.7591 44.0152 79.3727 49.995Z" fill="#222221"/>
<path d="M44.5698 169.812C47.6599 174.368 50.8976 178.946 53.9138 183.639C55.882 186.402 57.0696 189.644 57.352 193.025C57.6051 197.792 53.6713 201.293 49.0626 200.07C46.8567 199.471 44.7894 198.447 42.9773 197.054C39.5814 194.396 36.4702 191.359 33.0743 188.332C32.8239 188.967 32.535 189.587 32.2095 190.188C30.1529 193.531 28.2019 196.969 25.8817 200.144C24.7931 201.478 23.4107 202.543 21.8424 203.255C17.7821 205.301 13.8694 203.181 13.226 198.667C12.6961 194.585 13.5343 190.442 15.6095 186.887C17.645 183.185 20.1655 179.747 22.4119 176.277C18.9316 171.11 15.0295 165.731 11.6441 160.099C10.142 157.592 9.11917 154.828 8.62784 151.947C7.67867 146.315 12.0659 142.455 17.5184 144.079C19.9974 144.867 22.2953 146.14 24.2786 147.823C27.4425 150.46 30.2162 153.539 33.1797 156.461C34.3398 154.067 35.3523 151.536 36.7339 149.226C38.1899 146.766 39.8516 144.434 41.7012 142.255C42.5668 141.168 43.7659 140.397 45.1134 140.06C46.461 139.722 47.882 139.838 49.1575 140.388C52.0788 141.443 53.1018 143.868 53.0491 146.716C52.8387 151.631 51.584 156.445 49.3684 160.837C47.9446 163.949 46.1412 166.881 44.5698 169.812Z" fill="#222221"/>
<path d="M113.3 62.1337C113.838 69.7271 114.619 77.3943 114.851 85.072C114.935 90.0084 114.646 94.9442 113.986 99.8369C113.3 105.405 110.59 108.137 105.97 108.727C101.056 109.35 97.1327 107.367 95.2976 102.147C92.6227 94.8433 90.4486 87.3661 88.7905 79.7672C85.5058 63.9855 84.2371 47.8508 85.0149 31.7497C85.2018 28.1417 85.9453 24.5842 87.2191 21.2033C90.0033 13.9685 97.333 11.121 103.809 15.3817C108.418 18.6301 112.459 22.6176 115.768 27.1831C122.887 36.5377 128.35 46.947 133.022 57.7675C133.254 58.2843 133.528 58.8222 133.781 59.2967L134.519 59.1491C133.465 50.2796 132.136 41.4207 131.619 32.5195C131.413 26.7652 131.766 21.0045 132.674 15.3184C133.412 9.97145 136.249 7.48251 140.847 6.88137C145.667 6.29077 149.59 8.25239 151.394 13.2092C153.11 17.8554 154.347 22.6649 155.085 27.5627C158.048 47.5481 159.303 67.6389 156.614 87.7508C156.3 89.9528 155.723 92.1091 154.895 94.1735C151.731 102.358 141.881 104.857 135.912 98.3921C130.752 92.5862 126.134 86.3201 122.117 79.6723C118.679 74.1038 116.2 67.9764 113.3 62.1337Z" fill="#F3A8BD"/>
<path d="M198.22 161.312C197.313 153.381 196.026 145.493 195.625 137.52C195.365 131.156 195.633 124.782 196.427 118.462C197.26 111.449 201.974 108 208.101 109.245C213.132 110.299 215.748 113.938 216.539 118.547C218.416 129.399 220.525 140.283 221.274 151.24C222.044 162.514 221.453 173.883 221.137 185.2C220.967 188.736 220.296 192.23 219.144 195.577C216.191 204.615 206.045 207.336 199.601 200.397C194.451 194.584 189.861 188.299 185.891 181.624C182.463 176.109 180.006 170.023 177.454 164.75C177.918 172.628 178.624 181.203 178.846 189.787C178.883 194.232 178.53 198.672 177.791 203.055C177.074 207.769 174.532 210.258 170.567 210.975C165.948 211.808 162.003 210.521 160.179 206.092C157.397 199.47 155.174 192.626 153.535 185.632C149.818 169.216 148.233 152.39 148.82 135.569C148.917 132.337 149.366 129.126 150.16 125.992C152.807 115.773 162.351 112.641 170.63 119.253C176.747 124.136 181.113 130.527 184.942 137.182C189.16 144.565 192.862 152.179 196.796 159.699C197.102 160.279 197.46 160.838 197.798 161.418L198.22 161.312Z" fill="#F3A8BD"/>
<path d="M282.264 176.33C274.649 178.281 267.657 180.169 260.612 181.814C259.928 181.871 259.284 182.164 258.792 182.643C258.299 183.122 257.988 183.757 257.912 184.44C257.292 187.716 256.479 190.952 255.476 194.132C253.43 200.165 249.486 202.812 243.358 202.654C237.737 202.517 233.709 199.69 232.591 193.447C231.517 187.179 231.079 180.819 231.283 174.463C231.742 155.831 235.148 137.389 241.376 119.823C244.708 110.394 250.952 104.003 261.414 102.759C264.541 102.293 267.734 102.585 270.725 103.609C273.717 104.633 276.419 106.359 278.604 108.644C284.521 114.507 288.233 121.848 292.104 129.061C298.737 141.337 304.348 154.119 307.776 167.703C309.046 172.888 309.791 178.188 310.001 183.523C310.233 188.638 307.586 191.96 303.494 193.415C298.052 195.303 293.591 194.47 290.385 190.177C287.579 186.391 285.491 182.067 283.118 177.975C282.665 177.269 282.327 176.446 282.264 176.33ZM274.301 157.547C270.853 147.591 267.51 137.984 264.166 128.376H263.787C262.964 139.144 262.131 149.922 261.287 160.932L274.301 157.547Z" fill="#F3A8BD"/>
<path d="M219.851 73.8404C212.1 75.7915 204.781 77.5843 197.514 79.5459C197.061 79.7501 196.656 80.0485 196.327 80.4213C195.998 80.7941 195.752 81.2327 195.605 81.708C194.656 84.8719 194.16 88.2256 193.116 91.379C190.785 98.3712 185.618 101.24 178.457 99.816C173.711 98.8774 170.579 95.2389 169.651 89.4595C168.329 80.0183 168.258 70.4441 169.44 60.9844C171.022 45.9664 173.764 31.1698 179.016 16.9639C182.18 8.52682 187.611 2.38883 196.945 0.532668C205.118 -1.09147 212.3 0.933414 217.341 7.50379C221.966 13.6224 226.122 20.081 229.775 26.8247C236.86 39.3316 242.214 52.7425 245.69 66.6899C246.746 71.324 247.388 76.0427 247.609 80.7905C247.822 82.9349 247.316 85.0892 246.171 86.9145C245.025 88.7397 243.305 90.1322 241.281 90.8728C235.892 92.8449 231.273 92.1277 228.088 87.9197C225.304 84.2496 223.237 80.0311 220.895 76.034C220.499 75.3269 220.15 74.594 219.851 73.8404ZM201.712 25.9916L201.279 26.0865C200.457 36.8543 199.623 47.6116 198.78 58.5376L211.783 55.0046L201.712 25.9916Z" fill="#F3A8BD"/>
<path d="M64.3023 157.685C63.0895 148.499 62.4883 142.245 64.3023 134.799C66.1163 127.353 72.7394 123.103 79.8476 124.664C81.6087 125.009 83.2468 125.814 84.5955 126.998C85.9441 128.182 86.955 129.702 87.5253 131.403C90.002 138.551 92.114 145.819 93.8531 153.181C95.7726 161.45 96.8905 169.908 98.6834 178.218C99.4546 181.456 100.668 184.572 102.29 187.478C102.965 188.744 105.022 190.189 106.224 189.999C107.067 189.788 107.846 189.377 108.496 188.8C109.146 188.224 109.647 187.499 109.957 186.687C111.095 182.096 111.78 177.406 112.003 172.682C112.32 162.367 112.003 152.042 112.225 141.728C112.379 137.478 112.862 133.247 113.67 129.072C114.661 123.62 118.004 120.635 123.161 119.876C128.719 119.117 133.297 121.089 135.374 126.204C137.282 130.77 138.597 135.562 139.287 140.462C141.396 156.989 141.67 173.557 138.106 189.967C136.692 196.534 133.703 202.658 129.394 207.811C117.466 222.207 97.9452 222.872 84.5829 209.351C78.466 203.15 74.6482 195.504 72.0749 187.394C68.9321 177.512 65.7682 168.758 64.3023 157.685Z" fill="#F3A8BD"/>
<path d="M77.0532 42.5386C77.7915 57.4828 78.0446 72.2477 74.828 86.8333C72.2758 98.3499 66.6651 108.042 55.8445 113.674C45.024 119.306 32.3895 117.08 22.8556 108.643C15.8844 102.463 12.0666 94.3212 8.85 85.8736C3.84646 72.3724 0.885472 58.2003 0.0648707 43.8253C-0.158733 39.7913 0.196416 35.7462 1.11951 31.813C2.40616 26.0652 7.13095 22.4584 12.8787 22.0154C17.9199 21.6146 22.3704 23.9559 24.3637 29.6721C27.0009 37.6342 29.2117 45.7312 30.9868 53.9287C32.7902 61.7119 33.9081 69.6533 35.6483 77.447C36.3344 80.2912 37.4701 83.0077 39.0126 85.4939C41.1957 89.0902 44.792 88.816 46.395 84.8928C47.5492 82.0921 48.2093 79.1126 48.3461 76.0866C48.5781 65.9726 48.2406 55.8481 48.5254 45.7447C48.7185 39.3869 49.3032 33.0471 50.2761 26.7613C51.1409 21.1401 54.7477 18.166 60.1053 17.5859C65.6421 16.9848 70.2509 19.0624 72.1281 24.2512C74.2585 30.1255 75.4502 36.4112 77.0532 42.5386Z" fill="#F3A8BD"/>
<path d="M41.4902 165.288C44.6541 169.96 47.9446 174.663 51.0768 179.473C53.0907 182.31 54.3071 185.635 54.5993 189.101C54.863 193.984 50.8237 197.539 46.0989 196.315C43.8366 195.706 41.7154 194.66 39.8555 193.236C36.3752 190.504 33.1902 187.393 29.6993 184.282C29.4441 184.936 29.1482 185.573 28.8135 186.191C26.7042 189.618 24.7004 193.141 22.3485 196.41C21.2365 197.773 19.8206 198.857 18.2144 199.574C14.0486 201.683 10.0409 199.511 9.36598 194.881C8.82923 190.693 9.68927 186.444 11.8127 182.795C13.922 178.998 16.4848 175.412 18.7944 171.921C15.2298 166.648 11.2749 161.101 7.75239 155.311C6.20552 152.745 5.15378 149.912 4.65176 146.958C3.68149 141.179 8.18478 137.213 13.7743 138.89C16.3178 139.693 18.6741 140.998 20.7033 142.729C23.941 145.429 26.7991 148.593 29.8365 151.588C31.0282 149.131 32.0723 146.536 33.4855 144.206C34.9802 141.684 36.6842 139.292 38.5794 137.055C39.4685 135.943 40.6985 135.154 42.0799 134.809C43.4614 134.464 44.9179 134.583 46.2255 135.146C49.2207 136.264 50.2753 138.711 50.2225 141.696C49.9892 146.71 48.7028 151.618 46.447 156.102C44.9599 159.266 43.1143 162.324 41.4902 165.288Z" fill="#F3A8BD"/>
</svg>