<svg width="421" height="226" viewBox="0 0 421 226" fill="none" xmlns="http://www.w3.org/2000/svg">
<path d="M331.492 109.089L333.753 125.888L329.852 126.413L328.926 119.504L321.272 120.554L322.186 127.453L318.285 127.978L316.035 111.178L319.936 110.653L320.83 117.289L328.485 116.239L327.591 109.603L331.492 109.089Z" fill="#E1A7BC"/>
<path d="M345.708 112.417C346.35 112.898 346.88 113.514 347.257 114.222C347.635 114.929 347.853 115.711 347.895 116.512L348.883 123.862L345.371 124.335L345.161 122.718C344.614 124.02 343.373 124.818 341.449 125.049C340.561 125.192 339.653 125.138 338.789 124.891C338.071 124.685 337.429 124.277 336.938 123.715C336.463 123.173 336.166 122.499 336.086 121.783C335.992 121.238 336.032 120.678 336.203 120.151C336.373 119.624 336.669 119.147 337.064 118.759C338.216 117.808 339.641 117.249 341.134 117.163L344.12 116.764C344.087 116.408 343.975 116.063 343.793 115.755C343.612 115.446 343.364 115.181 343.068 114.979C342.365 114.576 341.538 114.445 340.745 114.612C340.055 114.705 339.384 114.907 338.757 115.21C338.17 115.465 337.633 115.82 337.169 116.26L335.477 113.824C336.179 113.192 336.987 112.687 337.863 112.333C338.816 111.923 339.821 111.647 340.85 111.514C342.525 111.189 344.262 111.512 345.708 112.417ZM343.699 121.762C344.158 121.4 344.471 120.886 344.582 120.313L344.404 118.99L341.828 119.326C340.292 119.536 339.588 120.145 339.725 121.153C339.747 121.374 339.824 121.585 339.949 121.769C340.074 121.952 340.242 122.101 340.44 122.203C340.938 122.446 341.502 122.524 342.048 122.424C342.643 122.372 343.214 122.162 343.699 121.815V121.762Z" fill="#E1A7BC"/>
<path d="M353.457 123.075C352.564 122.995 351.69 122.768 350.871 122.403L351.765 119.547C352.467 119.859 353.21 120.068 353.973 120.166C354.789 120.281 355.617 120.281 356.433 120.166C358.021 119.956 358.767 119.452 358.652 118.665C358.652 118.297 358.357 118.066 357.905 117.961C357.211 117.839 356.506 117.79 355.802 117.814C354.901 117.814 354.002 117.747 353.11 117.615C352.397 117.505 351.726 117.207 351.165 116.754C350.547 116.196 350.17 115.421 350.114 114.591C350 113.809 350.147 113.012 350.534 112.323C350.976 111.571 351.626 110.962 352.406 110.569C353.389 110.056 354.458 109.728 355.56 109.603C356.481 109.488 357.411 109.467 358.336 109.54C359.145 109.59 359.941 109.771 360.692 110.076L359.798 112.911C358.576 112.414 357.243 112.255 355.939 112.449C355.314 112.491 354.71 112.689 354.183 113.026C354.024 113.125 353.894 113.265 353.807 113.431C353.72 113.598 353.679 113.784 353.689 113.971C353.717 114.164 353.807 114.341 353.946 114.478C354.084 114.614 354.263 114.702 354.456 114.727C355.151 114.845 355.855 114.904 356.559 114.906C357.453 114.923 358.345 114.993 359.23 115.116C359.93 115.228 360.587 115.525 361.133 115.977C361.742 116.515 362.118 117.268 362.185 118.077C362.305 118.85 362.153 119.64 361.754 120.313C361.294 121.064 360.63 121.668 359.84 122.056C358.833 122.564 357.743 122.887 356.622 123.012C355.574 123.165 354.511 123.186 353.457 123.075Z" fill="#E1A7BC"/>
<path d="M373.341 119.998C372.966 120.339 372.531 120.606 372.058 120.785C371.522 121.002 370.96 121.147 370.386 121.216C369.099 121.474 367.761 121.226 366.653 120.523C366.149 120.126 365.735 119.627 365.438 119.059C365.141 118.49 364.967 117.866 364.929 117.226L364.214 111.913L362.216 112.176L361.837 109.288L363.835 109.026L363.415 105.876L367.168 105.372L367.589 108.522L370.817 108.091L371.196 110.979L367.978 111.409L368.683 116.659C368.712 117.12 368.924 117.551 369.271 117.856C369.448 117.99 369.65 118.085 369.866 118.136C370.081 118.187 370.305 118.191 370.523 118.15C371.068 118.085 371.577 117.846 371.974 117.467L373.341 119.998Z" fill="#E1A7BC"/>
<path d="M383.824 107.325C384.465 107.807 384.993 108.424 385.371 109.131C385.749 109.838 385.967 110.619 386.011 111.42L386.999 118.77L383.487 119.242L383.267 117.636C382.73 118.927 381.49 119.736 379.565 119.967C378.677 120.1 377.771 120.046 376.905 119.809C376.186 119.6 375.541 119.192 375.044 118.633C374.576 118.084 374.283 117.407 374.203 116.691C374.104 116.147 374.142 115.587 374.313 115.061C374.483 114.536 374.781 114.06 375.181 113.677C376.326 112.722 377.749 112.162 379.239 112.081L382.226 111.682C382.195 111.324 382.085 110.976 381.903 110.666C381.722 110.355 381.472 110.089 381.174 109.887C380.469 109.489 379.643 109.362 378.85 109.53C378.16 109.623 377.49 109.825 376.863 110.128C376.272 110.399 375.735 110.772 375.275 111.231L373.583 108.784C374.288 108.156 375.095 107.651 375.969 107.293C376.925 106.892 377.929 106.617 378.956 106.474C380.628 106.142 382.364 106.445 383.824 107.325ZM381.816 116.67C382.275 116.309 382.589 115.794 382.699 115.221L382.52 113.898L379.944 114.244C378.409 114.444 377.704 115.053 377.841 116.061C377.866 116.281 377.944 116.491 378.069 116.674C378.193 116.857 378.361 117.007 378.556 117.111C379.054 117.356 379.62 117.43 380.165 117.321C380.765 117.26 381.336 117.035 381.816 116.67Z" fill="#E1A7BC"/>
<path d="M319.441 139.034L323.206 138.53L325.593 156.38L321.839 156.884L319.441 139.034Z" fill="#E1A7BC"/>
<path d="M326.697 138.068L330.44 137.564L332.827 155.414L329.073 155.918L326.697 138.068Z" fill="#E1A7BC"/>
<path d="M348.221 147.844L338.422 149.114C338.687 149.86 339.224 150.478 339.925 150.847C340.72 151.226 341.611 151.355 342.48 151.214C343.094 151.139 343.689 150.954 344.236 150.668C344.753 150.384 345.205 149.994 345.561 149.524L347.853 151.424C347.267 152.235 346.509 152.906 345.633 153.391C344.757 153.875 343.784 154.161 342.785 154.228C341.446 154.436 340.075 154.321 338.79 153.892C337.646 153.511 336.635 152.812 335.877 151.876C335.118 150.919 334.641 149.77 334.5 148.558C334.323 147.357 334.476 146.13 334.941 145.009C335.395 143.921 336.146 142.983 337.107 142.3C338.109 141.602 339.262 141.15 340.471 140.982C341.681 140.814 342.914 140.935 344.068 141.334C345.155 141.729 346.104 142.429 346.802 143.35C347.551 144.354 348.019 145.539 348.158 146.783C348.158 146.783 348.19 147.214 348.221 147.844ZM338.853 144.914C338.341 145.494 338.06 146.241 338.064 147.014L344.436 146.164C344.243 145.414 343.774 144.765 343.122 144.347C342.482 143.93 341.712 143.758 340.956 143.864C340.145 143.931 339.392 144.307 338.853 144.914Z" fill="#E1A7BC"/>
<path d="M363.152 138.194L364.592 148.967C364.798 149.918 364.802 150.902 364.605 151.855C364.407 152.808 364.013 153.709 363.446 154.501C362.094 155.948 360.24 156.827 358.262 156.958C357.059 157.12 355.838 157.12 354.635 156.958C353.592 156.849 352.582 156.528 351.67 156.013L352.805 153.125C353.485 153.523 354.234 153.79 355.013 153.913C355.856 154.07 356.719 154.091 357.568 153.976C358.618 153.925 359.608 153.474 360.334 152.716C360.615 152.316 360.81 151.862 360.908 151.383C361.005 150.905 361.003 150.411 360.901 149.933L360.828 149.377C360.379 149.998 359.798 150.514 359.128 150.888C358.458 151.261 357.714 151.484 356.948 151.54C355.813 151.711 354.654 151.599 353.573 151.214C352.536 150.838 351.623 150.184 350.933 149.324C350.231 148.404 349.781 147.316 349.628 146.169C349.475 145.022 349.624 143.855 350.061 142.783C350.513 141.767 351.242 140.897 352.164 140.273C353.098 139.613 354.182 139.194 355.318 139.055C356.121 138.896 356.95 138.93 357.738 139.152C358.526 139.375 359.25 139.781 359.85 140.336L359.629 138.677L363.152 138.194ZM359.608 147.172C359.871 146.83 360.064 146.44 360.176 146.024C360.287 145.607 360.316 145.173 360.259 144.746C360.202 144.319 360.062 143.907 359.845 143.534C359.629 143.161 359.341 142.834 358.998 142.573C358.248 142.063 357.326 141.867 356.433 142.027C355.53 142.114 354.695 142.542 354.098 143.224C353.836 143.566 353.643 143.956 353.531 144.372C353.419 144.788 353.391 145.222 353.448 145.65C353.504 146.077 353.645 146.489 353.861 146.862C354.077 147.235 354.365 147.561 354.708 147.823C355.465 148.327 356.387 148.523 357.284 148.369C358.185 148.286 359.019 147.857 359.608 147.172Z" fill="#E1A7BC"/>
<path d="M376.706 137.649C377.334 138.142 377.846 138.766 378.209 139.476C378.572 140.187 378.777 140.967 378.809 141.765L379.798 149.114L376.275 149.576L376.065 147.97C375.518 149.261 374.288 150.07 372.353 150.301C371.468 150.433 370.566 150.38 369.703 150.143C368.982 149.94 368.335 149.531 367.842 148.967C367.375 148.416 367.08 147.741 366.991 147.025C366.896 146.48 366.937 145.921 367.109 145.395C367.281 144.87 367.58 144.395 367.979 144.011C369.124 143.056 370.548 142.496 372.038 142.415L375.024 142.016C374.991 141.658 374.88 141.312 374.699 141.002C374.517 140.691 374.269 140.425 373.972 140.221C373.263 139.823 372.434 139.697 371.638 139.864C370.949 139.96 370.278 140.162 369.651 140.463C369.063 140.733 368.529 141.106 368.074 141.565L366.37 139.119C367.077 138.492 367.884 137.988 368.757 137.628C369.716 137.226 370.724 136.951 371.754 136.809C373.451 136.449 375.223 136.749 376.706 137.649ZM374.603 147.014C375.066 146.654 375.383 146.14 375.497 145.565L375.318 144.242L372.742 144.589C371.193 144.792 370.492 145.401 370.639 146.416C370.664 146.636 370.742 146.846 370.867 147.029C370.992 147.212 371.159 147.362 371.354 147.466C371.856 147.711 372.425 147.785 372.973 147.676C373.569 147.614 374.134 147.385 374.603 147.014Z" fill="#E1A7BC"/>
<path d="M386.947 135.307C387.739 134.865 388.611 134.583 389.513 134.478L389.975 137.943C389.555 137.943 389.271 137.943 389.134 138.006C388.67 138.038 388.217 138.164 387.803 138.378C387.389 138.591 387.022 138.885 386.726 139.245C386.447 139.653 386.253 140.114 386.157 140.6C386.062 141.085 386.066 141.585 386.169 142.069L386.989 148.18L383.235 148.673L381.5 135.738L385.086 135.265L385.317 136.966C385.694 136.271 386.258 135.696 386.947 135.307Z" fill="#E1A7BC"/>
<path d="M333.984 172.718C334.623 173.202 335.149 173.819 335.527 174.526C335.905 175.233 336.124 176.013 336.171 176.813L337.159 184.163L333.637 184.635L333.426 183.018C332.88 184.32 331.649 185.118 329.715 185.349C328.831 185.493 327.926 185.439 327.065 185.192C326.346 184.988 325.701 184.584 325.204 184.026C324.739 183.474 324.443 182.8 324.352 182.084C324.258 181.538 324.298 180.977 324.471 180.45C324.643 179.923 324.941 179.445 325.341 179.06C326.485 178.11 327.903 177.551 329.389 177.464L332.375 177.065C332.345 176.708 332.234 176.362 332.052 176.053C331.87 175.744 331.621 175.48 331.323 175.28C330.616 174.878 329.786 174.747 328.989 174.913C328.3 175.009 327.63 175.211 327.002 175.511C326.414 175.781 325.88 176.155 325.425 176.614L323.721 174.178C324.425 173.548 325.233 173.043 326.108 172.687C327.064 172.276 328.073 172 329.105 171.868C330.78 171.529 332.522 171.832 333.984 172.718ZM331.975 182.063C332.427 181.695 332.739 181.184 332.859 180.614L332.68 179.291L330.104 179.627C328.562 179.837 327.861 180.446 328.001 181.454C328.026 181.675 328.105 181.886 328.232 182.07C328.359 182.253 328.528 182.402 328.726 182.504C329.226 182.744 329.79 182.818 330.335 182.714C330.93 182.647 331.496 182.422 331.975 182.063Z" fill="#E1A7BC"/>
<path d="M355.676 181.097C355.306 181.438 354.874 181.705 354.404 181.885C353.867 182.099 353.305 182.244 352.732 182.315C351.445 182.576 350.107 182.327 348.999 181.622C348.495 181.225 348.081 180.726 347.784 180.158C347.487 179.589 347.313 178.965 347.275 178.325L346.56 173.012L344.562 173.275L344.173 170.387L346.171 170.125L345.75 166.975L349.504 166.471L349.925 169.621L353.153 169.19L353.542 172.078L350.314 172.508L351.018 177.758C351.05 178.221 351.262 178.654 351.607 178.966C351.783 179.099 351.986 179.194 352.201 179.245C352.417 179.295 352.641 179.3 352.858 179.26C353.404 179.2 353.915 178.959 354.309 178.577L355.676 181.097Z" fill="#E1A7BC"/>
<path d="M359.882 180.499C358.764 180.096 357.779 179.395 357.033 178.472C356.274 177.515 355.797 176.366 355.655 175.154C355.476 173.945 355.632 172.711 356.107 171.584C356.586 170.496 357.358 169.562 358.336 168.886C359.406 168.17 360.626 167.708 361.902 167.537C363.178 167.366 364.476 167.49 365.697 167.899C366.812 168.305 367.794 169.01 368.536 169.936C369.276 170.903 369.751 172.046 369.913 173.252C370.075 174.458 369.92 175.686 369.461 176.813C368.994 177.902 368.229 178.837 367.253 179.512C366.199 180.248 364.977 180.71 363.699 180.856C362.417 181.055 361.105 180.932 359.882 180.499ZM365.497 176.488C366.003 175.666 366.209 174.696 366.083 173.74C365.957 172.784 365.505 171.9 364.803 171.238C364.456 170.959 364.053 170.757 363.622 170.644C363.19 170.532 362.74 170.513 362.301 170.587C361.855 170.63 361.424 170.768 361.036 170.991C360.648 171.213 360.312 171.516 360.05 171.878C359.545 172.7 359.338 173.67 359.464 174.626C359.591 175.582 360.043 176.466 360.744 177.128C361.093 177.409 361.497 177.612 361.931 177.724C362.364 177.836 362.816 177.855 363.257 177.779C363.692 177.727 364.11 177.585 364.487 177.363C364.863 177.141 365.189 176.843 365.444 176.488H365.497Z" fill="#E1A7BC"/>
<path d="M384.003 159.782L386.4 177.632L382.804 178.115L382.604 176.624C382.184 177.258 381.623 177.787 380.965 178.17C380.306 178.552 379.568 178.778 378.809 178.829C377.657 179.002 376.48 178.876 375.391 178.462C374.337 178.05 373.421 177.347 372.752 176.435C372.05 175.422 371.599 174.257 371.437 173.035C371.274 171.814 371.404 170.572 371.816 169.411C372.216 168.357 372.914 167.441 373.824 166.775C374.75 166.091 375.836 165.657 376.979 165.515C377.694 165.379 378.431 165.403 379.136 165.584C379.842 165.766 380.498 166.101 381.059 166.565L380.218 160.265L384.003 159.782ZM381.258 174.377C381.775 173.558 381.987 172.584 381.858 171.625C381.729 170.666 381.268 169.782 380.554 169.127C379.837 168.593 378.939 168.36 378.052 168.48C377.165 168.6 376.361 169.062 375.812 169.768C375.296 170.587 375.084 171.561 375.212 172.52C375.341 173.479 375.802 174.363 376.516 175.018C377.232 175.555 378.131 175.789 379.019 175.669C379.906 175.549 380.711 175.085 381.258 174.377Z" fill="#E1A7BC"/>
<path d="M398.145 164.15C398.787 164.632 399.315 165.249 399.692 165.956C400.07 166.663 400.288 167.445 400.332 168.245L401.321 175.595L397.809 176.067L397.588 174.461C397.052 175.752 395.811 176.561 393.887 176.792C392.998 176.926 392.091 176.868 391.226 176.624C390.507 176.421 389.861 176.017 389.365 175.458C388.898 174.909 388.605 174.233 388.524 173.516C388.427 172.97 388.465 172.409 388.635 171.882C388.806 171.355 389.103 170.877 389.502 170.492C390.652 169.545 392.073 168.986 393.561 168.896L396.547 168.497C396.515 168.14 396.404 167.795 396.223 167.486C396.041 167.178 395.792 166.913 395.495 166.712C394.79 166.314 393.964 166.187 393.172 166.355C392.481 166.444 391.809 166.646 391.184 166.953C390.594 167.224 390.056 167.597 389.597 168.056L387.904 165.61C388.609 164.981 389.416 164.477 390.291 164.119C391.245 163.713 392.249 163.438 393.277 163.3C394.949 162.968 396.685 163.271 398.145 164.15ZM396.137 173.495C396.594 173.131 396.906 172.618 397.02 172.046L396.841 170.723L394.265 171.069C392.73 171.269 392.026 171.878 392.162 172.886C392.187 173.106 392.266 173.316 392.39 173.499C392.515 173.682 392.682 173.832 392.877 173.936C393.376 174.182 393.941 174.256 394.486 174.146C395.086 174.085 395.657 173.86 396.137 173.495Z" fill="#E1A7BC"/>
<path d="M405.894 174.807C405.002 174.726 404.129 174.503 403.308 174.146L404.201 171.28C404.902 171.597 405.646 171.809 406.41 171.91C407.226 172.02 408.054 172.02 408.87 171.91C410.458 171.7 411.194 171.196 411.089 170.419C411.089 170.051 410.794 169.81 410.332 169.705C409.637 169.586 408.932 169.54 408.229 169.568C407.328 169.563 406.428 169.496 405.537 169.369C404.824 169.25 404.154 168.95 403.592 168.497C402.968 167.943 402.59 167.166 402.54 166.334C402.421 165.552 402.569 164.753 402.961 164.066C403.406 163.316 404.055 162.708 404.832 162.313C405.814 161.798 406.884 161.474 407.987 161.357C408.907 161.231 409.838 161.21 410.763 161.294C411.571 161.342 412.366 161.519 413.118 161.819L412.224 164.654C411.001 164.164 409.67 164.005 408.365 164.192C407.738 164.236 407.131 164.435 406.599 164.77C406.441 164.87 406.314 165.01 406.229 165.177C406.144 165.343 406.104 165.528 406.115 165.715C406.141 165.908 406.231 166.086 406.37 166.223C406.509 166.36 406.689 166.447 406.883 166.471C407.577 166.593 408.281 166.653 408.986 166.649C409.88 166.665 410.772 166.738 411.656 166.87C412.358 166.977 413.016 167.275 413.56 167.731C414.168 168.269 414.545 169.021 414.611 169.831C414.73 170.603 414.578 171.393 414.18 172.067C413.717 172.812 413.054 173.412 412.266 173.8C411.261 174.311 410.17 174.634 409.049 174.755C408.004 174.909 406.944 174.927 405.894 174.807Z" fill="#E1A7BC"/>
<path d="M417.198 173.023C416.946 172.832 416.736 172.593 416.581 172.318C416.425 172.044 416.328 171.74 416.294 171.427C416.243 171.119 416.257 170.804 416.335 170.502C416.413 170.201 416.553 169.918 416.746 169.673C417.147 169.203 417.708 168.896 418.321 168.813C418.934 168.73 419.556 168.875 420.069 169.222C420.323 169.408 420.534 169.645 420.69 169.918C420.846 170.191 420.942 170.494 420.973 170.807C421.021 171.118 421.005 171.435 420.928 171.74C420.85 172.045 420.712 172.331 420.521 172.582C420.133 173.072 419.569 173.392 418.949 173.474C418.329 173.557 417.701 173.395 417.198 173.023Z" fill="#E1A7BC"/>
<path d="M117.294 69.7352C117.83 77.3056 118.608 84.9285 118.84 92.5724C118.929 97.4872 118.64 102.402 117.978 107.272C117.305 112.816 114.592 115.525 109.986 116.113C105.086 116.743 101.175 114.769 99.3558 109.572C96.6807 102.303 94.513 94.8586 92.8682 87.291C89.585 71.5799 88.3165 55.5157 89.0933 39.485C89.2776 35.8926 90.019 32.3505 91.2909 28.9851C94.0669 21.7822 101.375 18.9367 107.831 23.1891C112.428 26.4166 116.457 30.3835 119.755 34.928C126.863 44.2519 132.299 54.6153 136.957 65.3777C137.188 65.8922 137.462 66.4277 137.714 66.9002L138.46 66.7532C137.409 57.9123 136.074 49.1029 135.558 40.2409C135.352 34.5085 135.704 28.7696 136.61 23.1051C137.346 17.7817 140.185 15.3142 144.759 14.7052C149.564 14.1172 153.476 16.0597 155.274 21.0051C156.986 25.6269 158.219 30.4119 158.954 35.285C161.909 55.1823 163.16 75.1846 160.479 95.2079C160.165 97.4035 159.59 99.5539 158.765 101.613C155.61 109.761 145.789 112.249 139.838 105.813C134.702 100.027 130.105 93.7851 126.106 87.165C122.667 81.663 120.196 75.6151 117.294 69.7352Z" fill="#222221"/>
<path d="M201.959 168.476C201.055 160.58 199.782 152.726 199.372 144.788C199.111 138.456 199.382 132.113 200.182 125.826C201.002 118.843 205.713 115.399 211.811 116.638C216.827 117.688 219.435 121.321 220.223 125.899C222.084 136.704 224.187 147.55 224.934 158.449C225.701 169.663 225.113 180.982 224.797 192.248C224.629 195.772 223.96 199.254 222.81 202.59C219.876 211.557 209.751 214.298 203.347 207.378C198.213 201.591 193.637 195.333 189.678 188.688C186.26 183.208 183.81 177.139 181.266 171.889C181.729 179.743 182.433 188.268 182.654 196.815C182.692 201.241 182.34 205.661 181.602 210.024C180.898 214.718 178.353 217.206 174.4 217.92C169.805 218.739 165.872 217.458 164.043 213.059C161.296 206.475 159.097 199.676 157.471 192.731C153.748 176.386 152.157 159.629 152.739 142.877C152.831 139.66 153.279 136.463 154.075 133.344C156.703 123.169 166.219 120.061 174.484 126.645C180.572 131.496 184.925 137.869 188.742 144.494C192.948 151.844 196.639 159.436 200.561 166.912C200.876 167.5 201.233 168.056 201.559 168.623L201.959 168.476Z" fill="#222221"/>
<path d="M285.753 183.428C278.161 185.381 271.189 187.26 264.166 188.898C263.485 188.955 262.844 189.245 262.353 189.72C261.863 190.195 261.552 190.825 261.474 191.502C260.857 194.764 260.045 197.986 259.045 201.152C257.005 207.158 253.072 209.793 246.963 209.646C241.359 209.499 237.342 206.685 236.228 200.48C235.159 194.24 234.722 187.908 234.924 181.58C235.382 163.033 238.779 144.676 244.987 127.191C248.309 117.804 254.545 111.441 264.965 110.202C268.073 109.736 271.249 110.02 274.225 111.03C277.201 112.04 279.892 113.747 282.072 116.008C287.971 121.857 291.672 129.165 295.542 136.336C302.145 148.6 307.739 161.315 311.156 174.85C312.427 180.011 313.171 185.288 313.375 190.599C313.606 195.702 310.978 198.999 306.887 200.459C301.462 202.328 297.014 201.509 293.817 197.225C291.02 193.455 288.949 189.161 286.573 185.076C286.163 184.373 285.816 183.544 285.753 183.428ZM277.866 164.728C274.418 154.826 271.084 145.261 267.762 135.685H267.373C266.552 146.416 265.722 157.136 264.881 168.098L277.866 164.728Z" fill="#222221"/>
<path d="M223.525 81.411C215.797 83.3535 208.51 85.1384 201.255 87.0914C200.803 87.2947 200.399 87.5918 200.071 87.9629C199.743 88.3341 199.498 88.7707 199.352 89.2439C198.416 92.3938 197.911 95.7433 196.87 98.8828C194.546 105.844 189.405 108.7 182.255 107.283C177.523 106.348 174.4 102.715 173.485 96.9613C172.158 87.5627 172.084 78.0298 173.264 68.6116C174.842 53.6598 177.575 38.9284 182.822 24.7851C185.977 16.3852 191.381 10.2742 200.698 8.42622C208.847 6.79874 216.007 8.82519 221.033 15.3561C225.64 21.4698 229.774 27.9249 233.399 34.6654C240.462 47.1209 245.8 60.4762 249.266 74.3655C250.323 78.9747 250.964 83.6696 251.179 88.3934C251.432 93.3388 248.824 97.0033 244.87 98.4418C239.487 100.405 234.892 99.6808 231.706 95.4913C228.93 91.8374 226.869 87.6374 224.535 83.6579C224.155 82.9291 223.818 82.1789 223.525 81.411ZM205.461 33.752L205.04 33.8569C204.209 44.5668 203.379 55.2767 202.538 66.1651L215.513 62.6477C212.075 52.7778 208.773 43.2649 205.461 33.752Z" fill="#222221"/>
<path d="M68.0109 164.497C67.8321 156.905 66.6334 149.503 68.4735 142.079C70.3136 134.656 76.8854 130.435 83.9829 131.999C85.7378 132.341 87.3708 133.141 88.7155 134.317C90.0602 135.494 91.0685 137.006 91.6377 138.698C94.0561 145.817 96.2327 153.062 97.9466 160.381C99.8498 168.623 100.964 177.044 102.752 185.307C103.524 188.53 104.733 191.632 106.348 194.526C107.021 195.786 109.082 197.225 110.27 197.046C111.104 196.832 111.875 196.422 112.519 195.85C113.163 195.279 113.66 194.562 113.971 193.76C115.095 189.191 115.778 184.525 116.011 179.826C116.316 169.558 116.011 159.278 116.221 149.009C116.373 144.778 116.858 140.565 117.672 136.409C118.65 130.97 121.983 128.009 127.136 127.253C132.677 126.497 137.24 128.45 139.322 133.553C141.221 138.096 142.529 142.864 143.213 147.739C145.316 164.203 145.589 180.687 142.046 197.036C140.635 203.572 137.65 209.666 133.35 214.791C121.458 229.134 101.995 229.785 88.6725 216.324C82.5739 210.161 78.7675 202.548 76.2019 194.463C73.0685 184.604 70.7237 174.503 68.0109 164.497Z" fill="#222221"/>
<path d="M79.136 49.7749C79.851 64.2858 80.1034 78.6181 76.97 92.7615C74.499 103.944 69.0418 113.352 58.4954 118.812C47.949 124.272 35.7203 122.161 26.4462 113.929C19.6747 107.934 15.9314 100.038 12.777 91.8795C7.91798 78.7737 5.04039 65.0185 4.23888 51.0664C4.03157 47.1512 4.38564 43.2266 5.29037 39.4115C6.54163 33.8256 11.1366 30.3291 16.72 29.8881C21.6199 29.5101 25.9415 31.7781 27.8762 37.3325C30.4431 45.0485 32.5947 52.8962 34.3218 60.8418C36.0778 68.3912 37.1608 76.0981 38.8537 83.658C39.516 86.4239 40.6202 89.0652 42.1238 91.4805C44.2268 94.9664 47.7387 94.6934 49.2529 90.8925C50.3773 88.1748 51.0213 85.283 51.1561 82.3455C51.3874 72.5281 51.0509 62.7002 51.3348 52.8828C51.5181 46.7075 52.087 40.5496 53.0382 34.445C53.8794 28.9956 57.3808 26.1081 62.5857 25.5411C67.9693 24.9531 72.4486 26.9796 74.2676 32.009C76.3811 37.721 77.5272 43.8215 79.136 49.7749Z" fill="#222221"/>
<path d="M44.4373 169.064C47.5182 173.6 50.7462 178.157 53.7534 182.83C55.7157 185.581 56.8998 188.809 57.1813 192.174C57.4336 196.92 53.5116 200.406 48.9166 199.188C46.7174 198.592 44.6562 197.572 42.8496 196.185C39.4638 193.539 36.3619 190.515 32.9762 187.502C32.7265 188.135 32.4385 188.752 32.1139 189.35C30.0635 192.678 28.1183 196.101 25.805 199.262C24.7198 200.591 23.3415 201.651 21.7779 202.359C17.7297 204.396 13.8287 202.286 13.1872 197.792C12.6589 193.728 13.4946 189.603 15.5636 186.063C17.593 182.378 20.106 178.955 22.3457 175.501C18.8758 170.356 14.9853 165.001 11.61 159.394C10.1124 156.898 9.09266 154.146 8.6028 151.277C7.65646 145.67 12.0306 141.827 17.4668 143.444C19.9384 144.229 22.2294 145.496 24.2068 147.172C27.3612 149.797 30.1266 152.863 33.0813 155.771C34.2379 153.388 35.2474 150.868 36.6248 148.568C38.0764 146.119 39.7332 143.798 41.5773 141.628C42.4403 140.546 43.6358 139.778 44.9793 139.442C46.3228 139.107 47.7397 139.221 49.0113 139.769C51.9239 140.819 52.9438 143.234 52.8912 146.069C52.6815 150.963 51.4305 155.756 49.2216 160.129C47.8021 163.226 46.004 166.145 44.4373 169.064Z" fill="#222221"/>
<path d="M112.962 61.8601C113.498 69.4201 114.276 77.0535 114.507 84.6974C114.592 89.6121 114.303 94.526 113.645 99.3973C112.962 104.941 110.259 107.661 105.654 108.249C100.754 108.868 96.8424 106.894 95.0128 101.697C92.3459 94.4256 90.1783 86.9814 88.5251 79.4159C85.2502 63.7038 83.9853 47.6401 84.7608 31.61C84.9471 28.0178 85.6885 24.476 86.9584 21.1101C89.7344 13.9071 97.0421 11.0721 103.498 15.3141C108.094 18.5482 112.122 22.5181 115.422 27.0635C122.52 36.3769 127.966 46.7403 132.624 57.5132C132.856 58.0277 133.129 58.5632 133.381 59.0357L134.117 58.8887C133.066 50.0582 131.741 41.2383 131.226 32.3764C131.02 26.6475 131.372 20.9121 132.277 15.2511C133.013 9.92766 135.842 7.44969 140.426 6.85119C145.232 6.2632 149.143 8.21618 150.941 13.1511C152.652 17.7769 153.886 22.5652 154.621 27.4415C157.576 47.3388 158.827 67.3411 156.146 87.3644C155.833 89.5566 155.257 91.7035 154.432 93.7588C151.278 101.907 141.457 104.395 135.505 97.9588C130.361 92.1785 125.757 85.94 121.752 79.3215C118.324 73.7775 115.853 67.6771 112.962 61.8601Z" fill="#F3A8BD"/>
<path d="M197.627 160.601C196.723 152.705 195.44 144.851 195.041 136.913C194.781 130.578 195.049 124.232 195.84 117.94C196.671 110.958 201.371 107.524 207.48 108.763C212.495 109.813 215.103 113.436 215.892 118.024C217.763 128.829 219.866 139.664 220.613 150.574C221.38 161.798 220.792 173.117 220.476 184.383C220.307 187.904 219.638 191.383 218.489 194.715C215.545 203.714 205.429 206.423 199.005 199.514C193.87 193.727 189.293 187.469 185.336 180.824C181.918 175.333 179.468 169.274 176.924 164.024C177.386 171.868 178.091 180.404 178.312 188.951C178.349 193.376 177.997 197.796 177.26 202.16C176.545 206.853 174.011 209.331 170.058 210.045C165.452 210.875 161.52 209.594 159.7 205.184C156.927 198.59 154.711 191.777 153.076 184.814C149.37 168.47 147.79 151.718 148.376 134.971C148.472 131.754 148.92 128.557 149.711 125.437C152.351 115.263 161.867 112.144 170.121 118.728C176.219 123.589 180.572 129.952 184.389 136.577C188.595 143.927 192.286 151.508 196.208 158.995C196.513 159.572 196.87 160.129 197.207 160.706L197.627 160.601Z" fill="#F3A8BD"/>
<path d="M281.42 175.553C273.828 177.495 266.857 179.375 259.833 181.013C259.15 181.07 258.509 181.361 258.018 181.838C257.527 182.315 257.217 182.948 257.141 183.627C256.523 186.889 255.712 190.111 254.712 193.277C252.672 199.283 248.74 201.918 242.631 201.761C237.026 201.624 233.01 198.81 231.895 192.594C230.825 186.354 230.388 180.022 230.591 173.694C231.049 155.144 234.445 136.784 240.654 119.295C243.977 109.908 250.201 103.545 260.632 102.306C263.75 101.842 266.934 102.132 269.916 103.152C272.898 104.171 275.592 105.89 277.771 108.165C283.67 114.003 287.371 121.311 291.23 128.492C297.844 140.714 303.438 153.44 306.855 166.964C308.122 172.126 308.865 177.403 309.074 182.714C309.305 187.806 306.666 191.114 302.586 192.563C297.161 194.442 292.713 193.613 289.516 189.339C286.719 185.57 284.637 181.265 282.272 177.191C281.82 176.487 281.483 175.668 281.42 175.553ZM273.481 156.853C270.043 146.941 266.71 137.375 263.376 127.81H262.998C262.178 138.53 261.347 149.261 260.506 160.223L273.481 156.853Z" fill="#F3A8BD"/>
<path d="M219.193 73.5151C211.465 75.4576 204.168 77.2425 196.923 79.1955C196.471 79.3987 196.067 79.6959 195.739 80.067C195.411 80.4381 195.166 80.8749 195.02 81.348C194.073 84.498 193.579 87.8369 192.538 90.9764C190.214 97.9378 185.062 100.794 177.923 99.3763C173.191 98.4418 170.068 94.8194 169.143 89.0654C167.825 79.6658 167.754 70.1338 168.932 60.7157C170.51 45.7639 173.243 31.0325 178.48 16.8892C181.634 8.48926 187.049 2.3783 196.355 0.530321C204.504 -1.08666 211.665 0.929302 216.691 7.47073C221.301 13.5623 225.445 19.9925 229.088 26.7065C236.151 39.1583 241.489 52.5101 244.955 66.3961C246.007 71.0098 246.648 75.7077 246.868 80.4345C247.081 82.5695 246.576 84.7144 245.434 86.5316C244.292 88.3488 242.577 89.7352 240.559 90.4724C235.186 92.4359 230.581 91.7219 227.405 87.5324C224.629 83.8784 222.568 79.6785 220.234 75.6991C219.839 74.995 219.491 74.2654 219.193 73.5151ZM201.108 25.8771L200.677 25.9715C199.856 36.6919 199.026 47.4018 198.185 58.2797L211.149 54.7623L201.108 25.8771Z" fill="#F3A8BD"/>
<path d="M64.1104 156.989C62.9012 147.844 62.3018 141.617 64.1104 134.205C65.9189 126.792 72.5223 122.56 79.6093 124.114C81.365 124.457 82.9983 125.259 84.3429 126.438C85.6875 127.616 86.6954 129.13 87.264 130.824C89.7333 137.94 91.839 145.176 93.5729 152.506C95.4866 160.738 96.6012 169.159 98.3887 177.433C99.1577 180.656 100.368 183.758 101.985 186.652C102.658 187.911 104.708 189.35 105.907 189.161C106.747 188.951 107.524 188.542 108.172 187.968C108.82 187.394 109.32 186.672 109.629 185.864C110.763 181.294 111.446 176.623 111.669 171.92C111.984 161.651 111.669 151.372 111.89 141.103C112.043 136.872 112.525 132.66 113.33 128.503C114.319 123.075 117.652 120.103 122.794 119.347C128.335 118.591 132.898 120.555 134.97 125.647C136.872 130.193 138.183 134.964 138.871 139.843C140.974 156.296 141.247 172.792 137.693 189.129C136.284 195.667 133.303 201.765 129.008 206.895C117.116 221.228 97.6527 221.889 84.3304 208.428C78.2318 202.254 74.4254 194.642 71.8598 186.567C68.7264 176.729 65.5719 168.014 64.1104 156.989Z" fill="#F3A8BD"/>
<path d="M76.8229 42.3514C77.559 57.2298 77.8113 71.9296 74.6043 86.451C72.0597 97.9169 66.4658 107.566 55.6776 113.173C44.8894 118.78 32.2926 116.565 22.7872 108.165C15.8369 102.012 12.0306 93.9059 8.82355 85.4954C3.83496 72.0538 0.882825 57.9441 0.0646768 43.6324C-0.158258 39.6162 0.195829 35.589 1.11616 31.673C2.39897 25.9506 7.10964 22.3596 12.8402 21.9186C17.8663 21.5196 22.3035 23.8506 24.2909 29.5415C26.9202 37.4686 29.1244 45.5299 30.8942 53.6913C32.6922 61.4402 33.8068 69.3466 35.5417 77.106C36.2258 79.9377 37.3581 82.6422 38.896 85.1175C41.0725 88.6979 44.6581 88.4249 46.2563 84.519C47.4071 81.7307 48.0652 78.7643 48.2016 75.7516C48.4329 65.6822 48.0964 55.6023 48.3803 45.5434C48.5729 39.2136 49.1558 32.9017 50.1258 26.6436C50.988 21.0471 54.5841 18.0861 59.9256 17.5086C65.4459 16.9101 70.0409 18.9786 71.9125 24.1446C74.0365 29.993 75.2247 36.251 76.8229 42.3514Z" fill="#F3A8BD"/>
<path d="M41.367 164.56C44.5214 169.211 47.8021 173.894 50.925 178.682C52.9328 181.507 54.1456 184.817 54.4369 188.268C54.6998 193.13 50.6726 196.668 45.962 195.45C43.7064 194.844 41.5916 193.803 39.7372 192.384C36.2673 189.665 33.0918 186.567 29.6114 183.47C29.3569 184.121 29.0619 184.756 28.7281 185.371C26.6252 188.783 24.6274 192.29 22.2825 195.545C21.1738 196.902 19.7622 197.981 18.1608 198.695C14.0074 200.795 10.0117 198.632 9.3388 194.022C8.80365 189.853 9.66113 185.623 11.7782 181.99C13.8812 178.21 16.4363 174.64 18.7391 171.164C15.185 165.914 11.242 160.391 7.73003 154.627C6.18778 152.072 5.13919 149.252 4.63867 146.311C3.6713 140.557 8.16113 136.609 13.734 138.279C16.2698 139.078 18.6191 140.377 20.6422 142.1C23.8703 144.788 26.7198 147.938 29.7481 150.92C30.9363 148.474 31.9772 145.891 33.3862 143.57C34.8765 141.06 36.5754 138.678 38.4649 136.452C39.3514 135.344 40.5776 134.559 41.955 134.215C43.3323 133.872 44.7845 133.99 46.0881 134.551C49.0743 135.664 50.1258 138.1 50.0732 141.072C49.8406 146.063 48.558 150.95 46.3089 155.414C44.8263 158.564 42.9862 161.609 41.367 164.56Z" fill="#F3A8BD"/>
<path d="M331.492 109.089L333.753 125.888L329.852 126.413L328.926 119.504L321.272 120.554L322.186 127.453L318.285 127.978L316.035 111.178L319.936 110.653L320.83 117.289L328.485 116.239L327.591 109.603L331.492 109.089Z" fill="#F3A8BD"/>
<path d="M345.707 112.417C346.35 112.898 346.879 113.514 347.257 114.222C347.635 114.929 347.852 115.711 347.894 116.512L348.882 123.862L345.371 124.335L345.16 122.718C344.613 124.02 343.373 124.818 341.448 125.049C340.561 125.192 339.653 125.138 338.788 124.891C338.071 124.685 337.428 124.277 336.938 123.715C336.463 123.173 336.166 122.499 336.086 121.783C335.992 121.238 336.032 120.678 336.202 120.151C336.372 119.624 336.668 119.147 337.064 118.759C338.215 117.808 339.641 117.249 341.133 117.163L344.119 116.764C344.086 116.408 343.975 116.063 343.793 115.755C343.611 115.446 343.364 115.181 343.068 114.979C342.365 114.576 341.538 114.445 340.744 114.612C340.054 114.705 339.383 114.907 338.757 115.21C338.17 115.465 337.633 115.82 337.169 116.26L335.476 113.824C336.179 113.192 336.986 112.687 337.863 112.333C338.815 111.923 339.82 111.647 340.849 111.514C342.525 111.189 344.261 111.512 345.707 112.417ZM343.699 121.762C344.157 121.4 344.471 120.886 344.582 120.313L344.403 118.99L341.827 119.326C340.292 119.536 339.587 120.145 339.724 121.153C339.746 121.374 339.824 121.585 339.948 121.769C340.073 121.952 340.242 122.101 340.439 122.203C340.938 122.446 341.502 122.524 342.048 122.424C342.643 122.372 343.213 122.162 343.699 121.815V121.762Z" fill="#F3A8BD"/>
<path d="M353.457 123.075C352.563 122.995 351.689 122.768 350.87 122.403L351.764 119.547C352.466 119.859 353.21 120.068 353.972 120.166C354.788 120.281 355.616 120.281 356.433 120.166C358.02 119.956 358.767 119.452 358.651 118.665C358.651 118.297 358.357 118.066 357.905 117.961C357.211 117.839 356.506 117.79 355.802 117.814C354.901 117.814 354.001 117.747 353.11 117.615C352.397 117.505 351.725 117.207 351.165 116.754C350.546 116.196 350.169 115.421 350.113 114.591C349.999 113.809 350.147 113.012 350.534 112.323C350.976 111.571 351.626 110.962 352.405 110.569C353.388 110.056 354.458 109.728 355.56 109.603C356.481 109.488 357.411 109.467 358.336 109.54C359.145 109.59 359.94 109.771 360.691 110.076L359.797 112.911C358.576 112.414 357.243 112.255 355.938 112.449C355.314 112.491 354.71 112.689 354.182 113.026C354.023 113.125 353.893 113.265 353.806 113.431C353.719 113.598 353.679 113.784 353.688 113.971C353.716 114.164 353.806 114.341 353.945 114.478C354.084 114.614 354.263 114.702 354.456 114.727C355.151 114.845 355.854 114.904 356.559 114.906C357.452 114.923 358.344 114.993 359.23 115.116C359.93 115.228 360.587 115.525 361.133 115.977C361.741 116.515 362.118 117.268 362.184 118.077C362.305 118.85 362.152 119.64 361.753 120.313C361.294 121.064 360.63 121.668 359.839 122.056C358.833 122.564 357.743 122.887 356.622 123.012C355.574 123.165 354.51 123.186 353.457 123.075Z" fill="#F3A8BD"/>
<path d="M373.341 119.998C372.966 120.339 372.531 120.606 372.058 120.785C371.522 121.002 370.96 121.147 370.386 121.216C369.099 121.474 367.761 121.226 366.653 120.523C366.149 120.126 365.735 119.627 365.438 119.059C365.141 118.49 364.967 117.866 364.929 117.226L364.214 111.913L362.216 112.176L361.837 109.288L363.835 109.026L363.415 105.876L367.168 105.372L367.589 108.522L370.817 108.091L371.196 110.979L367.978 111.409L368.683 116.659C368.712 117.12 368.924 117.551 369.271 117.856C369.448 117.99 369.65 118.085 369.866 118.136C370.081 118.187 370.305 118.191 370.523 118.15C371.068 118.085 371.577 117.846 371.974 117.467L373.341 119.998Z" fill="#F3A8BD"/>
<path d="M383.823 107.325C384.465 107.807 384.993 108.423 385.371 109.131C385.748 109.838 385.967 110.619 386.011 111.42L386.999 118.77L383.487 119.242L383.266 117.636C382.73 118.927 381.489 119.736 379.565 119.967C378.677 120.1 377.771 120.046 376.905 119.809C376.186 119.6 375.541 119.192 375.044 118.633C374.576 118.084 374.283 117.407 374.202 116.691C374.104 116.147 374.141 115.587 374.312 115.061C374.483 114.535 374.781 114.06 375.18 113.677C376.325 112.721 377.749 112.162 379.239 112.081L382.225 111.682C382.195 111.324 382.085 110.976 381.903 110.666C381.721 110.355 381.472 110.089 381.174 109.887C380.469 109.489 379.642 109.362 378.85 109.53C378.16 109.623 377.489 109.825 376.863 110.128C376.272 110.398 375.734 110.772 375.275 111.231L373.582 108.784C374.287 108.156 375.094 107.651 375.969 107.293C376.924 106.892 377.928 106.617 378.955 106.474C380.627 106.141 382.364 106.445 383.823 107.325ZM381.815 116.67C382.275 116.309 382.588 115.794 382.698 115.221L382.52 113.898L379.943 114.244C378.408 114.444 377.704 115.053 377.841 116.061C377.866 116.281 377.944 116.491 378.068 116.674C378.193 116.857 378.36 117.007 378.556 117.111C379.054 117.356 379.62 117.43 380.164 117.321C380.764 117.26 381.335 117.035 381.815 116.67Z" fill="#F3A8BD"/>
<path d="M319.441 139.034L323.206 138.53L325.593 156.38L321.839 156.884L319.441 139.034Z" fill="#F3A8BD"/>
<path d="M326.697 138.068L330.44 137.564L332.827 155.414L329.073 155.918L326.697 138.068Z" fill="#F3A8BD"/>
<path d="M348.221 147.844L338.421 149.114C338.687 149.86 339.223 150.478 339.925 150.847C340.719 151.226 341.611 151.355 342.48 151.214C343.093 151.139 343.688 150.954 344.236 150.668C344.753 150.384 345.204 149.994 345.561 149.524L347.853 151.424C347.266 152.235 346.508 152.906 345.632 153.391C344.756 153.875 343.784 154.161 342.785 154.228C341.445 154.436 340.075 154.321 338.789 153.892C337.645 153.511 336.635 152.812 335.876 151.876C335.118 150.919 334.641 149.77 334.499 148.558C334.323 147.357 334.475 146.13 334.941 145.009C335.395 143.921 336.145 142.983 337.107 142.3C338.108 141.602 339.261 141.15 340.471 140.982C341.681 140.814 342.913 140.935 344.068 141.334C345.154 141.729 346.104 142.429 346.801 143.35C347.551 144.354 348.019 145.539 348.158 146.783C348.158 146.783 348.189 147.214 348.221 147.844ZM338.852 144.914C338.34 145.494 338.06 146.241 338.064 147.014L344.436 146.164C344.243 145.414 343.773 144.765 343.121 144.347C342.482 143.93 341.712 143.758 340.955 143.864C340.145 143.931 339.391 144.307 338.852 144.914Z" fill="#F3A8BD"/>
<path d="M363.152 138.194L364.592 148.967C364.798 149.918 364.802 150.902 364.605 151.855C364.407 152.808 364.013 153.709 363.446 154.501C362.094 155.948 360.24 156.827 358.262 156.958C357.059 157.12 355.838 157.12 354.635 156.958C353.592 156.849 352.582 156.528 351.67 156.013L352.805 153.125C353.485 153.523 354.234 153.79 355.013 153.913C355.856 154.07 356.719 154.091 357.568 153.976C358.618 153.925 359.608 153.474 360.334 152.716C360.615 152.316 360.81 151.862 360.908 151.383C361.005 150.905 361.003 150.411 360.901 149.933L360.828 149.377C360.379 149.998 359.798 150.514 359.128 150.888C358.458 151.261 357.714 151.484 356.948 151.54C355.813 151.711 354.654 151.599 353.573 151.214C352.536 150.838 351.623 150.184 350.933 149.324C350.231 148.404 349.781 147.316 349.628 146.169C349.475 145.022 349.624 143.855 350.061 142.783C350.513 141.767 351.242 140.897 352.164 140.273C353.098 139.613 354.182 139.194 355.318 139.055C356.121 138.896 356.95 138.93 357.738 139.152C358.526 139.375 359.25 139.781 359.85 140.336L359.629 138.677L363.152 138.194ZM359.608 147.172C359.871 146.83 360.064 146.44 360.176 146.024C360.287 145.607 360.316 145.173 360.259 144.746C360.202 144.319 360.062 143.907 359.845 143.534C359.629 143.161 359.341 142.834 358.998 142.573C358.248 142.063 357.326 141.867 356.433 142.027C355.53 142.114 354.695 142.542 354.098 143.224C353.836 143.566 353.643 143.956 353.531 144.372C353.419 144.788 353.391 145.222 353.448 145.65C353.504 146.077 353.645 146.489 353.861 146.862C354.077 147.235 354.365 147.561 354.708 147.823C355.465 148.327 356.387 148.523 357.284 148.369C358.185 148.287 359.019 147.857 359.608 147.172Z" fill="#F3A8BD"/>
<path d="M376.706 137.649C377.333 138.142 377.846 138.766 378.209 139.476C378.572 140.187 378.777 140.967 378.809 141.765L379.797 149.114L376.275 149.576L376.064 147.97C375.518 149.261 374.287 150.07 372.353 150.301C371.468 150.434 370.565 150.38 369.703 150.143C368.982 149.94 368.335 149.531 367.842 148.967C367.375 148.416 367.079 147.741 366.99 147.025C366.896 146.48 366.936 145.921 367.109 145.395C367.281 144.87 367.58 144.395 367.978 144.012C369.123 143.056 370.547 142.496 372.037 142.415L375.023 142.016C374.991 141.658 374.88 141.312 374.698 141.002C374.516 140.691 374.269 140.425 373.972 140.221C373.263 139.823 372.433 139.697 371.638 139.864C370.948 139.96 370.278 140.162 369.65 140.463C369.063 140.733 368.528 141.106 368.073 141.565L366.37 139.119C367.076 138.492 367.883 137.988 368.757 137.628C369.716 137.226 370.723 136.951 371.753 136.809C373.451 136.449 375.222 136.749 376.706 137.649ZM374.603 147.014C375.065 146.654 375.383 146.14 375.496 145.565L375.318 144.242L372.742 144.589C371.192 144.792 370.491 145.401 370.639 146.416C370.664 146.636 370.742 146.846 370.866 147.029C370.991 147.212 371.158 147.362 371.354 147.466C371.856 147.711 372.425 147.785 372.973 147.676C373.568 147.614 374.133 147.385 374.603 147.014Z" fill="#F3A8BD"/>
<path d="M386.947 135.307C387.739 134.865 388.611 134.583 389.512 134.478L389.975 137.943C389.554 137.943 389.27 137.943 389.134 138.006C388.669 138.038 388.216 138.164 387.802 138.378C387.388 138.591 387.022 138.885 386.726 139.245C386.446 139.653 386.253 140.114 386.157 140.6C386.061 141.085 386.065 141.585 386.169 142.069L386.989 148.18L383.235 148.673L381.5 135.738L385.086 135.265L385.317 136.966C385.693 136.271 386.258 135.696 386.947 135.307Z" fill="#F3A8BD"/>
<path d="M333.984 172.718C334.623 173.202 335.149 173.819 335.527 174.526C335.905 175.233 336.124 176.013 336.171 176.813L337.159 184.163L333.637 184.635L333.426 183.018C332.88 184.32 331.649 185.118 329.715 185.349C328.831 185.493 327.926 185.439 327.065 185.192C326.346 184.988 325.701 184.584 325.204 184.026C324.739 183.474 324.443 182.8 324.352 182.084C324.258 181.538 324.298 180.977 324.471 180.45C324.643 179.922 324.941 179.445 325.341 179.06C326.485 178.11 327.903 177.551 329.389 177.464L332.375 177.065C332.345 176.708 332.234 176.362 332.052 176.053C331.87 175.744 331.621 175.48 331.323 175.28C330.616 174.878 329.786 174.747 328.989 174.913C328.3 175.009 327.63 175.211 327.002 175.511C326.414 175.781 325.88 176.155 325.425 176.614L323.721 174.178C324.425 173.548 325.233 173.043 326.108 172.687C327.064 172.276 328.073 172 329.105 171.868C330.78 171.529 332.522 171.832 333.984 172.718ZM331.975 182.063C332.427 181.695 332.739 181.184 332.859 180.614L332.68 179.291L330.104 179.627C328.562 179.837 327.861 180.446 328.001 181.454C328.026 181.675 328.105 181.886 328.232 182.07C328.359 182.253 328.528 182.402 328.726 182.504C329.226 182.744 329.79 182.818 330.335 182.714C330.93 182.647 331.496 182.422 331.975 182.063Z" fill="#F3A8BD"/>
<path d="M355.676 181.097C355.305 181.438 354.873 181.705 354.403 181.885C353.867 182.099 353.305 182.244 352.731 182.315C351.444 182.576 350.106 182.327 348.999 181.622C348.495 181.225 348.081 180.726 347.783 180.158C347.486 179.589 347.313 178.965 347.274 178.325L346.559 173.012L344.561 173.275L344.172 170.387L346.17 170.125L345.75 166.975L349.503 166.471L349.924 169.621L353.152 169.19L353.541 172.078L350.313 172.508L351.018 177.758C351.05 178.221 351.261 178.654 351.606 178.966C351.783 179.099 351.985 179.194 352.201 179.245C352.416 179.295 352.64 179.3 352.858 179.26C353.404 179.2 353.914 178.959 354.309 178.577L355.676 181.097Z" fill="#F3A8BD"/>
<path d="M359.882 180.499C358.764 180.096 357.779 179.395 357.033 178.472C356.274 177.515 355.797 176.366 355.655 175.154C355.476 173.945 355.632 172.71 356.107 171.584C356.586 170.496 357.358 169.562 358.336 168.886C359.406 168.17 360.626 167.708 361.902 167.537C363.178 167.366 364.476 167.49 365.697 167.899C366.812 168.305 367.794 169.01 368.536 169.936C369.276 170.903 369.751 172.046 369.913 173.252C370.075 174.458 369.919 175.686 369.461 176.813C368.994 177.902 368.228 178.837 367.253 179.512C366.199 180.248 364.977 180.71 363.699 180.856C362.417 181.055 361.105 180.932 359.882 180.499ZM365.497 176.488C366.002 175.666 366.209 174.696 366.083 173.74C365.957 172.784 365.505 171.9 364.803 171.238C364.456 170.959 364.053 170.757 363.622 170.644C363.19 170.532 362.74 170.513 362.3 170.587C361.855 170.63 361.424 170.768 361.036 170.991C360.648 171.213 360.312 171.516 360.05 171.878C359.545 172.7 359.338 173.67 359.464 174.626C359.591 175.582 360.043 176.466 360.744 177.128C361.093 177.408 361.497 177.612 361.931 177.724C362.364 177.836 362.816 177.855 363.257 177.779C363.692 177.727 364.11 177.585 364.487 177.363C364.863 177.141 365.189 176.843 365.444 176.488H365.497Z" fill="#F3A8BD"/>
<path d="M384.002 159.782L386.4 177.632L382.804 178.115L382.604 176.624C382.184 177.258 381.622 177.787 380.964 178.17C380.306 178.552 379.568 178.778 378.808 178.829C377.656 179.002 376.479 178.876 375.391 178.462C374.336 178.05 373.421 177.347 372.751 176.435C372.05 175.422 371.599 174.257 371.436 173.035C371.274 171.814 371.404 170.572 371.816 169.411C372.216 168.357 372.913 167.441 373.824 166.775C374.75 166.091 375.836 165.657 376.978 165.515C377.694 165.379 378.431 165.403 379.136 165.584C379.841 165.766 380.498 166.101 381.058 166.565L380.217 160.265L384.002 159.782ZM381.258 174.377C381.774 173.558 381.986 172.584 381.857 171.625C381.729 170.666 381.267 169.782 380.553 169.127C379.836 168.593 378.938 168.36 378.051 168.48C377.165 168.6 376.36 169.062 375.811 169.768C375.295 170.587 375.083 171.561 375.212 172.52C375.341 173.479 375.802 174.363 376.516 175.018C377.232 175.555 378.131 175.789 379.018 175.669C379.906 175.549 380.711 175.085 381.258 174.377Z" fill="#F3A8BD"/>
<path d="M398.145 164.15C398.787 164.632 399.315 165.249 399.692 165.956C400.07 166.663 400.288 167.445 400.332 168.245L401.321 175.595L397.809 176.067L397.588 174.461C397.052 175.752 395.811 176.561 393.887 176.792C392.998 176.926 392.091 176.868 391.226 176.624C390.507 176.421 389.861 176.017 389.365 175.458C388.898 174.909 388.605 174.233 388.524 173.516C388.427 172.97 388.465 172.409 388.635 171.882C388.806 171.355 389.103 170.877 389.502 170.492C390.652 169.545 392.073 168.986 393.561 168.896L396.547 168.497C396.515 168.14 396.404 167.795 396.223 167.486C396.041 167.178 395.792 166.913 395.495 166.712C394.79 166.314 393.964 166.187 393.172 166.355C392.481 166.444 391.809 166.646 391.184 166.953C390.594 167.224 390.056 167.597 389.597 168.056L387.904 165.61C388.609 164.981 389.416 164.477 390.291 164.119C391.245 163.713 392.249 163.438 393.277 163.3C394.949 162.968 396.685 163.271 398.145 164.15ZM396.137 173.495C396.594 173.131 396.906 172.618 397.02 172.046L396.841 170.723L394.265 171.069C392.73 171.269 392.026 171.878 392.162 172.886C392.187 173.106 392.266 173.316 392.39 173.499C392.515 173.682 392.682 173.832 392.877 173.936C393.376 174.182 393.941 174.256 394.486 174.146C395.086 174.085 395.657 173.86 396.137 173.495Z" fill="#F3A8BD"/>
<path d="M405.894 174.807C405.002 174.726 404.129 174.503 403.308 174.146L404.201 171.28C404.902 171.597 405.646 171.809 406.41 171.91C407.226 172.02 408.054 172.02 408.87 171.91C410.458 171.7 411.194 171.196 411.089 170.419C411.089 170.051 410.794 169.81 410.332 169.705C409.637 169.586 408.932 169.54 408.229 169.568C407.328 169.563 406.428 169.496 405.537 169.369C404.824 169.25 404.154 168.95 403.592 168.497C402.968 167.943 402.59 167.166 402.54 166.334C402.421 165.552 402.569 164.753 402.961 164.066C403.406 163.316 404.055 162.708 404.832 162.313C405.814 161.798 406.884 161.474 407.987 161.357C408.907 161.231 409.838 161.21 410.763 161.294C411.571 161.342 412.366 161.519 413.118 161.819L412.224 164.654C411.001 164.164 409.67 164.005 408.365 164.192C407.738 164.236 407.131 164.435 406.599 164.77C406.441 164.87 406.314 165.01 406.229 165.177C406.144 165.343 406.104 165.528 406.115 165.715C406.141 165.908 406.231 166.086 406.37 166.223C406.509 166.36 406.689 166.447 406.883 166.471C407.577 166.593 408.281 166.653 408.986 166.649C409.88 166.665 410.772 166.738 411.656 166.87C412.358 166.977 413.016 167.275 413.56 167.731C414.168 168.269 414.545 169.021 414.611 169.831C414.73 170.603 414.578 171.393 414.18 172.067C413.717 172.812 413.054 173.412 412.266 173.8C411.261 174.311 410.17 174.634 409.049 174.755C408.004 174.909 406.944 174.927 405.894 174.807Z" fill="#F3A8BD"/>
<path d="M417.198 173.023C416.946 172.832 416.736 172.593 416.58 172.318C416.425 172.044 416.327 171.74 416.293 171.427C416.243 171.119 416.257 170.804 416.335 170.502C416.413 170.2 416.552 169.918 416.746 169.673C417.147 169.203 417.707 168.896 418.32 168.813C418.934 168.73 419.556 168.875 420.068 169.222C420.322 169.408 420.534 169.645 420.69 169.918C420.845 170.191 420.942 170.494 420.972 170.807C421.02 171.118 421.005 171.435 420.927 171.74C420.85 172.045 420.711 172.331 420.52 172.582C420.132 173.072 419.569 173.392 418.948 173.474C418.328 173.557 417.7 173.395 417.198 173.023Z" fill="#F3A8BD"/>
</svg>
