<svg width="181" height="54" viewBox="0 0 181 54" fill="none" xmlns="http://www.w3.org/2000/svg"><script xmlns=""/>
<path d="M54.882 6.74188H64.102C66.0722 6.71705 68.0189 7.15114 69.772 8.00623C71.3807 8.80488 72.7111 10.03 73.602 11.5331C74.4989 13.1798 74.967 15.0071 74.967 16.8614C74.967 18.7158 74.4989 20.5431 73.602 22.1898C72.6985 23.6864 71.3577 24.9016 69.742 25.6881C67.9776 26.5265 66.024 26.941 64.052 26.8954H54.832L54.882 6.74188ZM63.802 22.3894C64.5379 22.4191 65.2723 22.3054 65.9602 22.0552C66.6481 21.8051 67.2749 21.4238 67.802 20.9349C68.7847 19.7884 69.3214 18.3547 69.3214 16.8757C69.3214 15.3967 68.7847 13.963 67.802 12.8165C67.2767 12.3233 66.6509 11.9374 65.9631 11.6824C65.2752 11.4274 64.5399 11.3086 63.802 11.3335H60.322L60.272 22.3894H63.802Z" fill="white"/>
<path d="M92.2117 20.6498L81.2117 20.5927C81.3824 21.3552 81.8413 22.0317 82.5016 22.494C83.2075 22.9505 84.0485 23.1804 84.9017 23.1499C85.5437 23.1728 86.1837 23.0693 86.7816 22.8457C87.379 22.5985 87.9244 22.2506 88.3916 21.819L91.1616 24.8231C90.363 25.6828 89.3663 26.3557 88.2493 26.7893C87.1323 27.223 85.9251 27.4057 84.7216 27.3232C83.1025 27.3532 81.502 26.99 80.0716 26.268C78.7782 25.6149 77.7066 24.6258 76.9816 23.4161C76.2394 22.137 75.8667 20.6938 75.9017 19.2333C75.8859 17.7918 76.2613 16.3709 76.9917 15.1075C77.6957 13.912 78.734 12.9249 79.9917 12.2556C81.2761 11.5975 82.7125 11.2529 84.1716 11.2529C85.6308 11.2529 87.0672 11.5975 88.3516 12.2556C89.5875 12.9204 90.5946 13.9109 91.2516 15.1075C91.9681 16.4479 92.3123 17.9401 92.2516 19.4425C92.2516 19.4425 92.2516 19.9368 92.1616 20.8019M82.1616 15.9156C81.5867 16.4326 81.213 17.1195 81.1016 17.8644H87.2916C87.198 17.1237 86.8459 16.4342 86.2916 15.9061C85.7483 15.4274 85.0324 15.1654 84.2916 15.1741C83.5372 15.1519 82.8029 15.4073 82.2417 15.8871" fill="white"/>
<path d="M94.1147 5.71573L94.0049 27.0763L99.2948 27.1009L99.4046 5.74031L94.1147 5.71573Z" fill="white"/>
<path d="M123.302 7.95864C124.551 8.52584 125.595 9.43228 126.302 10.5634C126.998 11.7748 127.362 13.133 127.362 14.5133C127.362 15.8936 126.998 17.2517 126.302 18.4632C125.589 19.5802 124.545 20.4729 123.302 21.0299C121.86 21.6552 120.286 21.9577 118.702 21.914H115.302V27.1901H109.792L109.892 7.03652H118.802C120.389 7.01029 121.96 7.33576 123.392 7.98716M120.982 16.7045C121.539 16.101 121.846 15.3256 121.846 14.5228C121.846 13.72 121.539 12.9446 120.982 12.3411C120.269 11.7716 119.351 11.4885 118.422 11.5521H115.352V17.4555H118.422C119.344 17.5208 120.259 17.2526 120.982 16.7045Z" fill="white"/>
<path d="M129.368 5.86915L129.258 27.2297L134.548 27.2543L134.658 5.89372L129.368 5.86915Z" fill="white"/>
<path d="M149.541 13.2347C150.851 14.423 151.541 16.2292 151.541 18.6723V27.3326H146.611V25.3173C145.845 26.832 144.355 27.583 142.141 27.5703C141.102 27.5857 140.073 27.3641 139.141 26.9239C138.334 26.5433 137.663 25.9448 137.211 25.2032C136.774 24.4467 136.554 23.5945 136.571 22.7316C136.542 22.0753 136.677 21.4217 136.965 20.8249C137.254 20.2282 137.688 19.7053 138.231 19.2997C139.739 18.3857 141.519 17.9651 143.301 18.1019H146.301C146.221 16.4573 145.151 15.6208 143.111 15.6208C142.363 15.6151 141.619 15.7308 140.911 15.963C140.221 16.1645 139.577 16.4869 139.011 16.9136L137.251 13.1871C138.178 12.5788 139.211 12.1315 140.301 11.8658C141.477 11.555 142.692 11.4014 143.911 11.4095C145.995 11.2744 148.051 11.9193 149.641 13.2062M145.271 23.6632C145.752 23.3342 146.104 22.8626 146.271 22.3228V20.9634H143.981C142.441 20.9634 141.671 21.4862 141.671 22.5414C141.66 22.7582 141.7 22.9747 141.791 23.1741C141.881 23.3736 142.018 23.5507 142.191 23.6917C142.597 24.0032 143.111 24.1591 143.631 24.129C144.209 24.1456 144.777 23.9856 145.251 23.6727" fill="white"/>
<path d="M164.522 26.7623C164.018 27.0668 163.463 27.2885 162.882 27.4183C162.21 27.5661 161.522 27.6395 160.832 27.6369C160.008 27.6848 159.183 27.5748 158.405 27.3136C157.626 27.0523 156.911 26.645 156.302 26.1159C155.74 25.5088 155.312 24.8003 155.044 24.0327C154.776 23.2651 154.673 22.4541 154.742 21.6479V16.4099H152.542V12.3222H154.742V8.26292H160.032V12.3222H163.492V16.4099H160.032V21.5909C159.995 22.0626 160.145 22.5304 160.452 22.9028C160.592 23.0616 160.769 23.1878 160.968 23.2718C161.167 23.3559 161.384 23.3955 161.602 23.3876C162.184 23.4037 162.755 23.2329 163.222 22.9028L164.522 26.7623Z" fill="white"/>
<path d="M178.092 13.3583C179.425 14.5497 180.075 16.3623 180.042 18.7959V27.4657H175.122V25.4219C174.352 26.9429 172.862 27.6844 170.652 27.6844C169.612 27.6951 168.585 27.4737 167.652 27.0379C166.846 26.6511 166.175 26.0501 165.722 25.3078C165.28 24.5564 165.059 23.706 165.082 22.8456C165.047 22.1887 165.179 21.5336 165.469 20.936C165.758 20.3384 166.194 19.8162 166.742 19.4138C168.249 18.4998 170.029 18.0791 171.812 18.216H174.812C174.722 16.5619 173.662 15.7348 171.622 15.7253C170.873 15.7277 170.13 15.8465 169.422 16.0771C168.73 16.276 168.086 16.5987 167.522 17.0277L165.752 13.3107C166.68 12.6987 167.716 12.2511 168.812 11.9893C169.987 11.6801 171.202 11.5234 172.422 11.5235C174.504 11.3966 176.557 12.0404 178.152 13.3202M173.782 23.7772C174.265 23.4468 174.617 22.9713 174.782 22.4273V21.0774H172.452C170.912 21.0774 170.142 21.5908 170.132 22.646C170.122 22.8639 170.164 23.0812 170.254 23.2818C170.344 23.4825 170.48 23.6615 170.652 23.8058C171.067 24.1071 171.58 24.2618 172.102 24.2431C172.678 24.2526 173.244 24.0932 173.722 23.7868" fill="white"/>
<path d="M56.0912 47.6194C55.1917 47.3254 54.3838 46.8221 53.7412 46.1554L54.3612 44.9005C54.962 45.5007 55.6967 45.9653 56.5112 46.26C57.3883 46.6101 58.3299 46.7911 59.2812 46.7923C60.3404 46.8725 61.3972 46.6113 62.2812 46.0508C62.6001 45.8217 62.8571 45.5238 63.031 45.1816C63.2049 44.8394 63.2906 44.4629 63.2812 44.083C63.3176 43.5415 63.127 43.0083 62.7512 42.6C62.3804 42.2242 61.926 41.9319 61.4212 41.7444C60.7002 41.4874 59.9659 41.2653 59.2212 41.079C58.3088 40.8509 57.4135 40.565 56.5412 40.2234C55.8702 39.947 55.2824 39.5157 54.8312 38.9685C54.3281 38.3107 54.0776 37.5088 54.1212 36.6965C54.1203 35.9476 54.331 35.2122 54.7312 34.5671C55.1722 33.8941 55.8171 33.3639 56.5812 33.0461C57.5456 32.6373 58.5961 32.4454 59.6512 32.4852C60.503 32.4852 61.3496 32.6102 62.1612 32.8559C62.9225 33.0805 63.639 33.4242 64.2812 33.8731L63.7312 35.166C62.5373 34.3508 61.1109 33.8999 59.6412 33.8731C58.5931 33.7911 57.5483 34.0639 56.6912 34.6431C56.3725 34.8832 56.1165 35.1899 55.943 35.5395C55.7696 35.8891 55.6834 36.272 55.6912 36.6585C55.6645 37.2032 55.8576 37.7371 56.2312 38.151C56.6072 38.5364 57.073 38.8326 57.5912 39.0161C58.1412 39.2157 58.8712 39.4344 59.8012 39.672C60.7031 39.8986 61.5883 40.1812 62.4512 40.5181C63.119 40.7908 63.7062 41.2151 64.1612 41.7539C64.6603 42.402 64.9044 43.1959 64.8512 43.9974C64.8583 44.7484 64.6435 45.4862 64.2312 46.1268C63.7815 46.7976 63.1299 47.3243 62.3612 47.6384C61.3822 48.0338 60.3244 48.222 59.2612 48.1897C58.1737 48.1838 57.0962 47.9906 56.0812 47.6194" fill="white"/>
<path d="M74.782 37.571C75.619 38.5038 76.0326 39.714 75.9321 40.9363V48.1326H74.4521V46.3264C74.1081 46.926 73.5818 47.4131 72.942 47.7238C72.2125 48.0778 71.4008 48.2511 70.5821 48.2277C69.4927 48.2751 68.4236 47.9364 67.5821 47.277C67.2422 46.9633 66.9719 46.588 66.7874 46.1733C66.6029 45.7585 66.5078 45.3127 66.5078 44.8624C66.5078 44.4121 66.6029 43.9663 66.7874 43.5516C66.9719 43.1368 67.2422 42.7615 67.5821 42.4478C68.5265 41.7694 69.7034 41.4508 70.8821 41.5542H74.442V40.8507C74.475 40.4375 74.4213 40.0222 74.2839 39.6289C74.1466 39.2356 73.9284 38.8721 73.6421 38.5597C73.324 38.2821 72.9499 38.069 72.5425 37.9333C72.135 37.7977 71.7028 37.7423 71.2721 37.7706C70.5714 37.7629 69.8756 37.8823 69.222 38.1224C68.5941 38.3441 68.0193 38.6836 67.532 39.1205L66.8521 37.9418C67.4538 37.435 68.1534 37.0443 68.912 36.7915C69.7215 36.5222 70.5745 36.3903 71.4321 36.4017C72.0464 36.3668 72.6618 36.4508 73.2411 36.6485C73.8203 36.8462 74.3514 37.1536 74.8021 37.552M73.0221 46.431C73.6663 46.0026 74.1498 45.3897 74.4021 44.6818V42.7805H70.8821C68.962 42.7805 67.9921 43.465 67.9921 44.8434C67.9711 45.1456 68.0264 45.4482 68.1534 45.726C68.2804 46.0038 68.4753 46.2488 68.722 46.4405C69.3218 46.8698 70.0627 47.0821 70.812 47.0394C71.5929 47.0606 72.3614 46.8514 73.0121 46.4405" fill="white"/>
<path d="M79.5764 31.7859L79.4893 48.1557L81.0092 48.163L81.0964 31.7933L79.5764 31.7859Z" fill="white"/>
<path d="M94.8619 36.611L94.8019 48.2183H93.3519V46.0984C92.9763 46.7812 92.404 47.3483 91.7019 47.7335C90.9747 48.1278 90.149 48.3281 89.3119 48.3133C88.6728 48.3416 88.0346 48.242 87.4386 48.0209C86.8426 47.7998 86.302 47.4622 85.8519 47.03C84.9393 45.9903 84.4875 44.654 84.5919 43.3035V36.573H86.1019V43.1419C86.0176 44.1394 86.3239 45.1313 86.9619 45.9272C87.2764 46.2518 87.6632 46.5056 88.0939 46.67C88.5247 46.8345 88.9886 46.9055 89.4519 46.8779C89.9758 46.906 90.4997 46.8215 90.9844 46.6305C91.4692 46.4396 91.9024 46.1472 92.2519 45.7751C92.9775 44.8992 93.3339 43.7978 93.2519 42.6856V36.592L94.8619 36.611Z" fill="white"/>
<path d="M108.841 31.9147L108.751 48.2752H107.301V45.9746C106.885 46.7193 106.258 47.3384 105.491 47.7618C104.718 48.1706 103.845 48.3773 102.961 48.3607C101.954 48.3707 100.966 48.1069 100.111 47.6002C99.2535 47.0886 98.5613 46.3615 98.1112 45.4993C97.6342 44.5409 97.3867 43.4938 97.3867 42.4335C97.3867 41.3732 97.6342 40.3261 98.1112 39.3677C98.5582 38.5084 99.2515 37.7867 100.111 37.2858C100.976 36.7993 101.966 36.5493 102.971 36.5633C103.835 36.5446 104.688 36.7497 105.438 37.1566C106.189 37.5636 106.809 38.157 107.231 38.8734V31.9052L108.841 31.9147ZM105.231 46.4309C105.882 46.0461 106.402 45.4918 106.731 44.8339C107.096 44.0896 107.285 43.2784 107.285 42.4573C107.285 41.6362 107.096 40.825 106.731 40.0807C106.402 39.4234 105.886 38.8668 105.241 38.4741C104.598 38.1071 103.862 37.9132 103.111 37.9132C102.361 37.9132 101.625 38.1071 100.981 38.4741C100.332 38.8586 99.8084 39.4086 99.4712 40.0617C99.0986 40.7965 98.9104 41.6035 98.9212 42.4192C98.8977 43.2371 99.0794 44.0485 99.4512 44.7863C99.7803 45.4436 100.296 46.0002 100.941 46.3929C101.581 46.7763 102.325 46.9745 103.081 46.9633C103.828 46.9713 104.563 46.7803 105.201 46.4119" fill="white"/>
<path d="M44.1412 13.8527C41.66 8.64492 37.1502 4.55541 31.5612 2.44499C27.2846 0.85062 22.6054 0.503453 18.1204 1.44778C13.6354 2.39211 9.54801 4.58513 6.37961 7.74707C3.21121 10.909 1.10546 14.8965 0.330979 19.2009C-0.443504 23.5053 0.148398 27.9315 2.03117 31.9148C3.26557 34.4897 5.00689 36.8162 7.16118 38.7689C9.41227 40.7253 12.0314 42.2605 14.8812 43.2939C17.4243 44.2698 20.1387 44.7794 22.8812 44.7959L23.0712 52.0018C23.0712 52.4961 23.1312 52.9524 23.6112 53.1045C23.7217 53.1624 23.845 53.195 23.9712 53.1996C24.1277 53.1916 24.2809 53.1539 24.4218 53.0886C24.5626 53.0232 24.6882 52.9317 24.7912 52.8193L39.2312 38.5597C39.4312 38.3791 39.6112 38.189 39.8012 37.9989C41.8539 35.9451 43.4701 33.5339 44.5612 30.8976C45.6933 28.1616 46.2369 25.2376 46.1596 22.2985C46.0823 19.3594 45.3858 16.4649 44.1112 13.7861M23.5512 40.6702C19.8495 40.7575 16.2037 39.7993 13.0749 37.9167C9.94613 36.0341 7.47494 33.3117 5.97388 30.0938C4.47282 26.876 4.00932 23.3072 4.64201 19.8389C5.27471 16.3706 6.97518 13.1586 9.52834 10.6091C12.0815 8.05965 15.3727 6.28723 18.9855 5.51606C22.5984 4.74488 26.3707 5.00958 29.8253 6.27669C33.28 7.5438 36.2617 9.7564 38.3934 12.6346C40.5251 15.5128 41.711 18.9274 41.8012 22.4464C41.914 27.1612 40.0568 31.7264 36.6361 35.1421C33.2155 38.5578 28.5104 40.5456 23.5512 40.6702Z" fill="white"/>
<path d="M33.1213 19.7276H26.8713V13.8622C26.8713 12.8839 26.4625 11.9458 25.7349 11.254C25.0073 10.5623 24.0204 10.1737 22.9913 10.1737C21.9623 10.1737 20.9754 10.5623 20.2478 11.254C19.5201 11.9458 19.1113 12.8839 19.1113 13.8622V19.7276H13.1113C12.0505 19.7276 11.033 20.1282 10.2829 20.8414C9.53275 21.5545 9.11133 22.5217 9.11133 23.5302C9.11133 24.5387 9.53275 25.5059 10.2829 26.219C11.033 26.9321 12.0505 27.3327 13.1113 27.3327H19.1113V32.932C19.1618 33.8766 19.5921 34.7667 20.3133 35.4183C21.0344 36.0699 21.9914 36.4333 22.9863 36.4333C23.9813 36.4333 24.9382 36.0699 25.6594 35.4183C26.3805 34.7667 26.8108 33.8766 26.8613 32.932V27.3422H33.1113C34.1722 27.3422 35.1896 26.9416 35.9398 26.2285C36.6899 25.5154 37.1113 24.5482 37.1113 23.5397C37.1113 22.5312 36.6899 21.564 35.9398 20.8509C35.1896 20.1378 34.1722 19.7371 33.1113 19.7371" fill="white"/>
<path d="M121.596 41.5517V35.4547H123.974C124.508 35.4547 124.964 35.5389 125.341 35.7073C125.719 35.8756 126.009 36.1195 126.212 36.4389C126.416 36.7583 126.517 37.1386 126.517 37.5799C126.517 38.0212 126.416 38.4015 126.212 38.7209C126.009 39.0345 125.719 39.2755 125.341 39.4438C124.964 39.6122 124.508 39.6964 123.974 39.6964H122.075L122.467 39.2958V41.5517H121.596ZM125.672 41.5517L124.122 39.3393H125.054L126.622 41.5517H125.672ZM122.467 39.3829L122.075 38.9561H123.948C124.505 38.9561 124.926 38.837 125.211 38.599C125.501 38.3551 125.646 38.0154 125.646 37.5799C125.646 37.1444 125.501 36.8076 125.211 36.5695C124.926 36.3315 124.505 36.2124 123.948 36.2124H122.075L122.467 35.7769V39.3829ZM129.858 41.6039C129.365 41.6039 128.929 41.5023 128.552 41.2991C128.18 41.0958 127.89 40.8171 127.681 40.4629C127.477 40.1087 127.376 39.7022 127.376 39.2435C127.376 38.7848 127.475 38.3783 127.672 38.0241C127.875 37.6699 128.151 37.3941 128.499 37.1967C128.854 36.9934 129.251 36.8918 129.693 36.8918C130.14 36.8918 130.535 36.9905 130.877 37.188C131.22 37.3854 131.487 37.6641 131.679 38.0241C131.876 38.3783 131.975 38.7935 131.975 39.2696C131.975 39.3045 131.972 39.3451 131.966 39.3916C131.966 39.438 131.963 39.4816 131.957 39.5222H128.029V38.9212H131.522L131.182 39.1303C131.188 38.8341 131.127 38.5699 130.999 38.3377C130.871 38.1054 130.694 37.9254 130.468 37.7977C130.247 37.6641 129.989 37.5973 129.693 37.5973C129.402 37.5973 129.144 37.6641 128.917 37.7977C128.691 37.9254 128.514 38.1083 128.386 38.3464C128.258 38.5787 128.195 38.8458 128.195 39.1477V39.2871C128.195 39.5948 128.264 39.8706 128.404 40.1145C128.549 40.3526 128.749 40.5384 129.005 40.672C129.26 40.8055 129.553 40.8723 129.884 40.8723C130.157 40.8723 130.404 40.8258 130.625 40.7329C130.851 40.64 131.049 40.5007 131.217 40.3148L131.679 40.8549C131.47 41.0987 131.208 41.2846 130.895 41.4123C130.587 41.5401 130.241 41.6039 129.858 41.6039ZM135.043 41.6039C134.596 41.6039 134.196 41.5052 133.841 41.3078C133.493 41.1104 133.217 40.8345 133.014 40.4803C132.811 40.1261 132.709 39.7139 132.709 39.2435C132.709 38.7732 132.811 38.3638 133.014 38.0154C133.217 37.6612 133.493 37.3854 133.841 37.188C134.196 36.9905 134.596 36.8918 135.043 36.8918C135.432 36.8918 135.784 36.9789 136.097 37.1531C136.411 37.3273 136.66 37.5886 136.846 37.937C137.038 38.2854 137.134 38.7209 137.134 39.2435C137.134 39.7661 137.041 40.2016 136.855 40.55C136.675 40.8984 136.428 41.1626 136.115 41.3426C135.801 41.5168 135.444 41.6039 135.043 41.6039ZM135.113 40.8723C135.403 40.8723 135.665 40.8055 135.897 40.672C136.135 40.5384 136.321 40.3497 136.454 40.1058C136.594 39.8561 136.663 39.5687 136.663 39.2435C136.663 38.9125 136.594 38.628 136.454 38.3899C136.321 38.1461 136.135 37.9573 135.897 37.8238C135.665 37.6902 135.403 37.6235 135.113 37.6235C134.817 37.6235 134.553 37.6902 134.32 37.8238C134.088 37.9573 133.902 38.1461 133.763 38.3899C133.624 38.628 133.554 38.9125 133.554 39.2435C133.554 39.5687 133.624 39.8561 133.763 40.1058C133.902 40.3497 134.088 40.5384 134.32 40.672C134.553 40.8055 134.817 40.8723 135.113 40.8723ZM136.689 41.5517V40.3061L136.742 39.2348L136.655 38.1635V35.0888H137.491V41.5517H136.689ZM143.319 41.6039C142.872 41.6039 142.472 41.5052 142.117 41.3078C141.769 41.1104 141.493 40.8345 141.29 40.4803C141.087 40.1261 140.985 39.7139 140.985 39.2435C140.985 38.7732 141.087 38.3638 141.29 38.0154C141.493 37.6612 141.769 37.3854 142.117 37.188C142.472 36.9905 142.872 36.8918 143.319 36.8918C143.709 36.8918 144.06 36.9789 144.373 37.1531C144.687 37.3273 144.937 37.5886 145.122 37.937C145.314 38.2854 145.41 38.7209 145.41 39.2435C145.41 39.7661 145.317 40.2016 145.131 40.55C144.951 40.8984 144.704 41.1626 144.391 41.3426C144.077 41.5168 143.72 41.6039 143.319 41.6039ZM143.389 40.8723C143.679 40.8723 143.941 40.8055 144.173 40.672C144.411 40.5384 144.597 40.3497 144.73 40.1058C144.87 39.8561 144.94 39.5687 144.94 39.2435C144.94 38.9125 144.87 38.628 144.73 38.3899C144.597 38.1461 144.411 37.9573 144.173 37.8238C143.941 37.6902 143.679 37.6235 143.389 37.6235C143.093 37.6235 142.829 37.6902 142.597 37.8238C142.364 37.9573 142.178 38.1461 142.039 38.3899C141.9 38.628 141.83 38.9125 141.83 39.2435C141.83 39.5687 141.9 39.8561 142.039 40.1058C142.178 40.3497 142.364 40.5384 142.597 40.672C142.829 40.8055 143.093 40.8723 143.389 40.8723ZM144.966 41.5517V40.3061L145.018 39.2348L144.931 38.1635V35.0888H145.767V41.5517H144.966ZM149.405 41.6039C148.911 41.6039 148.476 41.5023 148.098 41.2991C147.727 41.0958 147.436 40.8171 147.227 40.4629C147.024 40.1087 146.922 39.7022 146.922 39.2435C146.922 38.7848 147.021 38.3783 147.218 38.0241C147.422 37.6699 147.697 37.3941 148.046 37.1967C148.4 36.9934 148.798 36.8918 149.239 36.8918C149.686 36.8918 150.081 36.9905 150.424 37.188C150.766 37.3854 151.033 37.6641 151.225 38.0241C151.422 38.3783 151.521 38.7935 151.521 39.2696C151.521 39.3045 151.518 39.3451 151.512 39.3916C151.512 39.438 151.51 39.4816 151.504 39.5222H147.576V38.9212H151.068L150.729 39.1303C150.734 38.8341 150.673 38.5699 150.546 38.3377C150.418 38.1054 150.241 37.9254 150.014 37.7977C149.794 37.6641 149.535 37.5973 149.239 37.5973C148.949 37.5973 148.69 37.6641 148.464 37.7977C148.237 37.9254 148.06 38.1083 147.933 38.3464C147.805 38.5787 147.741 38.8458 147.741 39.1477V39.2871C147.741 39.5948 147.811 39.8706 147.95 40.1145C148.095 40.3526 148.296 40.5384 148.551 40.672C148.807 40.8055 149.1 40.8723 149.431 40.8723C149.704 40.8723 149.95 40.8258 150.171 40.7329C150.398 40.64 150.595 40.5007 150.763 40.3148L151.225 40.8549C151.016 41.0987 150.755 41.2846 150.441 41.4123C150.133 41.5401 149.788 41.6039 149.405 41.6039Z" fill="white"/>
<path d="M121.596 49.6037V44.578C121.596 44.1251 121.727 43.765 121.988 43.4979C122.255 43.225 122.633 43.0886 123.12 43.0886C123.3 43.0886 123.472 43.1118 123.634 43.1583C123.803 43.1989 123.945 43.2657 124.061 43.3586L123.809 43.9944C123.721 43.9247 123.623 43.8725 123.512 43.8376C123.402 43.797 123.286 43.7767 123.164 43.7767C122.92 43.7767 122.734 43.8463 122.607 43.9857C122.479 44.1193 122.415 44.3196 122.415 44.5867V45.2051L122.432 45.5883V49.6037H121.596ZM120.812 45.6754V44.9874H123.756V45.6754H120.812Z" fill="white"/>
<path d="M127.34 49.6037V48.6281L127.296 48.4452V46.7816C127.296 46.4274 127.192 46.1545 126.983 45.9629C126.779 45.7654 126.472 45.6667 126.059 45.6667C125.787 45.6667 125.519 45.7132 125.258 45.8061C124.997 45.8932 124.776 46.0122 124.596 46.1632L124.248 45.5361C124.486 45.3445 124.77 45.1993 125.101 45.1006C125.438 44.9961 125.789 44.9438 126.155 44.9438C126.788 44.9438 127.276 45.0977 127.619 45.4054C127.961 45.7132 128.132 46.1835 128.132 46.8165V49.6037H127.34ZM125.824 49.6559C125.482 49.6559 125.18 49.5978 124.918 49.4817C124.663 49.3656 124.466 49.2059 124.326 49.0027C124.187 48.7936 124.117 48.5585 124.117 48.2972C124.117 48.0475 124.175 47.821 124.291 47.6178C124.413 47.4145 124.608 47.252 124.875 47.13C125.148 47.0081 125.514 46.9471 125.972 46.9471H127.436V47.5481H126.007C125.589 47.5481 125.308 47.6178 125.162 47.7571C125.017 47.8965 124.945 48.0649 124.945 48.2623C124.945 48.4888 125.035 48.6717 125.215 48.811C125.395 48.9446 125.644 49.0114 125.964 49.0114C126.277 49.0114 126.55 48.9417 126.782 48.8023C127.02 48.663 127.192 48.4597 127.296 48.1926L127.462 48.7675C127.351 49.0404 127.157 49.2582 126.878 49.4207C126.599 49.5775 126.248 49.6559 125.824 49.6559Z" fill="white"/>
<path d="M129.684 49.6037V44.9874H130.486V46.2416L130.407 45.928C130.535 45.6087 130.75 45.3648 131.052 45.1964C131.354 45.028 131.725 44.9438 132.167 44.9438V45.7538C132.132 45.748 132.097 45.7451 132.062 45.7451C132.033 45.7451 132.004 45.7451 131.975 45.7451C131.528 45.7451 131.174 45.8787 130.912 46.1458C130.651 46.4129 130.52 46.799 130.52 47.3042V49.6037H129.684Z" fill="white"/>
<path d="M138.969 44.9438C139.34 44.9438 139.668 45.0164 139.953 45.1616C140.237 45.3067 140.458 45.5274 140.615 45.8235C140.777 46.1197 140.859 46.4942 140.859 46.9471V49.6037H140.023V47.0429C140.023 46.5958 139.918 46.259 139.709 46.0326C139.5 45.8061 139.207 45.6929 138.829 45.6929C138.551 45.6929 138.307 45.7509 138.098 45.8671C137.889 45.9832 137.726 46.1545 137.61 46.381C137.5 46.6074 137.444 46.889 137.444 47.2258V49.6037H136.608V47.0429C136.608 46.5958 136.504 46.259 136.295 46.0326C136.092 45.8061 135.798 45.6929 135.415 45.6929C135.142 45.6929 134.901 45.7509 134.692 45.8671C134.483 45.9832 134.32 46.1545 134.204 46.381C134.088 46.6074 134.03 46.889 134.03 47.2258V49.6037H133.194V44.9874H133.995V46.2155L133.865 45.9019C134.01 45.6 134.233 45.3648 134.535 45.1964C134.837 45.028 135.189 44.9438 135.589 44.9438C136.031 44.9438 136.411 45.0541 136.73 45.2748C137.05 45.4896 137.259 45.8177 137.357 46.259L137.018 46.1197C137.157 45.7654 137.401 45.4809 137.749 45.2661C138.098 45.0512 138.504 44.9438 138.969 44.9438Z" fill="white"/>
<path d="M145.27 49.6037V48.6281L145.226 48.4452V46.7816C145.226 46.4274 145.121 46.1545 144.912 45.9629C144.709 45.7654 144.401 45.6667 143.989 45.6667C143.716 45.6667 143.449 45.7132 143.188 45.8061C142.927 45.8932 142.706 46.0122 142.526 46.1632L142.177 45.5361C142.416 45.3445 142.7 45.1993 143.031 45.1006C143.368 44.9961 143.719 44.9438 144.085 44.9438C144.718 44.9438 145.206 45.0977 145.548 45.4054C145.891 45.7132 146.062 46.1835 146.062 46.8165V49.6037H145.27ZM143.754 49.6559C143.411 49.6559 143.109 49.5978 142.848 49.4817C142.593 49.3656 142.395 49.2059 142.256 49.0027C142.117 48.7936 142.047 48.5585 142.047 48.2972C142.047 48.0475 142.105 47.821 142.221 47.6178C142.343 47.4145 142.537 47.252 142.805 47.13C143.078 47.0081 143.443 46.9471 143.902 46.9471H145.365V47.5481H143.937C143.519 47.5481 143.237 47.6178 143.092 47.7571C142.947 47.8965 142.874 48.0649 142.874 48.2623C142.874 48.4888 142.964 48.6717 143.144 48.811C143.324 48.9446 143.574 49.0114 143.893 49.0114C144.207 49.0114 144.48 48.9417 144.712 48.8023C144.95 48.663 145.121 48.4597 145.226 48.1926L145.391 48.7675C145.281 49.0404 145.087 49.2582 144.808 49.4207C144.529 49.5775 144.178 49.6559 143.754 49.6559Z" fill="white"/>
<path d="M149.646 49.6559C149.176 49.6559 148.755 49.5543 148.383 49.3511C148.018 49.1478 147.73 48.8691 147.521 48.5149C147.312 48.1607 147.208 47.7542 147.208 47.2955C147.208 46.8368 147.312 46.4303 147.521 46.0761C147.73 45.7219 148.018 45.4461 148.383 45.2487C148.755 45.0454 149.176 44.9438 149.646 44.9438C150.064 44.9438 150.436 45.028 150.761 45.1964C151.092 45.359 151.348 45.6029 151.528 45.928L150.892 46.3374C150.741 46.1109 150.555 45.9455 150.335 45.8409C150.12 45.7306 149.887 45.6754 149.638 45.6754C149.336 45.6754 149.066 45.7422 148.828 45.8758C148.59 46.0093 148.401 46.198 148.262 46.4419C148.122 46.68 148.052 46.9645 148.052 47.2955C148.052 47.6265 148.122 47.9139 148.262 48.1578C148.401 48.4017 148.59 48.5904 148.828 48.7239C149.066 48.8575 149.336 48.9243 149.638 48.9243C149.887 48.9243 150.12 48.872 150.335 48.7675C150.555 48.6572 150.741 48.4888 150.892 48.2623L151.528 48.663C151.348 48.9823 151.092 49.2291 150.761 49.4033C150.436 49.5717 150.064 49.6559 149.646 49.6559ZM152.551 49.6037V44.9874H153.387V49.6037H152.551ZM152.969 44.0989C152.806 44.0989 152.67 44.0467 152.56 43.9422C152.455 43.8376 152.403 43.7099 152.403 43.5589C152.403 43.4021 152.455 43.2715 152.56 43.167C152.67 43.0624 152.806 43.0102 152.969 43.0102C153.131 43.0102 153.265 43.0624 153.37 43.167C153.48 43.2657 153.535 43.3905 153.535 43.5415C153.535 43.6983 153.483 43.8318 153.378 43.9422C153.274 44.0467 153.137 44.0989 152.969 44.0989ZM157.849 49.6037V48.6281L157.806 48.4452V46.7816C157.806 46.4274 157.701 46.1545 157.492 45.9629C157.289 45.7654 156.981 45.6667 156.569 45.6667C156.296 45.6667 156.029 45.7132 155.767 45.8061C155.506 45.8932 155.285 46.0122 155.105 46.1632L154.757 45.5361C154.995 45.3445 155.28 45.1993 155.611 45.1006C155.947 44.9961 156.299 44.9438 156.664 44.9438C157.297 44.9438 157.785 45.0977 158.128 45.4054C158.47 45.7132 158.642 46.1835 158.642 46.8165V49.6037H157.849ZM156.334 49.6559C155.991 49.6559 155.689 49.5978 155.428 49.4817C155.172 49.3656 154.975 49.2059 154.835 49.0027C154.696 48.7936 154.626 48.5585 154.626 48.2972C154.626 48.0475 154.684 47.821 154.801 47.6178C154.922 47.4145 155.117 47.252 155.384 47.13C155.657 47.0081 156.023 46.9471 156.482 46.9471H157.945V47.5481H156.516C156.098 47.5481 155.817 47.6178 155.672 47.7571C155.526 47.8965 155.454 48.0649 155.454 48.2623C155.454 48.4888 155.544 48.6717 155.724 48.811C155.904 48.9446 156.154 49.0114 156.473 49.0114C156.786 49.0114 157.059 48.9417 157.292 48.8023C157.53 48.663 157.701 48.4597 157.806 48.1926L157.971 48.7675C157.861 49.0404 157.666 49.2582 157.387 49.4207C157.109 49.5775 156.757 49.6559 156.334 49.6559ZM161.513 49.6559C161.13 49.6559 160.764 49.6037 160.416 49.4991C160.073 49.3946 159.803 49.2669 159.605 49.1159L159.954 48.4539C160.151 48.5875 160.395 48.7007 160.686 48.7936C160.976 48.8865 161.272 48.933 161.574 48.933C161.963 48.933 162.242 48.8778 162.41 48.7675C162.584 48.6572 162.671 48.5033 162.671 48.3059C162.671 48.1607 162.619 48.0475 162.515 47.9662C162.41 47.8849 162.271 47.8239 162.097 47.7833C161.928 47.7426 161.739 47.7078 161.53 47.6787C161.321 47.6439 161.112 47.6033 160.903 47.5568C160.694 47.5045 160.503 47.4349 160.328 47.3478C160.154 47.2549 160.015 47.13 159.91 46.9732C159.806 46.8106 159.754 46.5958 159.754 46.3287C159.754 46.05 159.832 45.8061 159.989 45.5971C160.146 45.388 160.366 45.2283 160.651 45.118C160.941 45.0019 161.284 44.9438 161.678 44.9438C161.98 44.9438 162.285 44.9815 162.593 45.057C162.907 45.1267 163.162 45.2283 163.359 45.3619L163.002 46.0238C162.793 45.8845 162.576 45.7887 162.349 45.7364C162.123 45.6842 161.896 45.658 161.67 45.658C161.304 45.658 161.031 45.719 160.851 45.8409C160.671 45.9571 160.581 46.108 160.581 46.2939C160.581 46.4506 160.633 46.5726 160.738 46.6597C160.848 46.741 160.987 46.8048 161.156 46.8513C161.33 46.8977 161.522 46.9384 161.731 46.9732C161.94 47.0023 162.149 47.0429 162.358 47.0952C162.567 47.1416 162.756 47.2084 162.924 47.2955C163.098 47.3826 163.238 47.5045 163.342 47.6613C163.452 47.8181 163.508 48.0271 163.508 48.2884C163.508 48.5672 163.426 48.8081 163.264 49.0114C163.101 49.2146 162.872 49.3743 162.576 49.4904C162.279 49.6007 161.925 49.6559 161.513 49.6559Z" fill="white"/>
</svg>