<svg width="145" height="192" viewBox="0 0 145 192" fill="none" xmlns="http://www.w3.org/2000/svg">
<path opacity="0.9" d="M136.11 191.83L73.3642 178C72.3175 177.767 71.2325 177.767 70.1858 178L8.93431 191.786C7.86235 192.028 6.74973 192.026 5.6789 191.778C4.60808 191.531 3.60653 191.045 2.74845 190.357C1.89036 189.669 1.19773 188.796 0.721954 187.803C0.246177 186.81 -0.000548698 185.723 9.16237e-07 184.621V35.2359C9.16237e-07 33.289 0.77157 31.4218 2.14494 30.0452C3.51832 28.6685 5.38099 27.8951 7.32323 27.8951H137.677C139.619 27.8951 141.482 28.6685 142.855 30.0452C144.228 31.4218 145 33.289 145 35.2359V184.665C144.999 185.762 144.753 186.845 144.28 187.834C143.807 188.823 143.118 189.693 142.265 190.38C141.412 191.068 140.417 191.555 139.352 191.805C138.286 192.056 137.178 192.065 136.11 191.83Z" fill="white"/>
<path d="M36.3528 150.046L43.4418 121.065L13.3433 92.4648L44.6867 91.672L63.7125 54.322L81.3614 85.7847L132.331 77.4014L101.383 114.957L122.562 148.431L76.9967 132.384L47.5134 158.561L58.7326 135.32L73.1447 121.167L73.4378 118.892L71.9291 118.481L65.6457 123.751L64.313 123.472L70.4205 111.859L70.0543 110.641L68.575 110.376L61.6473 120.844L61.2518 119.317L66.8175 106.339L66.6564 104.283L65.0745 104.533L58.0883 119.787L56.7407 119.361L58.1761 105.737L57.2533 103.96L55.569 104.533L53.2842 120.037L52.6103 123.972L51.0286 118.95L49.2124 117.629L47.9675 118.936L48.275 129.257L36.3528 150.046Z" fill="#2A3D88"/>
<path d="M88.2607 95.7242C88.2607 95.7242 82.1824 87.8695 76.8804 90.2186C71.5784 92.5676 69.4693 94.623 72.1203 103.05C74.7713 111.478 86.137 115.339 86.137 115.339C86.137 115.339 98.3081 110.45 103.596 102.566C108.883 94.6817 100.666 91.7895 100.666 91.7895C100.666 91.7895 94.339 87.6052 88.2607 95.7242Z" fill="#BE1620"/>
</svg>
