<svg width="194" height="32" viewBox="0 0 194 32" fill="none" xmlns="http://www.w3.org/2000/svg"><script xmlns=""/>
<path d="M54.9821 7.88756C54.9857 8.14985 54.9725 8.4121 54.9424 8.67267C54.9288 8.84717 54.8868 9.01825 54.8178 9.17901C54.7749 9.2867 54.7092 9.38375 54.6252 9.46346C54.5555 9.52248 54.4672 9.55473 54.376 9.55449H47.8176V14.9762H53.9739C54.0627 14.9737 54.15 14.9996 54.2231 15.0502C54.3083 15.122 54.3744 15.2138 54.4157 15.3175C54.4828 15.4773 54.5267 15.6459 54.5459 15.8182C54.5912 16.3349 54.5912 16.8546 54.5459 17.3713C54.525 17.5488 54.4812 17.7228 54.4157 17.889C54.3772 17.999 54.3108 18.0971 54.2231 18.1735C54.1529 18.2317 54.0649 18.2638 53.9739 18.2645H47.8176V25.7685C47.8213 25.8745 47.7894 25.9787 47.727 26.0643C47.6383 26.1656 47.5222 26.2387 47.3928 26.2748C47.1889 26.3422 46.978 26.3861 46.7642 26.4056C46.4352 26.4438 46.1042 26.4609 45.773 26.4568C45.4438 26.4603 45.1147 26.4432 44.7876 26.4056C44.5738 26.3861 44.3629 26.3422 44.1589 26.2748C44.0318 26.2372 43.918 26.1642 43.8304 26.0643C43.7618 25.9814 43.7256 25.8762 43.7285 25.7685V7.48364C43.711 7.3042 43.7329 7.1231 43.7926 6.95307C43.8523 6.78303 43.9483 6.62818 44.074 6.49942C44.3127 6.2927 44.6198 6.18313 44.9348 6.19222H54.376C54.4666 6.18988 54.555 6.22014 54.6252 6.27755C54.7104 6.35395 54.7764 6.44946 54.8178 6.55631C54.8851 6.72356 54.9271 6.89999 54.9424 7.07972C54.9726 7.34789 54.9858 7.61771 54.9821 7.88756Z" fill="white"/>
<path d="M74.6799 18.8618C74.6901 19.9925 74.4983 21.1159 74.1136 22.1786C73.7765 23.1167 73.228 23.9637 72.5108 24.6533C71.769 25.3548 70.8809 25.8815 69.9112 26.1951C68.7585 26.5656 67.5532 26.7443 66.3431 26.7242C65.1932 26.7393 64.0476 26.5801 62.945 26.252C62.002 25.9675 61.1348 25.4737 60.4077 24.807C59.6976 24.1405 59.1526 23.3163 58.8162 22.4004C58.4227 21.3224 58.2307 20.1806 58.2498 19.0325V6.76676C58.2478 6.66447 58.2797 6.56439 58.3405 6.48231C58.4295 6.38389 58.5459 6.31455 58.6746 6.2832C58.8777 6.22112 59.0864 6.17919 59.2976 6.15804C59.6288 6.12526 59.9616 6.11006 60.2944 6.11252C60.6197 6.11012 60.9449 6.12532 61.2685 6.15804C61.4799 6.1786 61.6886 6.22053 61.8915 6.2832C62.0184 6.31883 62.1337 6.38751 62.2257 6.48231C62.2922 6.56197 62.3283 6.6628 62.3276 6.76676V18.6684C62.3134 19.3739 62.4128 20.077 62.6221 20.7506C62.7911 21.2919 63.0795 21.7878 63.466 22.2013C63.834 22.5875 64.2855 22.8834 64.7856 23.0661C65.33 23.2647 65.9056 23.363 66.4847 23.3562C67.0644 23.3644 67.6406 23.264 68.1838 23.0604C68.6712 22.8721 69.1105 22.5766 69.4694 22.1956C69.8339 21.7903 70.1116 21.3139 70.285 20.7961C70.4858 20.1853 70.5835 19.5449 70.5738 18.9017V6.76676C70.5717 6.66447 70.6036 6.56439 70.6644 6.48231C70.7522 6.38511 70.8664 6.3159 70.9929 6.2832C71.1957 6.21995 71.4045 6.178 71.6159 6.15804C71.9434 6.12566 72.2723 6.11046 72.6014 6.11252C72.9248 6.10996 73.2481 6.12517 73.5698 6.15804C73.7792 6.17912 73.986 6.22105 74.1872 6.2832C74.3115 6.31721 74.4236 6.3863 74.51 6.48231C74.5724 6.56387 74.6063 6.66387 74.6063 6.76676L74.6799 18.8618Z" fill="white"/>
<path d="M95.5786 24.9263C95.5829 25.1446 95.5424 25.3615 95.4597 25.5635C95.3811 25.7434 95.2653 25.9043 95.1199 26.0357C94.9805 26.1648 94.8111 26.2568 94.6271 26.3031C94.4435 26.3599 94.2529 26.3905 94.0608 26.3941H92.3221C92.0073 26.3979 91.6933 26.3616 91.3876 26.286C91.1173 26.2073 90.8678 26.0693 90.657 25.8821C90.4049 25.657 90.189 25.3941 90.017 25.1026C89.7612 24.6942 89.5268 24.2726 89.3147 23.8397L84.3251 14.4128C84.0362 13.8439 83.7587 13.2465 83.4415 12.598C83.1244 11.9494 82.8752 11.3179 82.6316 10.7035C82.6713 11.4545 82.7053 12.1998 82.7223 12.9393C82.7392 13.6789 82.7562 14.447 82.7562 15.215V25.7626C82.7575 25.8621 82.7278 25.9596 82.6713 26.0414C82.5931 26.1387 82.489 26.2117 82.3711 26.2519C82.1891 26.3209 81.9986 26.3649 81.8048 26.3827C81.5004 26.4208 81.1939 26.4379 80.8873 26.4339C80.5863 26.4376 80.2854 26.4205 79.9867 26.3827C79.793 26.3648 79.6025 26.3208 79.4204 26.2519C79.307 26.2149 79.2093 26.1408 79.1429 26.0414C79.088 25.9591 79.0603 25.8616 79.0636 25.7626V7.67121C79.0491 7.46717 79.0796 7.26244 79.153 7.07164C79.2265 6.88084 79.341 6.7087 79.4883 6.56754C79.7824 6.32304 80.1545 6.19369 80.5361 6.20343H82.7223C83.0556 6.19662 83.3884 6.23101 83.7134 6.30583C83.9735 6.36714 84.2183 6.48138 84.4327 6.64148C84.6686 6.81895 84.8718 7.03652 85.033 7.28435C85.2461 7.61159 85.4353 7.95383 85.5994 8.30841L89.5129 15.6758C89.7395 16.1253 89.9603 16.5633 90.1869 16.99C90.4134 17.4167 90.6173 17.8547 90.8269 18.2871C91.0364 18.7195 91.2346 19.1405 91.4329 19.5558C91.6311 19.9711 91.818 20.3864 91.9992 20.8017C91.9652 20.0735 91.9426 19.3168 91.9256 18.526C91.9086 17.7352 91.9256 16.9786 91.9256 16.2504V6.81217C91.9255 6.71101 91.9595 6.61278 92.0219 6.53339C92.1019 6.43424 92.2078 6.3594 92.3277 6.31722C92.5089 6.24441 92.6997 6.1984 92.8941 6.18066C93.132 6.18066 93.4604 6.14085 93.8116 6.14085C94.1627 6.14085 94.4516 6.14084 94.6894 6.18066C94.8846 6.19309 95.0762 6.2393 95.2558 6.31722C95.3656 6.36085 95.4602 6.43603 95.5277 6.53339C95.5783 6.6173 95.6038 6.71408 95.6013 6.81217L95.5786 24.9263Z" fill="white"/>
<path d="M116.625 16.0172C116.661 17.6292 116.416 19.2351 115.9 20.7619C115.475 21.9833 114.766 23.0853 113.833 23.9762C112.892 24.8286 111.77 25.455 110.553 25.8081C109.056 26.2189 107.507 26.4105 105.954 26.377H101.152C100.983 26.3897 100.814 26.3643 100.656 26.3027C100.499 26.241 100.357 26.1448 100.241 26.021C100.126 25.8971 100.039 25.7488 99.9878 25.587C99.9366 25.4251 99.9221 25.2538 99.9454 25.0856V7.48348C99.9279 7.30404 99.9498 7.12294 100.009 6.9529C100.069 6.78287 100.165 6.62802 100.291 6.49926C100.53 6.29254 100.837 6.18297 101.152 6.19206H106.3C107.834 6.15856 109.364 6.37174 110.831 6.82354C112.006 7.20517 113.081 7.84452 113.98 8.69527C114.853 9.55172 115.518 10.5992 115.922 11.756C116.408 13.1228 116.646 14.566 116.625 16.0172ZM112.405 16.1537C112.414 15.2551 112.302 14.3595 112.071 13.4912C111.87 12.7114 111.505 11.9839 111.001 11.3578C110.491 10.743 109.842 10.2593 109.109 9.94686C108.143 9.57514 107.113 9.40294 106.079 9.44054H104.017V23.1513H106.141C107.104 23.1772 108.063 23.0288 108.973 22.7133C109.711 22.4411 110.371 21.9896 110.893 21.3991C111.426 20.761 111.812 20.0133 112.026 19.2087C112.298 18.2044 112.426 17.166 112.405 16.1252V16.1537Z" fill="white"/>
<path d="M135.665 24.8353C135.769 25.1234 135.847 25.4205 135.898 25.7228C135.916 25.8085 135.914 25.8972 135.892 25.9821C135.871 26.0669 135.83 26.1456 135.773 26.212C135.598 26.3428 135.385 26.4145 135.167 26.4169C134.878 26.4453 134.482 26.4567 133.972 26.4567C133.462 26.4567 133.038 26.4567 132.743 26.4282C132.516 26.4248 132.289 26.3942 132.069 26.3372C131.941 26.3128 131.825 26.2444 131.741 26.1438C131.672 26.045 131.62 25.9354 131.588 25.8195L130.24 21.7688H122.701L121.433 25.6887C121.396 25.8193 121.341 25.9439 121.269 26.0585C121.188 26.1666 121.075 26.2462 120.946 26.286C120.739 26.3561 120.524 26.3963 120.306 26.4055C120.034 26.4055 119.671 26.4396 119.23 26.4396C118.851 26.4455 118.473 26.4284 118.097 26.3884C117.887 26.3888 117.685 26.3096 117.531 26.1666C117.477 26.0953 117.439 26.0129 117.421 25.9254C117.402 25.8379 117.403 25.7474 117.423 25.6602C117.473 25.3615 117.551 25.0682 117.655 24.7841L123.863 6.91457C123.913 6.7626 123.986 6.61886 124.078 6.48789C124.184 6.36584 124.324 6.27862 124.48 6.23757C124.724 6.17207 124.975 6.13578 125.227 6.12947C125.55 6.12947 125.975 6.12947 126.502 6.12947C127.028 6.12947 127.595 6.12947 127.957 6.12947C128.242 6.13499 128.525 6.17123 128.801 6.23757C128.97 6.27287 129.124 6.36277 129.237 6.49358C129.339 6.63452 129.416 6.79242 129.464 6.96008L135.665 24.8353ZM126.451 10.0436L123.619 18.6057H129.311L126.451 10.0436Z" fill="white"/>
<path d="M146.829 25.6432C146.788 25.7978 146.721 25.944 146.631 26.0756C146.526 26.1988 146.385 26.2846 146.228 26.3202C145.979 26.3883 145.722 26.4247 145.464 26.4283C145.147 26.4283 144.728 26.4568 144.212 26.4568H143.147C142.896 26.4572 142.644 26.4439 142.394 26.417C142.225 26.405 142.058 26.3744 141.896 26.3259C141.778 26.2944 141.667 26.2424 141.567 26.1723C141.482 26.1141 141.412 26.036 141.363 25.9448C141.31 25.8371 141.266 25.7247 141.233 25.6091L135.264 7.73961C135.161 7.45336 135.085 7.15814 135.037 6.85779C135.018 6.76993 135.021 6.67845 135.048 6.59255C135.075 6.50665 135.124 6.42938 135.19 6.36853C135.386 6.23567 135.617 6.16437 135.853 6.16371C136.164 6.13527 136.595 6.12389 137.155 6.12389C137.631 6.12389 138.005 6.1239 138.288 6.15234C138.499 6.16344 138.708 6.19973 138.911 6.26044C139.036 6.29851 139.143 6.38154 139.211 6.49369C139.278 6.6194 139.332 6.75076 139.376 6.88624L144.258 22.4289L149.049 6.96588C149.079 6.81506 149.13 6.66939 149.202 6.5335C149.277 6.4155 149.388 6.32554 149.519 6.2775C149.727 6.20446 149.945 6.1623 150.165 6.15234C150.448 6.15234 150.827 6.12389 151.297 6.12389C151.675 6.11926 152.054 6.13446 152.43 6.16941C152.535 6.16627 152.639 6.18484 152.737 6.22399C152.834 6.26314 152.923 6.32203 152.996 6.39697C153.051 6.46779 153.088 6.55057 153.105 6.63856C153.122 6.72654 153.118 6.81726 153.093 6.90331C153.032 7.19889 152.951 7.48977 152.849 7.77374L146.829 25.6432Z" fill="white"/>
<path d="M159.714 25.8026C159.717 25.9042 159.682 26.0034 159.617 26.0813C159.526 26.178 159.411 26.2486 159.283 26.2861C159.08 26.3465 158.871 26.3866 158.66 26.4056C158.331 26.4437 158 26.4608 157.669 26.4568C157.34 26.4602 157.011 26.4431 156.684 26.4056C156.472 26.3871 156.264 26.3471 156.061 26.2861C155.933 26.2502 155.817 26.1793 155.726 26.0813C155.66 26.0039 155.624 25.9048 155.625 25.8026V6.76678C155.624 6.66281 155.66 6.56198 155.726 6.48232C155.819 6.38503 155.937 6.31601 156.066 6.28322C156.271 6.22062 156.482 6.17869 156.695 6.15806C157.019 6.12533 157.344 6.11013 157.669 6.11253C158 6.10991 158.331 6.12511 158.66 6.15806C158.872 6.17861 159.08 6.22054 159.283 6.28322C159.41 6.31885 159.525 6.38753 159.617 6.48232C159.682 6.56253 159.716 6.66345 159.714 6.76678V25.8026Z" fill="white"/>
<path d="M177.44 7.88745C177.442 8.14577 177.431 8.40403 177.406 8.66118C177.387 8.83589 177.347 9.00771 177.287 9.17319C177.248 9.28436 177.182 9.38403 177.095 9.46334C177.02 9.52015 176.929 9.55197 176.834 9.55437H171.816V25.8025C171.814 25.9042 171.779 26.0024 171.714 26.0812C171.623 26.1779 171.508 26.2485 171.38 26.286C171.173 26.3474 170.961 26.3874 170.746 26.4055C170.093 26.4738 169.434 26.4738 168.781 26.4055C168.568 26.3875 168.357 26.3475 168.152 26.286C168.024 26.2501 167.908 26.1792 167.818 26.0812C167.751 26.0038 167.715 25.9048 167.716 25.8025V9.55437H162.692C162.598 9.55488 162.506 9.52275 162.432 9.46334C162.347 9.38354 162.283 9.28387 162.245 9.17319C162.186 9.00771 162.146 8.83589 162.126 8.66118C162.101 8.40403 162.09 8.14577 162.092 7.88745C162.09 7.62155 162.101 7.35572 162.126 7.09098C162.145 6.91247 162.185 6.73683 162.245 6.56759C162.282 6.46013 162.347 6.36414 162.432 6.28881C162.507 6.23144 162.598 6.20134 162.692 6.20347H176.851C176.945 6.20385 177.036 6.23369 177.112 6.28881C177.199 6.36363 177.265 6.45963 177.304 6.56759C177.364 6.73683 177.404 6.91247 177.423 7.09098C177.442 7.35601 177.448 7.62184 177.44 7.88745Z" fill="white"/>
<path d="M193.757 24.8353C193.857 25.1243 193.932 25.4211 193.983 25.7228C194.005 25.8079 194.005 25.897 193.985 25.9824C193.964 26.0677 193.923 26.1466 193.864 26.212C193.689 26.3428 193.477 26.4145 193.258 26.4169C192.969 26.4453 192.567 26.4567 192.063 26.4567C191.559 26.4567 191.129 26.4567 190.829 26.4282C190.601 26.4248 190.375 26.3942 190.155 26.3372C190.028 26.3115 189.914 26.2433 189.832 26.1438C189.761 26.0463 189.709 25.9363 189.679 25.8195L188.325 21.7688H180.787L179.518 25.6887C179.482 25.8193 179.426 25.9439 179.354 26.0585C179.273 26.1666 179.16 26.2462 179.031 26.286C178.825 26.3566 178.609 26.3968 178.391 26.4055C178.119 26.4055 177.763 26.4396 177.315 26.4396C176.937 26.4455 176.559 26.4284 176.182 26.3884C175.973 26.3888 175.77 26.3096 175.616 26.1666C175.559 26.0972 175.518 26.0151 175.499 25.9271C175.479 25.8391 175.48 25.7476 175.503 25.6602C175.558 25.3621 175.638 25.0691 175.741 24.7841L181.954 6.91457C182.004 6.7626 182.077 6.61886 182.169 6.48789C182.273 6.36599 182.411 6.27868 182.565 6.23757C182.811 6.17167 183.064 6.13539 183.319 6.12947C183.641 6.12947 184.061 6.12947 184.587 6.12947C185.114 6.12947 185.686 6.12947 186.048 6.12947C186.333 6.13499 186.616 6.17123 186.892 6.23757C187.06 6.27401 187.211 6.36383 187.323 6.49358C187.425 6.63452 187.502 6.79242 187.549 6.96008L193.757 24.8353ZM184.542 10.0436L181.71 18.6057H187.374L184.542 10.0436Z" fill="white"/>
<path d="M6.82463 29.3809L8.93149 20.7619L0 12.2567L9.29962 12.0234L14.9462 0.912598L20.1794 10.2712L35.3068 7.77367L26.1205 18.9414L32.4071 28.8974L18.8824 24.1299L10.1322 31.9126L13.468 25.0003L17.744 20.7961L17.829 20.1134L17.3816 19.9939L15.5182 21.5584L15.1218 21.4787L16.9341 18.0255L16.8265 17.6614L16.3848 17.5817L14.3289 20.6937L14.21 20.2442L15.8637 16.3813L15.8127 15.7726L15.3483 15.8465L13.2755 20.3807L12.8733 20.2499L13.2981 16.2049L13.0263 15.6759L12.5222 15.8465L11.8482 20.4547L11.65 21.6267L11.1799 20.1304L10.6419 19.7379L10.2681 20.1248L10.3587 23.1969L6.82463 29.3809Z" fill="white"/>
<path d="M22.2295 13.224C22.2295 13.224 20.4229 10.8914 18.8314 11.5912C17.2399 12.291 16.6283 12.9168 17.4155 15.4029C18.2027 17.889 21.5726 19.061 21.5726 19.061C21.5726 19.061 25.186 17.6046 26.7548 15.2607C28.3236 12.9168 25.8996 12.0577 25.8996 12.0577C25.8996 12.0577 24.0306 10.8175 22.2295 13.224Z" fill="#DB0032"/>
</svg>