<svg width="134" height="42" viewBox="0 0 134 42" fill="none" xmlns="http://www.w3.org/2000/svg"><script xmlns=""/>
<g clip-path="url(#clip0_630_496)">
<path d="M126.787 4.22566C126.787 2.25707 128.337 0.763657 130.291 0.763657C132.245 0.763657 133.795 2.25707 133.795 4.22566C133.795 6.19425 132.245 7.61979 130.291 7.61979C128.27 7.61979 126.787 6.19425 126.787 4.22566ZM32.9859 11.4212L25.9777 31.5823H21.1933L16.948 19.0919L12.7027 31.5823H7.91829L0.910156 11.4212H6.84012L10.3442 23.2328L14.6569 11.4891H19.2391L23.5518 23.2328L27.0559 11.4891H32.9859V11.4212ZM53.9429 11.4212V31.5144H48.4846V30.3604C46.9347 31.3787 44.9805 31.9896 42.7568 31.9896C37.2312 31.9896 32.7837 27.2378 32.7837 21.4678C32.7837 15.6978 37.2312 10.946 42.7568 10.946C44.9805 10.946 46.9347 11.557 48.4846 12.5752V11.4212H53.9429ZM48.4846 24.7262V18.3452C47.2043 16.5124 45.3849 15.9693 43.5654 15.9693C40.3983 15.9693 38.242 18.481 38.242 21.5357C38.242 24.5225 40.3983 27.0342 43.5654 27.0342C45.3849 27.0342 47.2043 26.559 48.4846 24.7262ZM66.4767 23.7758L63.1074 27.3057V31.5144H57.6491V4.0899L63.1074 2.46072V20.1102L71.1263 11.4891H78.067L70.2503 19.7707L79.0104 31.5144H71.9349L66.4767 23.7758ZM99.2936 11.4212V31.5144H93.8353V30.3604C92.2855 31.3787 90.3313 31.9896 88.1075 31.9896C82.5819 31.9896 78.1344 27.2378 78.1344 21.4678C78.1344 15.6299 82.5819 10.8781 88.1075 10.8781C90.3313 10.8781 92.2855 11.4891 93.8353 12.5073V11.3533H99.2936V11.4212ZM93.768 24.7262V18.3452C92.4876 16.5124 90.6682 15.9693 88.8488 15.9693C85.6816 15.9693 83.5253 18.481 83.5253 21.5357C83.5253 24.5225 85.6816 27.0342 88.8488 27.0342C90.6682 27.0342 92.4876 26.559 93.768 24.7262ZM124.563 21.5357C124.563 27.3736 120.116 31.9896 114.59 31.9896C112.366 31.9896 110.412 31.3787 108.862 30.3604V40.407L103.404 41.9683V11.4212H108.862V12.5752C110.412 11.557 112.366 10.946 114.59 10.946C120.116 11.0139 124.563 15.6978 124.563 21.5357ZM119.105 21.5357C119.105 18.481 116.949 15.7657 113.782 15.7657C111.962 15.7657 110.21 16.3766 108.862 18.2773V24.7262C110.143 26.559 111.962 27.2378 113.782 27.2378C116.949 27.2378 119.105 24.5225 119.105 21.5357ZM133.054 31.5823H127.596V11.4212H133.054V31.5823Z" fill="white"/>
</g>
<defs>
<clipPath id="clip0_630_496">
<rect width="132.885" height="41.2047" fill="white" transform="translate(0.909668 0.763657)"/>
</clipPath>
</defs>
</svg>