<svg width="80" height="19" viewBox="0 0 80 19" fill="none" xmlns="http://www.w3.org/2000/svg"><script xmlns=""/>
<path d="M79.8728 16.8774L40.0178 18.5417H39.9708L0.130178 16.8756C0.0976161 16.8731 0.0669408 16.8593 0.0433758 16.8367C0.0198108 16.8141 0.00481887 16.784 0.000978357 16.7516C-0.00286215 16.7192 0.00467716 16.6864 0.0223094 16.6589C0.0399417 16.6314 0.0665627 16.6109 0.097641 16.6009L1.65715 16.1473C1.69929 16.1343 1.74316 16.1276 1.78727 16.1274H78.2013C78.2454 16.1277 78.2892 16.1344 78.3314 16.1473L79.9035 16.6045C79.9341 16.6144 79.9603 16.6345 79.9778 16.6615C79.9952 16.6885 80.0027 16.7207 79.9991 16.7526C79.9955 16.7845 79.9809 16.8142 79.9579 16.8366C79.9349 16.8591 79.9048 16.8728 79.8728 16.8756" fill="white"/>
<path d="M31.4739 3.36283V10.9056V13.2728H33.2466C33.2711 13.2728 33.2945 13.2631 33.3118 13.2458C33.3291 13.2286 33.3388 13.2051 33.3388 13.1807V1.00098H31.5715C31.559 1.00097 31.5466 1.00347 31.5351 1.0083C31.5236 1.01314 31.5131 1.02022 31.5044 1.02913C31.4956 1.03805 31.4887 1.04863 31.4841 1.06024C31.4795 1.07185 31.4773 1.08427 31.4775 1.09676L31.4739 3.36283Z" fill="white"/>
<path d="M60.2063 3.36283V10.9056V13.2728H61.9772C62.0017 13.2728 62.0251 13.2631 62.0424 13.2458C62.0597 13.2286 62.0694 13.2051 62.0694 13.1807V1.00098H60.3039C60.2785 1.00098 60.2541 1.01106 60.2362 1.02902C60.2182 1.04699 60.2081 1.07136 60.2081 1.09676L60.2063 3.36283Z" fill="white"/>
<path d="M46.5865 10.2784L42.9181 0.999041H40.9466C40.9341 0.998801 40.9217 1.00105 40.9101 1.00567C40.8985 1.01028 40.8879 1.01717 40.879 1.02592C40.8701 1.03467 40.863 1.04511 40.8582 1.05663C40.8533 1.06815 40.8508 1.08052 40.8508 1.09301V13.2727H41.355C41.3799 13.2727 41.4038 13.2628 41.4215 13.2452C41.4391 13.2276 41.449 13.2037 41.449 13.1787V2.8784C41.449 2.86754 41.4528 2.85701 41.4596 2.84861C41.4665 2.84021 41.4761 2.83446 41.4867 2.83233C41.4974 2.8302 41.5085 2.83183 41.518 2.83693C41.5276 2.84204 41.5352 2.8503 41.5393 2.86033L45.833 13.504C45.8404 13.5213 45.8528 13.536 45.8685 13.5463C45.8843 13.5565 45.9027 13.562 45.9215 13.5618H46.1022C46.1208 13.5618 46.1389 13.5561 46.1541 13.5454C46.1693 13.5348 46.1808 13.5197 46.1871 13.5022L50.4193 2.62541C50.4223 2.61449 50.4293 2.60509 50.4388 2.59907C50.4484 2.59305 50.4599 2.59084 50.471 2.59288C50.4822 2.59493 50.4921 2.60108 50.4989 2.61011C50.5058 2.61915 50.5089 2.63041 50.5079 2.64168V13.2763H52.2788C52.291 13.2766 52.3032 13.2744 52.3146 13.2698C52.326 13.2653 52.3364 13.2586 52.3451 13.25C52.3539 13.2414 52.3608 13.2311 52.3656 13.2198C52.3703 13.2085 52.3728 13.1964 52.3727 13.1842V1.2954V1.00266H50.4157C50.3973 1.00253 50.3794 1.00799 50.3642 1.01832C50.349 1.02865 50.3374 1.04336 50.3308 1.06049L46.7509 10.2766C46.7443 10.2934 46.7327 10.3079 46.7177 10.3181C46.7027 10.3283 46.685 10.3337 46.6669 10.3337C46.6488 10.3337 46.6311 10.3283 46.6161 10.3181C46.6011 10.3079 46.5895 10.2934 46.5829 10.2766" fill="white"/>
<path d="M6.38615 12.7687H4.35138C4.22757 12.7687 4.10879 12.7196 4.02107 12.6323C3.93335 12.5449 3.88384 12.4263 3.88336 12.3025V7.60407H7.52822C7.55266 7.60407 7.57612 7.59437 7.5934 7.57708C7.61068 7.5598 7.62038 7.53636 7.62038 7.51192V7.02401H3.88336V1.9642C3.88384 1.84134 3.93297 1.72368 4.02001 1.63697C4.10706 1.55027 4.22491 1.50158 4.34777 1.50158H9.81236C9.82462 1.50159 9.83675 1.49914 9.84805 1.49439C9.85935 1.48965 9.8696 1.48271 9.87819 1.47396C9.88677 1.46521 9.89352 1.45483 9.89804 1.44344C9.90256 1.43205 9.90477 1.41987 9.90453 1.40761V0.995605H2.49551C2.37218 0.995605 2.25386 1.04447 2.16648 1.13151C2.0791 1.21855 2.02977 1.33668 2.0293 1.46001V12.8048C2.02977 12.9277 2.07891 13.0454 2.16595 13.1321C2.253 13.2188 2.37085 13.2675 2.49371 13.2675H9.8196C9.83185 13.2675 9.84399 13.265 9.85529 13.2603C9.86659 13.2555 9.87684 13.2486 9.88542 13.2398C9.894 13.2311 9.90075 13.2207 9.90528 13.2093C9.9098 13.1979 9.912 13.1857 9.91176 13.1735V12.7633H6.39339" fill="white"/>
<path d="M20.6548 6.23789L23.004 2.55147C23.3817 1.95875 23.7377 1.39313 23.8967 1.14014C23.9056 1.12637 23.9105 1.11046 23.911 1.0941C23.9115 1.07775 23.9076 1.06157 23.8996 1.04728C23.8916 1.033 23.8799 1.02114 23.8657 1.01299C23.8515 1.00484 23.8354 1.00069 23.819 1.00099H23.2498L22.4691 2.20812L20.3006 5.64156L18.2821 1.98404C18.1014 1.67322 17.7581 1.0028 17.7581 1.0028H15.5679C15.5511 1.00234 15.5344 1.00651 15.5198 1.01484C15.5052 1.02318 15.4931 1.03537 15.4849 1.05008C15.4767 1.0648 15.4727 1.08148 15.4733 1.09832C15.4739 1.11515 15.4791 1.13148 15.4884 1.14556C15.6203 1.35879 15.9347 1.86839 16.6377 2.97793L19.1513 7.37997L16.2329 11.8977C15.7251 12.6205 15.483 12.9602 15.3691 13.1229C15.36 13.1368 15.3548 13.153 15.3541 13.1696C15.3534 13.1863 15.3572 13.2029 15.3652 13.2175C15.3732 13.2322 15.385 13.2444 15.3994 13.2529C15.4137 13.2613 15.4302 13.2657 15.4468 13.2656H16.0901C16.0901 13.2656 16.5275 12.6133 16.5925 12.5139C16.6756 12.3856 16.8473 12.1525 17.2033 11.5977L19.4947 7.98354L21.6632 11.8904L22.4565 13.2638H24.4443C24.4608 13.2638 24.477 13.2595 24.4912 13.2512C24.5055 13.2429 24.5174 13.2311 24.5256 13.2168C24.5339 13.2025 24.5382 13.1863 24.5382 13.1698C24.5382 13.1533 24.5338 13.1371 24.5256 13.1229C24.4533 12.9982 24.3449 12.8229 24.3015 12.7325L20.6548 6.23789Z" fill="white"/>
<path d="M70.953 9.25026L72.592 4.19045C72.5948 4.18063 72.6007 4.17199 72.6089 4.16584C72.617 4.15969 72.627 4.15637 72.6372 4.15637C72.6474 4.15637 72.6573 4.15969 72.6655 4.16584C72.6736 4.17199 72.6796 4.18063 72.6824 4.19045L74.4081 9.25026H70.953ZM77.7078 12.9801L73.4883 0.767844C73.4816 0.749275 73.4693 0.733228 73.4531 0.721907C73.437 0.710585 73.4177 0.704534 73.398 0.70459H73.1847C73.1651 0.705037 73.146 0.711526 73.1302 0.723164C73.1144 0.734802 73.1025 0.751034 73.0962 0.769653L69.3899 11.8687C69.0429 12.8915 68.9092 13.2728 68.9092 13.2728H69.5308C69.5499 13.2731 69.5686 13.2672 69.5842 13.2562C69.5998 13.2452 69.6115 13.2295 69.6176 13.2114C69.717 12.9258 70.129 11.7278 70.2428 11.4043L70.7578 9.83032H74.6051L75.4743 12.4145C75.4743 12.4488 75.7761 13.2656 75.7761 13.2656H77.6807C77.6959 13.2656 77.7109 13.262 77.7243 13.255C77.7378 13.2481 77.7494 13.2379 77.7581 13.2255C77.7668 13.2131 77.7724 13.1987 77.7743 13.1837C77.7763 13.1686 77.7745 13.1533 77.7693 13.1391L77.7078 12.9801Z" fill="white"/>
</svg>